<svg width="14" height="14" viewBox="0 0 14 14" fill="none" xmlns="http://www.w3.org/2000/svg">
<path d="M11.375 1.75H2.625C2.39294 1.75 2.17038 1.84219 2.00628 2.00628C1.84219 2.17038 1.75 2.39294 1.75 2.625V11.375C1.75 11.6071 1.84219 11.8296 2.00628 11.9937C2.17038 12.1578 2.39294 12.25 2.625 12.25H8.56898C8.68391 12.2502 8.79773 12.2276 8.90389 12.1836C9.01004 12.1396 9.10643 12.075 9.1875 11.9935L11.9935 9.1875C12.075 9.10643 12.1396 9.01004 12.1836 8.90389C12.2276 8.79773 12.2502 8.68391 12.25 8.56898V2.625C12.25 2.39294 12.1578 2.17038 11.9937 2.00628C11.8296 1.84219 11.6071 1.75 11.375 1.75ZM5.25 4.8125H8.75C8.86603 4.8125 8.97731 4.85859 9.05936 4.94064C9.14141 5.02269 9.1875 5.13397 9.1875 5.25C9.1875 5.36603 9.14141 5.47731 9.05936 5.55936C8.97731 5.64141 8.86603 5.6875 8.75 5.6875H5.25C5.13397 5.6875 5.02269 5.64141 4.94064 5.55936C4.85859 5.47731 4.8125 5.36603 4.8125 5.25C4.8125 5.13397 4.85859 5.02269 4.94064 4.94064C5.02269 4.85859 5.13397 4.8125 5.25 4.8125ZM7 9.1875H5.25C5.13397 9.1875 5.02269 9.14141 4.94064 9.05936C4.85859 8.97731 4.8125 8.86603 4.8125 8.75C4.8125 8.63397 4.85859 8.52269 4.94064 8.44064C5.02269 8.35859 5.13397 8.3125 5.25 8.3125H7C7.11603 8.3125 7.22731 8.35859 7.30936 8.44064C7.39141 8.52269 7.4375 8.63397 7.4375 8.75C7.4375 8.86603 7.39141 8.97731 7.30936 9.05936C7.22731 9.14141 7.11603 9.1875 7 9.1875ZM5.25 7.4375C5.13397 7.4375 5.02269 7.39141 4.94064 7.30936C4.85859 7.22731 4.8125 7.11603 4.8125 7C4.8125 6.88397 4.85859 6.77269 4.94064 6.69064C5.02269 6.60859 5.13397 6.5625 5.25 6.5625H8.75C8.86603 6.5625 8.97731 6.60859 9.05936 6.69064C9.14141 6.77269 9.1875 6.88397 9.1875 7C9.1875 7.11603 9.14141 7.22731 9.05936 7.30936C8.97731 7.39141 8.86603 7.4375 8.75 7.4375H5.25ZM8.75 11.194V8.75H11.1945L8.75 11.194Z" fill="url(#paint0_linear_7701_50255)"/>
<defs>
<linearGradient id="paint0_linear_7701_50255" x1="5.8671" y1="11.0428" x2="7.49189" y2="-1.15397" gradientUnits="userSpaceOnUse">
<stop stop-color="white"/>
<stop offset="1" stop-color="white" stop-opacity="0"/>
</linearGradient>
</defs>
</svg>
