<svg width="14" height="14" viewBox="0 0 14 14" fill="none" xmlns="http://www.w3.org/2000/svg">
<path d="M12.8093 6.28024L10.3483 8.40375L11.0981 11.5795C11.1395 11.7518 11.1288 11.9326 11.0675 12.099C11.0062 12.2653 10.8969 12.4098 10.7535 12.514C10.6102 12.6183 10.4391 12.6778 10.262 12.6849C10.0848 12.692 9.90954 12.6464 9.75827 12.554L6.99655 10.8543L4.23319 12.554C4.08194 12.6459 3.90687 12.691 3.73003 12.6837C3.55319 12.6763 3.38248 12.6168 3.23941 12.5126C3.09633 12.4084 2.98728 12.2642 2.926 12.0981C2.86471 11.9321 2.85392 11.7516 2.89499 11.5795L3.64749 8.40375L1.18655 6.28024C1.05273 6.16458 0.955944 6.01206 0.908288 5.84172C0.860632 5.67139 0.864214 5.49079 0.918587 5.32248C0.97296 5.15417 1.07571 5.0056 1.21402 4.89534C1.35232 4.78508 1.52004 4.71801 1.69624 4.7025L4.9228 4.44219L6.16749 1.43C6.23486 1.26584 6.34952 1.12542 6.49691 1.02659C6.64429 0.927767 6.81773 0.875 6.99518 0.875C7.17263 0.875 7.34607 0.927767 7.49345 1.02659C7.64084 1.12542 7.7555 1.26584 7.82288 1.43L9.06702 4.44219L12.2936 4.7025C12.4701 4.71743 12.6383 4.78413 12.7771 4.89424C12.9159 5.00435 13.0192 5.15297 13.0739 5.32149C13.1286 5.49 13.1324 5.67091 13.0847 5.84156C13.0371 6.01221 12.9401 6.16499 12.806 6.28078L12.8093 6.28024Z" fill="url(#paint0_linear_7769_36375)"/>
<defs>
<linearGradient id="paint0_linear_7769_36375" x1="5.67549" y1="11.3278" x2="7.44069" y2="-2.40806" gradientUnits="userSpaceOnUse">
<stop stop-color="white"/>
<stop offset="1" stop-color="white" stop-opacity="0"/>
</linearGradient>
</defs>
</svg>
