<svg width="12" height="12" viewBox="0 0 12 12" fill="none" xmlns="http://www.w3.org/2000/svg">
<path d="M11.4488 2.81267C11.3948 2.77897 11.3331 2.75957 11.2695 2.75629C11.206 2.75301 11.1426 2.76596 11.0855 2.79392C9.07312 3.77829 7.63594 3.31704 6.11672 2.83048C4.51875 2.32189 2.86875 1.79454 0.585469 2.90923C0.522411 2.94002 0.469257 2.98788 0.43205 3.04738C0.394844 3.10688 0.375078 3.17562 0.375 3.24579V8.86751C0.374991 8.93114 0.391171 8.99372 0.422018 9.04937C0.452864 9.10502 0.497362 9.1519 0.551325 9.18561C0.605287 9.21932 0.66694 9.23874 0.730479 9.24206C0.794019 9.24537 0.857356 9.23246 0.914531 9.20454C2.92688 8.22017 4.36406 8.68142 5.88562 9.16798C6.7875 9.45626 7.70625 9.75017 8.745 9.75017C9.54609 9.75017 10.4198 9.57579 11.4127 9.0911C11.4757 9.06032 11.5289 9.01245 11.5661 8.95296C11.6033 8.89346 11.623 8.82472 11.6231 8.75454V3.13282C11.6237 3.06903 11.608 3.00615 11.5775 2.95013C11.5469 2.89411 11.5026 2.8468 11.4488 2.81267ZM2.25 7.12517C2.25 7.22462 2.21049 7.32001 2.14016 7.39033C2.06984 7.46066 1.97446 7.50017 1.875 7.50017C1.77554 7.50017 1.68016 7.46066 1.60984 7.39033C1.53951 7.32001 1.5 7.22462 1.5 7.12517V4.12517C1.5 4.02571 1.53951 3.93033 1.60984 3.86C1.68016 3.78968 1.77554 3.75017 1.875 3.75017C1.97446 3.75017 2.06984 3.78968 2.14016 3.86C2.21049 3.93033 2.25 4.02571 2.25 4.12517V7.12517ZM6 7.50017C5.70333 7.50017 5.41332 7.41219 5.16665 7.24737C4.91997 7.08255 4.72771 6.84828 4.61418 6.57419C4.50065 6.3001 4.47094 5.9985 4.52882 5.70753C4.5867 5.41656 4.72956 5.14929 4.93934 4.93951C5.14912 4.72973 5.41639 4.58687 5.70736 4.52899C5.99834 4.47111 6.29994 4.50082 6.57403 4.61435C6.84811 4.72788 7.08238 4.92014 7.2472 5.16681C7.41203 5.41349 7.5 5.7035 7.5 6.00017C7.5 6.39799 7.34196 6.77952 7.06066 7.06083C6.77936 7.34213 6.39782 7.50017 6 7.50017ZM10.5 7.87517C10.5 7.97462 10.4605 8.07001 10.3902 8.14033C10.3198 8.21066 10.2245 8.25017 10.125 8.25017C10.0255 8.25017 9.93016 8.21066 9.85983 8.14033C9.78951 8.07001 9.75 7.97462 9.75 7.87517V4.87517C9.75 4.77571 9.78951 4.68033 9.85983 4.61C9.93016 4.53968 10.0255 4.50017 10.125 4.50017C10.2245 4.50017 10.3198 4.53968 10.3902 4.61C10.4605 4.68033 10.5 4.77571 10.5 4.87517V7.87517Z" fill="url(#paint0_linear_7769_36381)"/>
<defs>
<linearGradient id="paint0_linear_7769_36381" x1="4.78545" y1="8.88788" x2="5.56689" y2="0.0904918" gradientUnits="userSpaceOnUse">
<stop stop-color="white"/>
<stop offset="1" stop-color="white" stop-opacity="0"/>
</linearGradient>
</defs>
</svg>
