<svg width="12" height="12" viewBox="0 0 12 12" fill="none" xmlns="http://www.w3.org/2000/svg">
<path d="M10.125 3.37565H8.48063C8.49891 3.36019 8.51766 3.34519 8.53547 3.32878C8.67783 3.2023 8.79257 3.04781 8.8725 2.87496C8.95243 2.70211 8.99583 2.51463 9 2.32425C9.00616 2.11597 8.96968 1.90863 8.89281 1.71496C8.81594 1.52129 8.70029 1.34537 8.55298 1.19801C8.40566 1.05065 8.22978 0.934956 8.03613 0.858026C7.84248 0.781097 7.63515 0.744559 7.42688 0.750654C7.23641 0.754757 7.04884 0.798132 6.87591 0.878064C6.70298 0.957996 6.54841 1.07276 6.42188 1.21519C6.24679 1.4181 6.10445 1.64711 6 1.89394C5.89555 1.64711 5.75321 1.4181 5.57812 1.21519C5.45159 1.07276 5.29702 0.957996 5.12409 0.878064C4.95116 0.798132 4.76359 0.754757 4.57312 0.750654C4.36485 0.744559 4.15752 0.781097 3.96387 0.858026C3.77022 0.934956 3.59434 1.05065 3.44702 1.19801C3.29971 1.34537 3.18406 1.52129 3.10719 1.71496C3.03032 1.90863 2.99384 2.11597 3 2.32425C3.00417 2.51463 3.04757 2.70211 3.1275 2.87496C3.20743 3.04781 3.32217 3.2023 3.46453 3.32878C3.48234 3.34425 3.50109 3.35925 3.51938 3.37565H1.875C1.67609 3.37565 1.48532 3.45467 1.34467 3.59532C1.20402 3.73598 1.125 3.92674 1.125 4.12565V5.62565C1.125 5.82457 1.20402 6.01533 1.34467 6.15598C1.48532 6.29664 1.67609 6.37565 1.875 6.37565V9.37565C1.875 9.57457 1.95402 9.76533 2.09467 9.90598C2.23532 10.0466 2.42609 10.1257 2.625 10.1257H5.4375C5.48723 10.1257 5.53492 10.1059 5.57008 10.0707C5.60525 10.0356 5.625 9.98788 5.625 9.93815V5.62565H1.875V4.12565H5.625V5.62565H6.375V4.12565H10.125V5.62565H6.375V9.93815C6.375 9.98788 6.39475 10.0356 6.42992 10.0707C6.46508 10.1059 6.51277 10.1257 6.5625 10.1257H9.375C9.57391 10.1257 9.76468 10.0466 9.90533 9.90598C10.046 9.76533 10.125 9.57457 10.125 9.37565V6.37565C10.3239 6.37565 10.5147 6.29664 10.6553 6.15598C10.796 6.01533 10.875 5.82457 10.875 5.62565V4.12565C10.875 3.92674 10.796 3.73598 10.6553 3.59532C10.5147 3.45467 10.3239 3.37565 10.125 3.37565ZM3.96141 2.76628C3.89584 2.7069 3.84325 2.63461 3.80695 2.55395C3.77065 2.47328 3.75142 2.38598 3.75047 2.29753C3.7481 2.19389 3.76644 2.09082 3.80441 1.99436C3.84238 1.8979 3.89922 1.80998 3.9716 1.73577C4.04398 1.66155 4.13045 1.60253 4.22593 1.56216C4.32141 1.52179 4.42399 1.50088 4.52766 1.50065H4.55063C4.63908 1.50161 4.72638 1.52084 4.80704 1.55714C4.88771 1.59344 4.96 1.64602 5.01938 1.71159C5.41266 2.15597 5.55141 2.89284 5.60016 3.34847C5.14266 3.30019 4.40625 3.16144 3.96141 2.76628ZM8.03953 2.76628C7.59469 3.16003 6.85641 3.29878 6.39891 3.34753C6.45469 2.85487 6.60938 2.13347 6.98438 1.71206C7.04375 1.64649 7.11604 1.59391 7.19671 1.55761C7.27737 1.52131 7.36467 1.50208 7.45312 1.50112H7.47609C7.57977 1.50177 7.68227 1.52311 7.77759 1.56388C7.87291 1.60465 7.95914 1.66403 8.03121 1.73855C8.10329 1.81307 8.15977 1.90123 8.19734 1.99786C8.2349 2.09449 8.25281 2.19764 8.25 2.30128C8.24847 2.38913 8.22892 2.47573 8.19256 2.55572C8.15619 2.63571 8.10379 2.70737 8.03859 2.76628H8.03953Z" fill="url(#paint0_linear_7769_36387)"/>
<defs>
<linearGradient id="paint0_linear_7769_36387" x1="4.94803" y1="9.04774" x2="6.34496" y2="-1.85734" gradientUnits="userSpaceOnUse">
<stop stop-color="white"/>
<stop offset="1" stop-color="white" stop-opacity="0"/>
</linearGradient>
</defs>
</svg>
