<svg width="82" height="44" viewBox="0 0 82 44" fill="none" xmlns="http://www.w3.org/2000/svg">
<path opacity="0.7" fill-rule="evenodd" clip-rule="evenodd" d="M43.3193 31.4907C46.7737 31.4907 49.5742 34.2912 49.5742 37.7456C49.5741 41.1998 46.7736 43.9995 43.3193 43.9995C42.3223 43.9995 41.3801 43.7665 40.5439 43.351L26.8291 42.9653L39.3945 42.6118C39.1578 42.421 38.9354 42.2123 38.7305 41.9897L22.0225 41.643L39.0303 41.2915C38.8872 41.1519 38.7544 41.0015 38.6289 40.8442L27.5977 40.5258L38.208 40.2202C38.0225 39.895 37.8742 39.5481 37.7646 39.184L31.7969 38.9672L37.6572 38.7534C37.5901 38.4264 37.5547 38.0883 37.5547 37.7436C37.5547 34.9805 39.7925 32.7407 42.5557 32.7407C44.2386 32.7407 45.7249 33.5716 46.6318 34.8462C45.7797 33.782 44.47 33.0981 43.001 33.0981C40.4359 33.0982 38.3555 35.1785 38.3555 37.7436C38.3555 38.0795 38.391 38.4067 38.46 38.7231C38.4953 38.8891 38.5408 39.0534 38.5938 39.2124C38.7087 39.5589 38.8646 39.8897 39.0537 40.1938C39.2039 40.4341 39.3754 40.6601 39.5645 40.8686C39.6935 41.0118 39.8318 41.1462 39.9785 41.27C40.3515 41.5899 40.7738 41.8523 41.2334 42.0415C41.7778 42.2659 42.3753 42.3891 43.001 42.3891C44.4717 42.3891 45.7797 41.707 46.6318 40.6411C45.7249 41.9155 44.2385 42.7465 42.5557 42.7465H42.5234C42.0657 42.743 41.6218 42.6794 41.2012 42.561C40.7559 42.4355 40.3354 42.2518 39.9502 42.0151L38.7988 41.9897C39.041 42.216 39.3028 42.4229 39.582 42.6049C40.107 42.9479 40.6905 43.2095 41.3145 43.3686C41.7758 43.487 42.2603 43.5512 42.7588 43.5512C45.9674 43.5512 48.5684 40.9503 48.5684 37.7417C48.5683 34.5331 45.9656 31.9331 42.7588 31.9331C40.9203 31.9331 39.283 32.7867 38.2188 34.1196C39.3519 32.5269 41.2118 31.4869 43.3154 31.4868L43.3193 31.4907ZM73.9746 31.0366C77.4288 31.0366 80.2293 33.8363 80.2295 37.2905C80.2295 40.7448 77.429 43.5454 73.9746 43.5454C73.4568 43.5453 72.9546 43.4831 72.4756 43.3647L58.0771 42.9604L70.6797 42.6069C70.3809 42.423 70.1015 42.2127 69.8398 41.9829L53.2686 41.6401L69.1846 41.311C69.0767 41.1837 68.9742 41.0506 68.877 40.9145C68.9865 41.0505 69.1008 41.1818 69.2227 41.309C69.4594 41.5564 69.7197 41.7843 69.9971 41.9858C70.3241 42.2244 70.6778 42.43 71.0508 42.5962C71.772 42.9196 72.5729 43.1 73.416 43.1001C73.5362 43.1001 73.655 43.0964 73.7734 43.0893C76.8159 42.9055 79.2256 40.5011 79.2256 37.2924C79.2255 34.0839 76.6246 31.4838 73.416 31.4838C71.5794 31.4839 69.9421 32.3375 68.8779 33.6704C70.011 32.0776 71.871 31.0377 73.9746 31.0376V31.0366ZM73.21 32.2866C74.8928 32.2867 76.3793 33.1193 77.2861 34.3921C76.4341 33.3261 75.1243 32.6431 73.6553 32.643C71.0884 32.643 69.0088 34.7244 69.0088 37.2895C69.0088 37.7951 69.0908 38.2815 69.2393 38.7358C69.2905 38.8929 69.349 39.0446 69.416 39.1928C69.5787 39.5552 69.7855 39.8919 70.0312 40.1977C70.2256 40.4416 70.445 40.6639 70.6836 40.8618C70.8621 41.0103 71.0493 41.1468 71.249 41.2671C71.9491 41.6913 72.7729 41.937 73.6533 41.937C73.9554 41.937 74.2487 41.9087 74.5332 41.854C75.6397 41.6418 76.6071 41.0373 77.2842 40.1889C76.3773 41.4615 74.8908 42.2943 73.208 42.2944C72.6353 42.2944 72.0819 42.1965 71.5693 42.018C71.0744 41.8466 70.6142 41.5996 70.2041 41.2885C70.0185 41.1506 69.8431 40.9979 69.6787 40.8335V40.8286L58.8438 40.5171L69.1572 40.2202C68.9205 39.8932 68.7223 39.5378 68.5703 39.1596L63.041 38.9585L68.4297 38.7622C68.2865 38.2972 68.208 37.8002 68.208 37.2876C68.208 34.5262 70.4468 32.2866 73.21 32.2866ZM43.1123 34.1919C45.0727 34.1919 46.662 35.8396 46.6621 37.7417C46.6621 39.6439 45.1663 41.1966 43.2871 41.2885C43.2288 41.2921 43.1706 41.2915 43.1123 41.2915C42.8648 41.2915 42.624 41.2669 42.3906 41.2192C42.0903 41.1556 41.8039 41.0568 41.5371 40.9243C41.1465 40.7299 40.7983 40.4662 40.5049 40.1499C40.2609 39.8865 40.0569 39.5871 39.9014 39.2583C39.8131 39.0746 39.7413 38.8785 39.6865 38.6772C39.6052 38.3784 39.5625 38.0652 39.5625 37.7417C39.5626 35.7812 41.1518 34.1919 43.1123 34.1919ZM73.7715 33.7426C75.732 33.7426 77.3212 35.332 77.3213 37.2924C77.3213 39.1379 75.9128 40.655 74.1133 40.8266C74.0019 40.8372 73.8864 40.8422 73.7715 40.8422C72.9831 40.8422 72.2566 40.5876 71.668 40.1528C71.3303 39.9035 71.0382 39.5973 70.8066 39.2456C70.6919 39.0707 70.5908 38.8852 70.5078 38.6909C70.324 38.2631 70.2217 37.7891 70.2217 37.2924C70.2217 35.332 71.8111 33.7428 73.7715 33.7426ZM67.291 0.0815033C68.9845 -0.397225 70.9521 1.33058 71.6875 3.93795C72.352 6.29609 71.7858 8.56803 70.4229 9.33346C70.4264 9.67794 70.4691 10.0436 70.5273 10.3969H70.5254C71.0363 11.965 71.3164 13.6412 71.3164 15.3842C71.3164 15.5998 71.3125 15.8171 71.3037 16.0327C71.0785 15.8637 70.851 15.7071 70.626 15.5571C77.4113 20.3938 81.8368 28.3271 81.8369 37.2944H80.7295C80.7294 36.0517 80.3989 34.8869 79.8262 33.8794C79.6441 23.6843 71.3233 15.4762 61.0859 15.476C60.5414 15.476 59.9997 15.5004 59.4658 15.5463C67.9285 16.2694 74.786 22.6165 76.2852 30.8335C75.5181 30.5401 74.6858 30.3775 73.8145 30.3774C69.9959 30.3774 66.8984 33.4731 66.8984 37.2934H50.3711C50.3711 33.4749 47.2736 30.3775 43.4551 30.3774C39.6365 30.3774 36.5391 33.4731 36.5391 37.2934H35.7529C35.9368 23.5008 46.5858 12.2354 60.1221 11.0756L60.1201 11.0776C63.7868 11.7676 67.1894 13.2072 70.1611 15.2319C70.1884 14.8522 70.2061 14.4656 70.2061 14.0776C70.206 12.9304 70.0729 11.8147 69.8271 10.7417C69.6186 10.2592 69.4 9.88404 69.1914 9.5942C67.71 9.46868 66.1911 7.88875 65.5635 5.66842C64.8263 3.06086 65.5974 0.55882 67.291 0.0815033ZM55.1582 5.62545C57.9124 5.62545 60.1433 7.85845 60.1436 10.6108C60.1436 10.7681 60.1352 10.9226 60.1211 11.0747C59.3628 11.011 58.5934 10.9751 57.8174 10.9751C43.2044 10.9751 31.337 22.7264 31.1426 37.2934H29.8955L28.4785 37.228L7.00977 36.2397L28.5557 35.2475H28.5576C28.5877 34.8464 28.6271 34.449 28.6748 34.0532L0 33.0786L28.9873 32.0903C29.0333 31.857 29.0808 31.6255 29.1338 31.394L8.13184 30.4008L29.6719 29.3803C29.8557 28.7881 30.0587 28.2029 30.2832 27.6284L14.252 26.6723L31.1387 25.6645C34.768 18.1866 41.7849 12.6569 50.1963 11.0747C50.1821 10.9226 50.1729 10.7664 50.1729 10.6108C50.1731 7.85672 52.4041 5.62552 55.1582 5.62545ZM62.6533 30.1479C62.6639 30.1556 63.1651 30.5224 63.125 30.9946C63.0857 31.4735 62.2713 32.0176 61.2021 31.4858C60.1326 30.9535 58.6378 29.6263 58.127 30.5932C58.1201 30.6054 58.1146 30.6182 58.1094 30.6303C58.1007 30.6199 58.0915 30.6105 58.0811 30.6001C57.3365 29.8901 56.4094 31.3878 55.5996 32.27C55.3994 31.9604 55.2302 31.6051 55.1152 31.1977C55.1146 31.2142 55.0941 31.7937 55.4307 32.4448C54.593 33.2639 53.6604 33.008 53.4727 32.5717C53.2854 32.1398 53.6381 31.6373 53.6514 31.6186L53.6494 31.6206C53.6264 31.6452 52.8598 32.4785 53.6758 33.1088C54.1667 33.4872 55.0063 33.2684 55.7676 32.9546C56.2224 33.4998 56.9934 34.0075 58.2988 34.1928C58.2686 34.1854 57.0066 33.8701 56.041 32.8354C56.4972 32.631 56.9051 32.4148 57.1602 32.3032C57.5577 32.1301 58.0392 31.8575 58.2568 31.5219C58.5695 31.7707 59.112 31.8746 59.543 31.9135C60.3207 31.9825 62.5027 32.4651 63.1025 31.5678C63.6795 30.7051 62.6697 30.1567 62.6533 30.1479ZM56.5205 28.6128C56.0824 28.6006 55.4433 28.8889 55.3525 28.9545C55.3454 28.9604 55.2186 29.0724 55.2461 29.5415C55.2461 29.5415 55.7464 29.1065 56.5645 28.9897L56.5664 28.9917C56.5664 28.9917 56.832 28.9807 57.0088 29.2368C57.0072 29.2183 56.9521 28.6249 56.5205 28.6128ZM60.2012 28.1626C60.0931 28.1289 59.3965 28.0604 58.9854 28.2104C58.5739 28.3626 58.7217 28.9585 58.7217 28.9585C58.8047 28.666 59.053 28.5867 59.0635 28.5835C59.8694 28.4346 60.4777 28.6816 60.4883 28.686C60.361 28.2211 60.2012 28.1626 60.2012 28.1626ZM64.1152 21.7299C63.9809 19.575 62.3883 18.6163 61.0801 19.1342H61.082C59.7742 19.6522 60.0028 20.5291 56.0732 19.3872C52.1438 18.2456 49.5874 20.7043 50.6885 23.6899C51.491 25.8658 52.8987 26.5043 53.7773 26.5327C54 27.1531 54.17 27.8233 54.1895 28.8042C54.2028 28.7671 55.1202 26.1947 53.125 25.0942C53.1346 25.1079 53.3879 25.4708 53.6445 26.1088C52.4885 25.8683 51.5705 24.5968 51.293 22.6489C50.996 20.5647 53.3515 19.5269 55.7168 19.8803C58.0817 20.2339 59.2027 20.7036 60.6025 19.9526C62.0027 19.2013 63.7015 20.2729 63.5459 22.7797C63.3912 25.2702 61.4641 26.1176 61.4395 26.1284C63.0019 25.5679 64.2493 23.8845 64.1152 21.7299ZM62.8779 24.0659C62.0543 25.0414 61.504 25.206 61.2158 25.2661C61.2141 24.7696 61.2601 24.4245 61.2617 24.4126C60.5 25.9416 61.1045 27.2465 61.1045 27.2465C57.6096 26.3822 54.7822 28.5776 54.7822 28.5776C58.3175 26.655 61.0771 27.7996 61.0996 27.809C61.0414 27.8848 61.0038 27.9257 60.9209 27.9751L61.0566 28.686C61.7228 28.4488 61.8236 27.8629 61.8262 27.8471C61.4109 27.1632 61.2676 26.3239 61.2305 25.6469C62.4448 25.2268 62.8724 24.0905 62.8809 24.0678L62.8779 24.0659ZM61.4922 22.854C60.2739 25.1302 58.9742 23.159 58.96 23.1372C56.9679 26.6845 53.7407 23.0667 53.7227 23.0463C57.243 27.3065 59.0417 24.0078 59.0625 23.9692C60.7357 25.2842 61.482 22.8869 61.4922 22.854ZM41.665 0.000448604C41.9203 0.0688754 39.6939 6.28655 40.2627 6.42818C40.8249 6.56961 42.1969 0.0838815 42.5752 0.181113C42.9116 0.266973 40.774 6.48584 41.4277 6.64889C42.0058 6.79385 43.1624 0.325193 43.4824 0.404745C43.8062 0.488377 42.0256 6.77834 42.4922 6.89498C43.0491 7.03116 44.1027 0.559305 44.3271 0.617636C44.4896 2.24787 43.3039 8.03797 42.8672 9.24068C42.3351 10.7044 41.4103 9.72715 40.3125 12.3891C40.2506 12.9424 40.2168 13.5084 40.2168 14.0776C40.2168 14.4347 40.2287 14.7938 40.2588 15.142C39.8011 15.4213 39.4263 15.6705 39.1152 15.9038C39.1117 15.7341 39.1064 15.5592 39.1064 15.3842C39.1064 14.0991 39.2601 12.8544 39.543 11.6577C39.6473 9.29938 38.4985 9.72344 38.8945 7.66744C39.1615 6.29546 41.4069 -0.0614248 41.665 0.000448604Z" fill="white"/>
</svg>
