<svg width="24" height="24" viewBox="0 0 24 24" fill="none" xmlns="http://www.w3.org/2000/svg">
<g clip-path="url(#clip0_3976_17410)">
<path d="M18.3563 12.7269C18.389 16.2519 21.449 17.4251 21.4827 17.4401C21.4568 17.5226 20.9939 19.1119 19.8708 20.7531C18.8999 22.1721 17.8921 23.5858 16.3049 23.6154C14.7453 23.6439 14.2437 22.6903 12.4604 22.6903C10.6776 22.6903 10.1206 23.5858 8.64402 23.6439C7.11177 23.7021 5.94496 22.1093 4.96602 20.6957C2.96577 17.8037 1.43708 12.5235 3.48964 8.95931C4.50927 7.18931 6.33177 6.06863 8.30971 6.03975C9.81421 6.01106 11.2343 7.05188 12.154 7.05188C13.0731 7.05188 14.7989 5.80013 16.6131 5.98388C17.3727 6.01556 19.5046 6.29063 20.8735 8.29463C20.7635 8.36306 18.3299 9.77981 18.3563 12.7269ZM15.4251 4.07081C16.2385 3.08625 16.786 1.71525 16.6368 0.351562C15.4641 0.398625 14.0463 1.13287 13.2053 2.11706C12.4516 2.98838 11.7916 4.38338 11.9695 5.72006C13.2766 5.82131 14.6116 5.05594 15.4251 4.07081Z" fill="black"/>
</g>
<defs>
<clipPath id="clip0_3976_17410">
<rect width="24" height="24" fill="white"/>
</clipPath>
</defs>
</svg>
