<svg width="24" height="24" viewBox="0 0 24 24" fill="none" xmlns="http://www.w3.org/2000/svg">
<path d="M19.9989 13.9999C20.2538 14.0001 20.4989 14.0977 20.6843 14.2727C20.8696 14.4477 20.9811 14.6868 20.9961 14.9413C21.011 15.1957 20.9282 15.4462 20.7646 15.6417C20.601 15.8371 20.369 15.9628 20.1159 15.9929L19.9989 15.9999H6.41289L8.70589 18.2929C8.88524 18.4728 8.98937 18.7143 8.99712 18.9682C9.00488 19.2222 8.91568 19.4696 8.74764 19.6601C8.57961 19.8507 8.34534 19.9702 8.09242 19.9943C7.8395 20.0184 7.58688 19.9453 7.38589 19.7899L7.29189 19.7069L3.46189 15.8769C2.79689 15.2129 3.22289 14.0939 4.12489 14.0059L4.23989 13.9999H19.9989ZM15.2919 4.29286C15.4641 4.12068 15.6932 4.01725 15.9362 4.00197C16.1792 3.98669 16.4195 4.06061 16.6119 4.20986L16.7059 4.29286L20.5359 8.12286C21.2009 8.78686 20.7749 9.90586 19.8729 9.99386L19.7579 9.99986H3.99889C3.74401 9.99958 3.49886 9.90198 3.31352 9.72701C3.12819 9.55204 3.01666 9.31291 3.00172 9.05847C2.98678 8.80402 3.06957 8.55348 3.23316 8.35803C3.39675 8.16258 3.6288 8.03696 3.88189 8.00686L3.99889 7.99986H17.5849L15.2919 5.70686C15.1044 5.51933 14.9991 5.26503 14.9991 4.99986C14.9991 4.7347 15.1044 4.48039 15.2919 4.29286Z" fill="#737373"/>
</svg>
