<svg width="20" height="20" viewBox="0 0 20 20" fill="none" xmlns="http://www.w3.org/2000/svg">
    <path d="M3.125 13.4844C3.27833 13.4844 3.42576 13.5449 3.53418 13.6533C3.6426 13.7617 3.70312 13.9092 3.70312 14.0625V16.2969H5.9375C6.09083 16.2969 6.23826 16.3574 6.34668 16.4658C6.4551 16.5742 6.51562 16.7217 6.51562 16.875C6.51562 17.0283 6.4551 17.1758 6.34668 17.2842C6.23826 17.3926 6.09083 17.4531 5.9375 17.4531H3.125C2.97167 17.4531 2.82424 17.3926 2.71582 17.2842C2.6074 17.1758 2.54688 17.0283 2.54688 16.875V14.0625C2.54688 13.9092 2.6074 13.7617 2.71582 13.6533C2.82424 13.5449 2.97167 13.4844 3.125 13.4844ZM16.875 13.4844C17.0283 13.4844 17.1758 13.5449 17.2842 13.6533C17.3926 13.7617 17.4531 13.9092 17.4531 14.0625V16.875C17.4531 17.0283 17.3926 17.1758 17.2842 17.2842C17.1758 17.3926 17.0283 17.4531 16.875 17.4531H14.0625C13.9092 17.4531 13.7617 17.3926 13.6533 17.2842C13.5449 17.1758 13.4844 17.0283 13.4844 16.875C13.4844 16.7217 13.5449 16.5742 13.6533 16.4658C13.7617 16.3574 13.9092 16.2969 14.0625 16.2969H16.2969V14.0625C16.2969 13.9092 16.3574 13.7617 16.4658 13.6533C16.5742 13.5449 16.7217 13.4844 16.875 13.4844ZM9.99805 5.66992C10.6185 5.67 11.2243 5.85748 11.7363 6.20801C12.2485 6.5587 12.6427 7.05605 12.8672 7.63477C13.0916 8.21348 13.1359 8.84687 12.9941 9.45117C12.8523 10.0552 12.5314 10.6021 12.0732 11.0205L12.0195 11.0693L12.0859 11.0986C12.823 11.4178 13.4763 11.9004 13.9961 12.5088L14.21 12.7773C14.2745 12.8631 14.3144 12.9654 14.3242 13.0723C14.334 13.179 14.3134 13.2868 14.2656 13.3828C14.2179 13.4787 14.1447 13.5597 14.0537 13.6162C13.9626 13.6728 13.8573 13.7028 13.75 13.7031C13.6602 13.7033 13.5716 13.6826 13.4912 13.6426C13.4109 13.6026 13.3411 13.5443 13.2871 13.4727C12.9043 12.9623 12.4075 12.548 11.8369 12.2627C11.2663 11.9774 10.637 11.8291 9.99902 11.8291C9.36113 11.8291 8.73168 11.9774 8.16113 12.2627C7.59066 12.548 7.09463 12.9624 6.71191 13.4727C6.61972 13.5953 6.48201 13.6767 6.33008 13.6982C6.1783 13.7197 6.02392 13.68 5.90137 13.5879C5.7787 13.4957 5.69831 13.358 5.67676 13.2061C5.66064 13.0922 5.67858 12.9772 5.72754 12.875L5.78711 12.7773C6.33608 12.0423 7.0675 11.4636 7.90918 11.0986L7.97559 11.0693L7.92188 11.0205C7.46379 10.6021 7.14277 10.0551 7.00098 9.45117C6.85921 8.84689 6.90351 8.21346 7.12793 7.63477C7.35238 7.05605 7.74663 6.5587 8.25879 6.20801C8.77093 5.85735 9.37737 5.66992 9.99805 5.66992ZM10.375 6.86523C10.0022 6.79108 9.61582 6.82916 9.26465 6.97461C8.91347 7.12007 8.61352 7.36657 8.40234 7.68262C8.19121 7.99865 8.07812 8.36993 8.07812 8.75C8.07812 9.25971 8.2802 9.74895 8.64062 10.1094C9.00105 10.4698 9.49029 10.6719 10 10.6719C10.3801 10.6719 10.7514 10.5588 11.0674 10.3477C11.3834 10.1365 11.6299 9.83653 11.7754 9.48535C11.9208 9.13418 11.9589 8.7478 11.8848 8.375C11.8106 8.00223 11.6281 7.65938 11.3594 7.39062C11.0906 7.12187 10.7478 6.9394 10.375 6.86523ZM3.125 2.54688H5.9375C6.09083 2.54688 6.23826 2.6074 6.34668 2.71582C6.4551 2.82424 6.51562 2.97167 6.51562 3.125C6.51562 3.27833 6.4551 3.42576 6.34668 3.53418C6.23826 3.6426 6.09083 3.70312 5.9375 3.70312H3.70312V5.9375C3.70312 6.09083 3.6426 6.23826 3.53418 6.34668C3.42576 6.4551 3.27833 6.51562 3.125 6.51562C2.97167 6.51562 2.82424 6.4551 2.71582 6.34668C2.6074 6.23826 2.54688 6.09083 2.54688 5.9375V3.125C2.54688 2.97167 2.6074 2.82424 2.71582 2.71582C2.82424 2.6074 2.97167 2.54688 3.125 2.54688ZM14.0625 2.54688H16.875C17.0283 2.54688 17.1758 2.6074 17.2842 2.71582C17.3926 2.82424 17.4531 2.97167 17.4531 3.125V5.9375C17.4531 6.09083 17.3926 6.23826 17.2842 6.34668C17.1758 6.4551 17.0283 6.51562 16.875 6.51562C16.7217 6.51562 16.5742 6.4551 16.4658 6.34668C16.3574 6.23826 16.2969 6.09083 16.2969 5.9375V3.70312H14.0625C13.9092 3.70312 13.7617 3.6426 13.6533 3.53418C13.5449 3.42576 13.4844 3.27833 13.4844 3.125C13.4844 2.97167 13.5449 2.82424 13.6533 2.71582C13.7617 2.6074 13.9092 2.54687 14.0625 2.54688Z" fill="#878787" stroke="#878787" stroke-width="0.09375"/>
</svg>
