<svg width="44" height="44" viewBox="0 0 44 44" fill="none" xmlns="http://www.w3.org/2000/svg">
<rect width="44" height="44" rx="8" fill="#F59600" fill-opacity="0.15"/>
<g clip-path="url(#clip0_4869_32498)">
<path d="M22.0008 23.6061C15.7535 23.6061 10.6895 23.4561 10.6895 27.8907C10.6895 32.3234 15.7535 33.3321 22.0008 33.3321C28.2481 33.3321 33.3121 32.3234 33.3121 27.8907C33.3121 23.4567 28.2481 23.6061 22.0008 23.6061Z" fill="#D99E82"/>
<path d="M32.9807 23.9457C32.9807 23.9457 27.5013 23.2897 22.0007 23.2617C16.5 23.2897 11.0207 23.9457 11.0207 23.9457C10.4787 28.2617 14.9787 30.0397 22.0007 30.0397C29.0227 30.0397 33.5227 28.2617 32.9807 23.9457Z" fill="#662113"/>
<path d="M32.591 22.2188L11.3544 22.6494C10.621 22.6494 10.007 24.1354 10.785 24.5241C16.5904 26.3294 21.257 28.1561 21.257 28.1561C21.8984 28.5108 22.115 28.5121 22.757 28.1581C22.757 28.1581 29.201 25.5794 33.3404 24.4961C33.9277 24.3428 33.3237 22.2188 32.591 22.2188Z" fill="#FFCC4D"/>
<path d="M33.1508 22.2754C31.8841 21.1081 31.9574 21.7294 30.9868 21.4554C30.6181 21.3514 27.9801 17.9414 21.9674 17.9414H21.9541C15.9414 17.9414 13.3034 21.3514 12.9348 21.4554C11.9641 21.7294 12.0374 21.1081 10.7708 22.2754C10.1894 22.8114 10.0321 23.0901 10.6454 23.2287C11.5694 23.4374 11.4854 23.9967 12.1474 24.1914C12.9488 24.4267 13.2781 23.9967 14.5701 24.1727C15.6721 24.3227 15.7441 25.7521 16.8561 25.7521C17.9681 25.7521 17.9681 25.2187 19.0794 25.2187C20.1908 25.2187 20.8481 26.6494 21.9601 26.6494C23.0721 26.6494 23.7288 25.2187 24.8408 25.2187C25.9528 25.2187 25.9528 25.7521 27.0641 25.7521C28.1754 25.7521 28.2481 24.3227 29.3501 24.1727C30.6421 23.9974 30.9721 24.4267 31.7728 24.1914C32.4348 23.9967 32.3508 23.4381 33.2748 23.2287C33.8894 23.0907 33.7328 22.8114 33.1508 22.2754Z" fill="#77B255"/>
<path d="M32.7173 21.0122C32.7173 23.0015 27.9186 23.9408 21.9993 23.9408C16.0799 23.9408 11.2812 23.0015 11.2812 21.0122C11.2812 17.4102 11.9252 17.4102 21.9993 17.4102C32.0732 17.4102 32.7173 17.4108 32.7173 21.0122Z" fill="#DD2E44"/>
<path d="M22.0008 10.3477C15.7535 10.3477 10.6895 13.275 10.6895 17.709C10.6895 21.7923 15.7535 21.959 22.0008 21.959C28.2481 21.959 33.3121 21.7923 33.3121 17.709C33.3121 13.2743 28.2481 10.3477 22.0008 10.3477Z" fill="#D99E82"/>
<path d="M17.1889 12.4631C17.11 12.4127 17.022 12.3783 16.9298 12.3619C16.8377 12.3455 16.7432 12.3474 16.6517 12.3675C16.5603 12.3876 16.4737 12.4255 16.3969 12.4791C16.3202 12.5327 16.2547 12.6009 16.2043 12.6797C16.1538 12.7586 16.1194 12.8467 16.103 12.9388C16.0866 13.031 16.0885 13.1255 16.1087 13.217C16.1288 13.3084 16.1667 13.395 16.2203 13.4717C16.2739 13.5485 16.342 13.614 16.4209 13.6644C16.7529 13.8771 17.5943 14.0357 17.8069 13.7037C18.0189 13.3717 17.5209 12.6751 17.1889 12.4631ZM23.6783 11.7731C23.3036 11.8944 22.6456 12.4437 22.7676 12.8184C22.8896 13.1931 23.7436 13.2504 24.1183 13.1291C24.2073 13.1002 24.2898 13.054 24.361 12.9933C24.4322 12.9325 24.4907 12.8583 24.5332 12.7749C24.5758 12.6915 24.6015 12.6006 24.6088 12.5073C24.6162 12.414 24.6051 12.3201 24.5763 12.2311C24.5474 12.142 24.5012 12.0596 24.4405 11.9884C24.3797 11.9172 24.3055 11.8586 24.2221 11.8161C24.1387 11.7736 24.0478 11.7479 23.9545 11.7405C23.8611 11.7331 23.7673 11.7442 23.6783 11.7731ZM30.9509 16.4631C30.6496 16.2097 29.8943 16.6131 29.6403 16.9144C29.5245 17.0599 29.47 17.2448 29.4886 17.4298C29.5071 17.6148 29.5972 17.7853 29.7395 17.9049C29.8819 18.0245 30.0653 18.0838 30.2508 18.0701C30.4362 18.0564 30.609 17.9709 30.7323 17.8317C30.9863 17.5297 31.2529 16.7164 30.9509 16.4631ZM28.5223 13.1297C28.3629 13.0322 28.1717 13.0011 27.9896 13.043C27.8076 13.0849 27.6493 13.1966 27.5487 13.354C27.4481 13.5115 27.4133 13.7021 27.4517 13.8849C27.4902 14.0677 27.5988 14.2282 27.7543 14.3317C28.0863 14.5444 28.9276 14.7031 29.1396 14.3711C29.3523 14.0384 28.8543 13.3417 28.5223 13.1297ZM18.5223 17.7964C18.4433 17.746 18.3552 17.7116 18.2629 17.6952C18.1707 17.6788 18.0761 17.6808 17.9846 17.701C17.8931 17.7211 17.8064 17.7591 17.7296 17.8128C17.6528 17.8665 17.5873 17.9348 17.5369 18.0137C17.4355 18.1731 17.4014 18.3662 17.4421 18.5507C17.4829 18.7352 17.5951 18.8959 17.7543 18.9977C18.0863 19.2104 18.9276 19.3697 19.1396 19.0371C19.3523 18.7051 18.8543 18.0084 18.5223 17.7964ZM20.5529 14.5911C20.3289 14.9151 20.1396 15.7504 20.4643 15.9744C20.7883 16.1984 21.5023 15.7251 21.7263 15.4011C21.8258 15.2454 21.861 15.0571 21.8245 14.8759C21.7879 14.6948 21.6825 14.5349 21.5305 14.4299C21.3784 14.3249 21.1915 14.283 21.0091 14.3131C20.8268 14.3432 20.6632 14.4428 20.5529 14.5911ZM25.8556 17.7964C25.7766 17.746 25.6885 17.7116 25.5962 17.6952C25.504 17.6788 25.4094 17.6808 25.3179 17.701C25.2264 17.7211 25.1398 17.7591 25.063 17.8128C24.9862 17.8665 24.9207 17.9348 24.8703 18.0137C24.7688 18.1731 24.7347 18.3662 24.7754 18.5507C24.8162 18.7352 24.9284 18.8959 25.0876 18.9977C25.4196 19.2104 26.2609 19.3697 26.4729 19.0371C26.6856 18.7051 26.1876 18.0084 25.8556 17.7964ZM13.2983 15.2051C13.0356 15.4991 12.7429 16.3037 13.0369 16.5664C13.3296 16.8291 14.0976 16.4504 14.3603 16.1564C14.4266 16.0874 14.4784 16.0056 14.5125 15.9161C14.5466 15.8266 14.5623 15.7312 14.5588 15.6355C14.5552 15.5398 14.5324 15.4457 14.4917 15.359C14.451 15.2723 14.3932 15.1947 14.3219 15.1308C14.2506 15.0669 14.1671 15.018 14.0764 14.9871C13.9858 14.9561 13.8898 14.9437 13.7943 14.9507C13.6988 14.9576 13.6056 14.9837 13.5204 15.0274C13.4352 15.0711 13.3596 15.1315 13.2983 15.2051Z" fill="#FFE8B6"/>
</g>
<defs>
<clipPath id="clip0_4869_32498">
<rect width="24" height="24" fill="white" transform="translate(10 10)"/>
</clipPath>
</defs>
</svg>
