<svg width="16" height="16" viewBox="0 0 16 16" fill="none" xmlns="http://www.w3.org/2000/svg">
<path d="M12.6673 4.66536C12.6673 3.93203 12.0673 3.33203 11.334 3.33203H10.0007C9.63398 3.33203 9.33398 3.63203 9.33398 3.9987C9.33398 4.36536 9.63398 4.66536 10.0007 4.66536H11.334V6.43203L9.01398 9.33203H6.66732V6.66536C6.66732 6.2987 6.36732 5.9987 6.00065 5.9987H4.00065C2.52732 5.9987 1.33398 7.19203 1.33398 8.66536V9.9987C1.33398 10.3654 1.63398 10.6654 2.00065 10.6654H2.66732C2.66732 11.772 3.56065 12.6654 4.66732 12.6654C5.77398 12.6654 6.66732 11.772 6.66732 10.6654H9.01398C9.42065 10.6654 9.80065 10.4787 10.054 10.1654L12.374 7.26536C12.5673 7.02536 12.6673 6.73203 12.6673 6.43203V4.66536ZM4.66732 11.332C4.30065 11.332 4.00065 11.032 4.00065 10.6654H5.33398C5.33398 11.032 5.03398 11.332 4.66732 11.332Z" fill="#253B4B"/>
<path d="M4.00065 4H6.00065C6.36732 4 6.66732 4.3 6.66732 4.66667C6.66732 5.03333 6.36732 5.33333 6.00065 5.33333H4.00065C3.63398 5.33333 3.33398 5.03333 3.33398 4.66667C3.33398 4.3 3.63398 4 4.00065 4ZM12.6673 8.66667C11.5607 8.66667 10.6673 9.56 10.6673 10.6667C10.6673 11.7733 11.5607 12.6667 12.6673 12.6667C13.774 12.6667 14.6673 11.7733 14.6673 10.6667C14.6673 9.56 13.774 8.66667 12.6673 8.66667ZM12.6673 11.3333C12.3007 11.3333 12.0007 11.0333 12.0007 10.6667C12.0007 10.3 12.3007 10 12.6673 10C13.034 10 13.334 10.3 13.334 10.6667C13.334 11.0333 13.034 11.3333 12.6673 11.3333Z" fill="#253B4B"/>
</svg>
