<svg width="20" height="20" viewBox="0 0 20 20" fill="none" xmlns="http://www.w3.org/2000/svg">
<mask id="path-1-inside-1_4582_39181" fill="white">
<path d="M18.125 8.125C18.2908 8.125 18.4497 8.05915 18.5669 7.94194C18.6842 7.82473 18.75 7.66576 18.75 7.5V5C18.75 4.66848 18.6183 4.35054 18.3839 4.11612C18.1495 3.8817 17.8315 3.75 17.5 3.75H2.5C2.16848 3.75 1.85054 3.8817 1.61612 4.11612C1.3817 4.35054 1.25 4.66848 1.25 5V7.5C1.25 7.66576 1.31585 7.82473 1.43306 7.94194C1.55027 8.05915 1.70924 8.125 1.875 8.125C2.37228 8.125 2.84919 8.32254 3.20083 8.67417C3.55246 9.02581 3.75 9.50272 3.75 10C3.75 10.4973 3.55246 10.9742 3.20083 11.3258C2.84919 11.6775 2.37228 11.875 1.875 11.875C1.70924 11.875 1.55027 11.9408 1.43306 12.0581C1.31585 12.1753 1.25 12.3342 1.25 12.5V15C1.25 15.3315 1.3817 15.6495 1.61612 15.8839C1.85054 16.1183 2.16848 16.25 2.5 16.25H17.5C17.8315 16.25 18.1495 16.1183 18.3839 15.8839C18.6183 15.6495 18.75 15.3315 18.75 15V12.5C18.75 12.3342 18.6842 12.1753 18.5669 12.0581C18.4497 11.9408 18.2908 11.875 18.125 11.875C17.6277 11.875 17.1508 11.6775 16.7992 11.3258C16.4475 10.9742 16.25 10.4973 16.25 10C16.25 9.50272 16.4475 9.02581 16.7992 8.67417C17.1508 8.32254 17.6277 8.125 18.125 8.125ZM2.5 13.0625C3.20643 12.9191 3.84155 12.5358 4.29774 11.9777C4.75393 11.4195 5.00313 10.7208 5.00313 10C5.00313 9.27915 4.75393 8.58047 4.29774 8.02234C3.84155 7.46421 3.20643 7.08095 2.5 6.9375V5H6.875V15H2.5V13.0625ZM17.5 13.0625V15H8.125V5H17.5V6.9375C16.7936 7.08095 16.1585 7.46421 15.7023 8.02234C15.2461 8.58047 14.9969 9.27915 14.9969 10C14.9969 10.7208 15.2461 11.4195 15.7023 11.9777C16.1585 12.5358 16.7936 12.9191 17.5 13.0625Z"/>
</mask>
<path d="M18.125 8.125C18.2908 8.125 18.4497 8.05915 18.5669 7.94194C18.6842 7.82473 18.75 7.66576 18.75 7.5V5C18.75 4.66848 18.6183 4.35054 18.3839 4.11612C18.1495 3.8817 17.8315 3.75 17.5 3.75H2.5C2.16848 3.75 1.85054 3.8817 1.61612 4.11612C1.3817 4.35054 1.25 4.66848 1.25 5V7.5C1.25 7.66576 1.31585 7.82473 1.43306 7.94194C1.55027 8.05915 1.70924 8.125 1.875 8.125C2.37228 8.125 2.84919 8.32254 3.20083 8.67417C3.55246 9.02581 3.75 9.50272 3.75 10C3.75 10.4973 3.55246 10.9742 3.20083 11.3258C2.84919 11.6775 2.37228 11.875 1.875 11.875C1.70924 11.875 1.55027 11.9408 1.43306 12.0581C1.31585 12.1753 1.25 12.3342 1.25 12.5V15C1.25 15.3315 1.3817 15.6495 1.61612 15.8839C1.85054 16.1183 2.16848 16.25 2.5 16.25H17.5C17.8315 16.25 18.1495 16.1183 18.3839 15.8839C18.6183 15.6495 18.75 15.3315 18.75 15V12.5C18.75 12.3342 18.6842 12.1753 18.5669 12.0581C18.4497 11.9408 18.2908 11.875 18.125 11.875C17.6277 11.875 17.1508 11.6775 16.7992 11.3258C16.4475 10.9742 16.25 10.4973 16.25 10C16.25 9.50272 16.4475 9.02581 16.7992 8.67417C17.1508 8.32254 17.6277 8.125 18.125 8.125ZM2.5 13.0625C3.20643 12.9191 3.84155 12.5358 4.29774 11.9777C4.75393 11.4195 5.00313 10.7208 5.00313 10C5.00313 9.27915 4.75393 8.58047 4.29774 8.02234C3.84155 7.46421 3.20643 7.08095 2.5 6.9375V5H6.875V15H2.5V13.0625ZM17.5 13.0625V15H8.125V5H17.5V6.9375C16.7936 7.08095 16.1585 7.46421 15.7023 8.02234C15.2461 8.58047 14.9969 9.27915 14.9969 10C14.9969 10.7208 15.2461 11.4195 15.7023 11.9777C16.1585 12.5358 16.7936 12.9191 17.5 13.0625Z" fill="#878787"/>
<path d="M18.125 8.125V6.625V8.125ZM17.5 3.75V2.25V3.75ZM2.5 3.75V2.25V3.75ZM1.25 5H-0.25H1.25ZM1.25 7.5H-0.25H1.25ZM1.875 11.875V13.375V11.875ZM1.25 12.5H-0.25H1.25ZM1.25 15H-0.25H1.25ZM18.125 11.875V13.375V11.875ZM16.25 10H14.75H16.25ZM2.5 13.0625L2.2015 11.5925L1 11.8365V13.0625H2.5ZM2.5 6.9375H1V8.16352L2.2015 8.4075L2.5 6.9375ZM2.5 5V3.5H1V5H2.5ZM6.875 5H8.375V3.5H6.875V5ZM6.875 15V16.5H8.375V15H6.875ZM2.5 15H1V16.5H2.5V15ZM17.5 13.0625H19V11.8365L17.7985 11.5925L17.5 13.0625ZM17.5 15V16.5H19V15H17.5ZM8.125 15H6.625V16.5H8.125V15ZM8.125 5V3.5H6.625V5H8.125ZM17.5 5H19V3.5H17.5V5ZM17.5 6.9375L17.7985 8.4075L19 8.16352V6.9375H17.5ZM14.9969 10H16.4969H14.9969ZM18.125 8.125V9.625C18.6886 9.625 19.2291 9.40112 19.6276 9.0026L18.5669 7.94194L17.5063 6.88128C17.6704 6.71719 17.8929 6.625 18.125 6.625V8.125ZM18.5669 7.94194L19.6276 9.0026C20.0261 8.60408 20.25 8.06358 20.25 7.5H18.75H17.25C17.25 7.26794 17.3422 7.04538 17.5063 6.88128L18.5669 7.94194ZM18.75 7.5H20.25V5H18.75H17.25V7.5H18.75ZM18.75 5H20.25C20.25 4.27065 19.9603 3.57118 19.4445 3.05546L18.3839 4.11612L17.3232 5.17678C17.2763 5.12989 17.25 5.0663 17.25 5H18.75ZM18.3839 4.11612L19.4445 3.05546C18.9288 2.53973 18.2293 2.25 17.5 2.25V3.75V5.25C17.4337 5.25 17.3701 5.22366 17.3232 5.17678L18.3839 4.11612ZM17.5 3.75V2.25H2.5V3.75V5.25H17.5V3.75ZM2.5 3.75V2.25C1.77065 2.25 1.07118 2.53973 0.555456 3.05546L1.61612 4.11612L2.67678 5.17678C2.62989 5.22366 2.5663 5.25 2.5 5.25V3.75ZM1.61612 4.11612L0.555456 3.05546C0.039731 3.57118 -0.25 4.27065 -0.25 5H1.25H2.75C2.75 5.0663 2.72366 5.12989 2.67678 5.17678L1.61612 4.11612ZM1.25 5H-0.25V7.5H1.25H2.75V5H1.25ZM1.25 7.5H-0.25C-0.25 8.06359 -0.0261166 8.60409 0.372398 9.0026L1.43306 7.94194L2.49372 6.88128C2.65781 7.04538 2.75 7.26794 2.75 7.5H1.25ZM1.43306 7.94194L0.372398 9.0026C0.770912 9.40112 1.31141 9.625 1.875 9.625V8.125V6.625C2.10707 6.625 2.32962 6.71719 2.49372 6.88128L1.43306 7.94194ZM1.875 8.125V9.625C1.97446 9.625 2.06984 9.66451 2.14016 9.73483L3.20083 8.67417L4.26149 7.61351C3.62855 6.98058 2.77011 6.625 1.875 6.625V8.125ZM3.20083 8.67417L2.14016 9.73483C2.21049 9.80516 2.25 9.90054 2.25 10H3.75H5.25C5.25 9.10489 4.89442 8.24645 4.26149 7.61351L3.20083 8.67417ZM3.75 10H2.25C2.25 10.0995 2.21049 10.1948 2.14016 10.2652L3.20083 11.3258L4.26149 12.3865C4.89442 11.7536 5.25 10.8951 5.25 10H3.75ZM3.20083 11.3258L2.14016 10.2652C2.06984 10.3355 1.97446 10.375 1.875 10.375V11.875V13.375C2.77011 13.375 3.62855 13.0194 4.26149 12.3865L3.20083 11.3258ZM1.875 11.875V10.375C1.31142 10.375 0.770915 10.5989 0.372398 10.9974L1.43306 12.0581L2.49372 13.1187C2.32962 13.2828 2.10706 13.375 1.875 13.375V11.875ZM1.43306 12.0581L0.372398 10.9974C-0.0261177 11.3959 -0.25 11.9364 -0.25 12.5H1.25H2.75C2.75 12.7321 2.65781 12.9546 2.49372 13.1187L1.43306 12.0581ZM1.25 12.5H-0.25V15H1.25H2.75V12.5H1.25ZM1.25 15H-0.25C-0.25 15.7293 0.0397314 16.4288 0.555456 16.9445L1.61612 15.8839L2.67678 14.8232C2.72366 14.8701 2.75 14.9337 2.75 15H1.25ZM1.61612 15.8839L0.555456 16.9445C1.07118 17.4603 1.77065 17.75 2.5 17.75V16.25V14.75C2.5663 14.75 2.62989 14.7763 2.67678 14.8232L1.61612 15.8839ZM2.5 16.25V17.75H17.5V16.25V14.75H2.5V16.25ZM17.5 16.25V17.75C18.2293 17.75 18.9288 17.4603 19.4445 16.9445L18.3839 15.8839L17.3232 14.8232C17.3701 14.7763 17.4337 14.75 17.5 14.75V16.25ZM18.3839 15.8839L19.4445 16.9445C19.9603 16.4288 20.25 15.7293 20.25 15H18.75H17.25C17.25 14.9337 17.2763 14.8701 17.3232 14.8232L18.3839 15.8839ZM18.75 15H20.25V12.5H18.75H17.25V15H18.75ZM18.75 12.5H20.25C20.25 11.9364 20.0261 11.3959 19.6276 10.9974L18.5669 12.0581L17.5063 13.1187C17.3422 12.9546 17.25 12.7321 17.25 12.5H18.75ZM18.5669 12.0581L19.6276 10.9974C19.2291 10.5989 18.6886 10.375 18.125 10.375V11.875V13.375C17.8929 13.375 17.6704 13.2828 17.5063 13.1187L18.5669 12.0581ZM18.125 11.875V10.375C18.0255 10.375 17.9302 10.3355 17.8598 10.2652L16.7992 11.3258L15.7385 12.3865C16.3715 13.0194 17.2299 13.375 18.125 13.375V11.875ZM16.7992 11.3258L17.8598 10.2652C17.7895 10.1948 17.75 10.0995 17.75 10H16.25H14.75C14.75 10.8951 15.1056 11.7535 15.7385 12.3865L16.7992 11.3258ZM16.25 10H17.75C17.75 9.90054 17.7895 9.80516 17.8598 9.73483L16.7992 8.67417L15.7385 7.61351C15.1056 8.24645 14.75 9.1049 14.75 10H16.25ZM16.7992 8.67417L17.8598 9.73483C17.9302 9.66451 18.0255 9.625 18.125 9.625V8.125V6.625C17.2299 6.625 16.3715 6.98058 15.7385 7.61351L16.7992 8.67417ZM2.5 13.0625L2.7985 14.5325C3.84401 14.3202 4.78398 13.753 5.45915 12.9269L4.29774 11.9777L3.13633 11.0284C2.89911 11.3186 2.56885 11.5179 2.2015 11.5925L2.5 13.0625ZM4.29774 11.9777L5.45915 12.9269C6.13431 12.1009 6.50313 11.0669 6.50313 10H5.00313H3.50313C3.50313 10.3748 3.37354 10.7382 3.13633 11.0284L4.29774 11.9777ZM5.00313 10H6.50313C6.50313 8.93315 6.13431 7.8991 5.45915 7.07306L4.29774 8.02234L3.13633 8.97162C3.37355 9.26185 3.50313 9.62516 3.50313 10H5.00313ZM4.29774 8.02234L5.45915 7.07306C4.78399 6.24703 3.84401 5.6798 2.7985 5.4675L2.5 6.9375L2.2015 8.4075C2.56885 8.48209 2.89911 8.68139 3.13633 8.97162L4.29774 8.02234ZM2.5 6.9375H4V5H2.5H1V6.9375H2.5ZM2.5 5V6.5H6.875V5V3.5H2.5V5ZM6.875 5H5.375V15H6.875H8.375V5H6.875ZM6.875 15V13.5H2.5V15V16.5H6.875V15ZM2.5 15H4V13.0625H2.5H1V15H2.5ZM17.5 13.0625H16V15H17.5H19V13.0625H17.5ZM17.5 15V13.5H8.125V15V16.5H17.5V15ZM8.125 15H9.625V5H8.125H6.625V15H8.125ZM8.125 5V6.5H17.5V5V3.5H8.125V5ZM17.5 5H16V6.9375H17.5H19V5H17.5ZM17.5 6.9375L17.2015 5.4675C16.156 5.6798 15.216 6.24703 14.5409 7.07306L15.7023 8.02234L16.8637 8.97162C17.1009 8.68139 17.4312 8.48209 17.7985 8.4075L17.5 6.9375ZM15.7023 8.02234L14.5409 7.07306C13.8657 7.8991 13.4969 8.93315 13.4969 10H14.9969H16.4969C16.4969 9.62516 16.6265 9.26185 16.8637 8.97162L15.7023 8.02234ZM14.9969 10H13.4969C13.4969 11.0669 13.8657 12.1009 14.5409 12.9269L15.7023 11.9777L16.8637 11.0284C16.6265 10.7382 16.4969 10.3748 16.4969 10H14.9969ZM15.7023 11.9777L14.5409 12.9269C15.216 13.753 16.156 14.3202 17.2015 14.5325L17.5 13.0625L17.7985 11.5925C17.4312 11.5179 17.1009 11.3186 16.8637 11.0284L15.7023 11.9777Z" fill="#878787" mask="url(#path-1-inside-1_4582_39181)"/>
</svg>
