<svg width="20" height="20" viewBox="0 0 20 20" fill="none" xmlns="http://www.w3.org/2000/svg">
<mask id="path-1-inside-1_4905_35616" fill="white">
<path d="M10 1.875C5.79453 1.875 2.5 3.79688 2.5 6.25V13.75C2.5 16.2031 5.79453 18.125 10 18.125C14.2055 18.125 17.5 16.2031 17.5 13.75V6.25C17.5 3.79688 14.2055 1.875 10 1.875ZM16.25 10C16.25 10.7516 15.6344 11.518 14.5617 12.1031C13.3539 12.7617 11.7336 13.125 10 13.125C8.26641 13.125 6.64609 12.7617 5.43828 12.1031C4.36563 11.518 3.75 10.7516 3.75 10V8.7C5.08281 9.87187 7.36172 10.625 10 10.625C12.6383 10.625 14.9172 9.86875 16.25 8.7V10ZM5.43828 4.14688C6.64609 3.48828 8.26641 3.125 10 3.125C11.7336 3.125 13.3539 3.48828 14.5617 4.14688C15.6344 4.73203 16.25 5.49844 16.25 6.25C16.25 7.00156 15.6344 7.76797 14.5617 8.35312C13.3539 9.01172 11.7336 9.375 10 9.375C8.26641 9.375 6.64609 9.01172 5.43828 8.35312C4.36563 7.76797 3.75 7.00156 3.75 6.25C3.75 5.49844 4.36563 4.73203 5.43828 4.14688ZM14.5617 15.8531C13.3539 16.5117 11.7336 16.875 10 16.875C8.26641 16.875 6.64609 16.5117 5.43828 15.8531C4.36563 15.268 3.75 14.5016 3.75 13.75V12.45C5.08281 13.6219 7.36172 14.375 10 14.375C12.6383 14.375 14.9172 13.6187 16.25 12.45V13.75C16.25 14.5016 15.6344 15.268 14.5617 15.8531Z"/>
</mask>
<path d="M10 1.875C5.79453 1.875 2.5 3.79688 2.5 6.25V13.75C2.5 16.2031 5.79453 18.125 10 18.125C14.2055 18.125 17.5 16.2031 17.5 13.75V6.25C17.5 3.79688 14.2055 1.875 10 1.875ZM16.25 10C16.25 10.7516 15.6344 11.518 14.5617 12.1031C13.3539 12.7617 11.7336 13.125 10 13.125C8.26641 13.125 6.64609 12.7617 5.43828 12.1031C4.36563 11.518 3.75 10.7516 3.75 10V8.7C5.08281 9.87187 7.36172 10.625 10 10.625C12.6383 10.625 14.9172 9.86875 16.25 8.7V10ZM5.43828 4.14688C6.64609 3.48828 8.26641 3.125 10 3.125C11.7336 3.125 13.3539 3.48828 14.5617 4.14688C15.6344 4.73203 16.25 5.49844 16.25 6.25C16.25 7.00156 15.6344 7.76797 14.5617 8.35312C13.3539 9.01172 11.7336 9.375 10 9.375C8.26641 9.375 6.64609 9.01172 5.43828 8.35312C4.36563 7.76797 3.75 7.00156 3.75 6.25C3.75 5.49844 4.36563 4.73203 5.43828 4.14688ZM14.5617 15.8531C13.3539 16.5117 11.7336 16.875 10 16.875C8.26641 16.875 6.64609 16.5117 5.43828 15.8531C4.36563 15.268 3.75 14.5016 3.75 13.75V12.45C5.08281 13.6219 7.36172 14.375 10 14.375C12.6383 14.375 14.9172 13.6187 16.25 12.45V13.75C16.25 14.5016 15.6344 15.268 14.5617 15.8531Z" fill="black"/>
<path d="M14.5617 12.1031L15.2798 13.4201L15.2801 13.4199L14.5617 12.1031ZM5.43828 12.1031L4.71994 13.4199L4.72018 13.4201L5.43828 12.1031ZM3.75 8.7L4.74047 7.57351L2.25 5.38377V8.7H3.75ZM16.25 8.7H17.75V5.38961L15.261 7.5722L16.25 8.7ZM5.43828 4.14688L4.72018 2.82993L4.71994 2.83007L5.43828 4.14688ZM14.5617 4.14688L15.2801 2.83007L15.2798 2.82993L14.5617 4.14688ZM14.5617 8.35312L15.2798 9.67007L15.2801 9.66993L14.5617 8.35312ZM5.43828 8.35312L4.71994 9.66993L4.72018 9.67007L5.43828 8.35312ZM14.5617 15.8531L15.2798 17.1701L15.2801 17.1699L14.5617 15.8531ZM5.43828 15.8531L4.71994 17.1699L4.72018 17.1701L5.43828 15.8531ZM3.75 12.45L4.74047 11.3235L2.25 9.13377V12.45H3.75ZM16.25 12.45H17.75V9.13961L15.261 11.3222L16.25 12.45ZM10 1.875V0.375C7.68797 0.375 5.54003 0.900216 3.91714 1.84691C2.31908 2.77912 1 4.28312 1 6.25H2.5H4C4 5.76375 4.32819 5.08025 5.42876 4.43824C6.5045 3.81072 8.10656 3.375 10 3.375V1.875ZM2.5 6.25H1V13.75H2.5H4V6.25H2.5ZM2.5 13.75H1C1 15.7169 2.31908 17.2209 3.91714 18.1531C5.54003 19.0998 7.68797 19.625 10 19.625V18.125V16.625C8.10656 16.625 6.5045 16.1893 5.42876 15.5618C4.32819 14.9197 4 14.2362 4 13.75H2.5ZM10 18.125V19.625C12.312 19.625 14.46 19.0998 16.0829 18.1531C17.6809 17.2209 19 15.7169 19 13.75H17.5H16C16 14.2362 15.6718 14.9197 14.5712 15.5618C13.4955 16.1893 11.8934 16.625 10 16.625V18.125ZM17.5 13.75H19V6.25H17.5H16V13.75H17.5ZM17.5 6.25H19C19 4.28312 17.6809 2.77912 16.0829 1.84691C14.46 0.900216 12.312 0.375 10 0.375V1.875V3.375C11.8934 3.375 13.4955 3.81072 14.5712 4.43824C15.6718 5.08025 16 5.76375 16 6.25H17.5ZM16.25 10H14.75C14.75 9.95179 14.7707 10.0101 14.6385 10.1749C14.5043 10.3419 14.2532 10.5627 13.8434 10.7863L14.5617 12.1031L15.2801 13.4199C16.514 12.7468 17.75 11.5881 17.75 10H16.25ZM14.5617 12.1031L13.8436 10.7862C12.9059 11.2975 11.5464 11.625 10 11.625V13.125V14.625C11.9208 14.625 13.8019 14.226 15.2798 13.4201L14.5617 12.1031ZM10 13.125V11.625C8.45364 11.625 7.09405 11.2975 6.15638 10.7862L5.43828 12.1031L4.72018 13.4201C6.19813 14.226 8.07917 14.625 10 14.625V13.125ZM5.43828 12.1031L6.15663 10.7863C5.74678 10.5627 5.49567 10.3419 5.36155 10.1749C5.22928 10.0101 5.25 9.95179 5.25 10H3.75H2.25C2.25 11.5881 3.48599 12.7468 4.71994 13.4199L5.43828 12.1031ZM3.75 10H5.25V8.7H3.75H2.25V10H3.75ZM3.75 8.7L2.75953 9.82649C4.4498 11.3127 7.12655 12.125 10 12.125V10.625V9.125C7.59689 9.125 5.71582 8.43109 4.74047 7.57351L3.75 8.7ZM10 10.625V12.125C12.8752 12.125 15.5502 11.3087 17.239 9.8278L16.25 8.7L15.261 7.5722C14.2842 8.4288 12.4013 9.125 10 9.125V10.625ZM16.25 8.7H14.75V10H16.25H17.75V8.7H16.25ZM5.43828 4.14688L6.15638 5.46382C7.09405 4.95252 8.45364 4.625 10 4.625V3.125V1.625C8.07917 1.625 6.19813 2.02404 4.72018 2.82993L5.43828 4.14688ZM10 3.125V4.625C11.5464 4.625 12.9059 4.95252 13.8436 5.46382L14.5617 4.14688L15.2798 2.82993C13.8019 2.02404 11.9208 1.625 10 1.625V3.125ZM14.5617 4.14688L13.8434 5.46368C14.2532 5.68726 14.5043 5.90809 14.6385 6.07513C14.7707 6.23987 14.75 6.29821 14.75 6.25H16.25H17.75C17.75 4.66193 16.514 3.50321 15.2801 2.83007L14.5617 4.14688ZM16.25 6.25H14.75C14.75 6.20179 14.7707 6.26013 14.6385 6.42487C14.5043 6.59191 14.2532 6.81274 13.8434 7.03632L14.5617 8.35312L15.2801 9.66993C16.514 8.99679 17.75 7.83807 17.75 6.25H16.25ZM14.5617 8.35312L13.8436 7.03618C12.9059 7.54748 11.5464 7.875 10 7.875V9.375V10.875C11.9208 10.875 13.8019 10.476 15.2798 9.67007L14.5617 8.35312ZM10 9.375V7.875C8.45364 7.875 7.09405 7.54748 6.15638 7.03618L5.43828 8.35312L4.72018 9.67007C6.19813 10.476 8.07917 10.875 10 10.875V9.375ZM5.43828 8.35312L6.15663 7.03632C5.74678 6.81274 5.49567 6.59191 5.36155 6.42487C5.22928 6.26013 5.25 6.20179 5.25 6.25H3.75H2.25C2.25 7.83807 3.48599 8.99679 4.71994 9.66993L5.43828 8.35312ZM3.75 6.25H5.25C5.25 6.29821 5.22928 6.23987 5.36155 6.07513C5.49567 5.90809 5.74678 5.68726 6.15663 5.46368L5.43828 4.14688L4.71994 2.83007C3.48599 3.50321 2.25 4.66193 2.25 6.25H3.75ZM14.5617 15.8531L13.8436 14.5362C12.9059 15.0475 11.5464 15.375 10 15.375V16.875V18.375C11.9208 18.375 13.8019 17.976 15.2798 17.1701L14.5617 15.8531ZM10 16.875V15.375C8.45364 15.375 7.09405 15.0475 6.15638 14.5362L5.43828 15.8531L4.72018 17.1701C6.19813 17.976 8.07917 18.375 10 18.375V16.875ZM5.43828 15.8531L6.15663 14.5363C5.74678 14.3127 5.49567 14.0919 5.36155 13.9249C5.22928 13.7601 5.25 13.7018 5.25 13.75H3.75H2.25C2.25 15.3381 3.48599 16.4968 4.71994 17.1699L5.43828 15.8531ZM3.75 13.75H5.25V12.45H3.75H2.25V13.75H3.75ZM3.75 12.45L2.75953 13.5765C4.4498 15.0627 7.12655 15.875 10 15.875V14.375V12.875C7.59689 12.875 5.71582 12.1811 4.74047 11.3235L3.75 12.45ZM10 14.375V15.875C12.8752 15.875 15.5502 15.0587 17.239 13.5778L16.25 12.45L15.261 11.3222C14.2842 12.1788 12.4013 12.875 10 12.875V14.375ZM16.25 12.45H14.75V13.75H16.25H17.75V12.45H16.25ZM16.25 13.75H14.75C14.75 13.7018 14.7707 13.7601 14.6385 13.9249C14.5043 14.0919 14.2532 14.3127 13.8434 14.5363L14.5617 15.8531L15.2801 17.1699C16.514 16.4968 17.75 15.3381 17.75 13.75H16.25Z" fill="#878787" mask="url(#path-1-inside-1_4905_35616)"/>
</svg>
