<svg width="20" height="20" viewBox="0 0 20 20" fill="none" xmlns="http://www.w3.org/2000/svg">
    <path d="M19.297 12.7383L17.9932 8.5161C17.9807 8.47551 17.9601 8.43785 17.9327 8.40538C17.9053 8.37291 17.8716 8.34629 17.8337 8.3271C17.7958 8.30791 17.7544 8.29655 17.712 8.2937C17.6696 8.29084 17.6271 8.29655 17.587 8.31048L15.1807 9.14142C15.1732 9.14423 15.1666 9.14923 15.1591 9.15235L15.1279 9.1636C15.1279 9.1636 15.1279 9.1636 15.1226 9.1636H15.1201H15.116L15.0782 9.17954C13.6095 9.88673 10.0395 9.17454 9.99914 9.16673C9.8067 9.13023 9.60814 9.14341 9.42222 9.20504C9.2363 9.26667 9.06917 9.3747 8.93664 9.51892L8.31164 10.197L7.91258 10.0205C7.33782 9.76111 6.68826 9.72001 6.08539 9.90485L5.52508 10.0749L5.52101 10.0717L3.12508 8.88735C3.08791 8.86888 3.04746 8.85792 3.00604 8.8551C2.96463 8.85228 2.92307 8.85766 2.88373 8.87092C2.8444 8.88419 2.80807 8.90508 2.77682 8.93241C2.74558 8.95973 2.72003 8.99295 2.70164 9.03017L0.691952 13.0795C0.673382 13.1167 0.662337 13.1571 0.659453 13.1985C0.656568 13.24 0.661901 13.2815 0.675144 13.3209C0.688387 13.3602 0.70928 13.3966 0.73662 13.4278C0.76396 13.4591 0.797208 13.4846 0.834452 13.503L3.18008 14.668C3.18354 14.6735 3.1873 14.6788 3.19133 14.6839L4.28508 15.8327C4.20482 15.9798 4.16422 16.1452 4.16727 16.3128C4.17032 16.4803 4.21692 16.6442 4.30248 16.7882C4.38805 16.9323 4.50963 17.0516 4.65528 17.1345C4.80093 17.2173 4.96563 17.2609 5.1332 17.2608C5.20478 17.2607 5.27614 17.2529 5.34601 17.2374H5.34883C5.40839 17.4793 5.55865 17.689 5.76851 17.8233C5.87481 17.8918 5.99366 17.9386 6.11816 17.9609C6.24267 17.9831 6.37036 17.9805 6.49383 17.953C6.5303 17.9435 6.56619 17.9319 6.60133 17.9183C6.60445 17.9383 6.60414 17.958 6.60851 17.9777C6.63585 18.1029 6.68787 18.2213 6.76154 18.3262C6.83521 18.431 6.92906 18.5201 7.03758 18.5883C7.14979 18.6581 7.27502 18.7044 7.40567 18.7243C7.53632 18.7443 7.66965 18.7374 7.79758 18.7042C7.85445 18.8782 7.95954 19.0324 8.10061 19.149C8.24168 19.2656 8.41295 19.3398 8.5945 19.3629C8.77606 19.386 8.96044 19.3571 9.12623 19.2796C9.29201 19.202 9.43238 19.079 9.53101 18.9249L9.70351 18.6539L10.8566 19.2095C11.0081 19.2846 11.1748 19.3237 11.3438 19.3239C11.4678 19.324 11.5908 19.3029 11.7076 19.2614C11.9432 19.1811 12.1454 19.0246 12.2822 18.8167C12.4191 18.6087 12.4829 18.3612 12.4635 18.113C12.6129 18.1239 12.763 18.1036 12.9041 18.0533C13.1517 17.9689 13.362 17.8006 13.4985 17.5775C13.635 17.3544 13.6892 17.0906 13.6516 16.8317C13.8532 16.82 14.0479 16.7546 14.2157 16.6423C14.3834 16.53 14.5181 16.3749 14.6057 16.193C14.6277 16.146 14.6459 16.0973 14.6601 16.0474C14.7347 15.8128 14.7297 15.56 14.6457 15.3286L14.6629 15.323C14.7983 15.2747 14.9238 15.2022 15.0332 15.1089C15.1494 15.0089 15.2434 14.8858 15.3091 14.7474C15.3351 14.6908 15.3566 14.6323 15.3735 14.5724L16.7904 13.9833H16.7923L19.1048 13.1289C19.1808 13.1009 19.2432 13.0448 19.279 12.972C19.3148 12.8993 19.3212 12.8156 19.297 12.7383ZM1.39851 13.0774L3.12851 9.5936L4.95633 10.4999L3.22633 13.9852L1.39851 13.0774ZM5.72976 15.9949L5.56226 16.2474C5.56008 16.2508 5.56008 16.2549 5.55789 16.2583L5.41851 16.472C5.39512 16.5095 5.36449 16.5418 5.32843 16.5673C5.29238 16.5927 5.25161 16.6107 5.20851 16.6202C5.14306 16.6351 5.07463 16.6302 5.01199 16.606C4.94936 16.5819 4.89536 16.5395 4.85693 16.4845C4.81849 16.4294 4.79737 16.3642 4.79626 16.297C4.79515 16.2299 4.81411 16.164 4.8507 16.1077L5.1532 15.6317C5.17699 15.5938 5.20813 15.5611 5.24479 15.5354C5.28145 15.5098 5.32288 15.4917 5.36664 15.4824C5.4028 15.4758 5.43985 15.4758 5.47601 15.4824C5.48756 15.4834 5.49903 15.4851 5.51039 15.4874C5.55102 15.4963 5.58981 15.5122 5.62508 15.5342C5.67794 15.5671 5.72031 15.6144 5.74722 15.6705C5.77412 15.7267 5.78444 15.7893 5.77695 15.8511C5.77165 15.9018 5.75556 15.9508 5.72976 15.9949ZM6.87508 16.7127L6.57289 17.1842C6.54884 17.2223 6.51744 17.2553 6.48053 17.2811C6.44362 17.307 6.40193 17.3253 6.35789 17.3349C6.31536 17.3444 6.27135 17.3454 6.22844 17.3378C6.18552 17.3301 6.14454 17.3141 6.10789 17.2905C6.03162 17.243 5.97726 17.1672 5.95671 17.0797C5.93615 16.9922 5.95107 16.9001 5.9982 16.8236L6.13101 16.6149C6.13101 16.6149 6.13414 16.612 6.13539 16.6102L6.30101 16.347C6.32399 16.3132 6.35277 16.2837 6.38601 16.2599C6.39289 16.2549 6.39976 16.2499 6.40695 16.2452C6.4398 16.2239 6.47605 16.2083 6.51414 16.1992H6.5232C6.55837 16.1928 6.59433 16.1919 6.62976 16.1967C6.63976 16.1967 6.64945 16.1989 6.65914 16.2008C6.74237 16.2159 6.81653 16.2626 6.86606 16.3312C6.91558 16.3998 6.93662 16.4848 6.92476 16.5686C6.92059 16.62 6.9035 16.6696 6.87508 16.7127ZM8.12508 17.4999L7.8382 17.947C7.78946 18.0219 7.71329 18.0747 7.62605 18.0941C7.53881 18.1134 7.44747 18.0978 7.37164 18.0505C7.33425 18.0268 7.30195 17.9958 7.27663 17.9595C7.2513 17.9232 7.23346 17.8822 7.22414 17.8389C7.21413 17.795 7.21296 17.7495 7.22069 17.7052C7.22841 17.6608 7.24488 17.6184 7.26914 17.5805L7.47414 17.2586L7.52226 17.1874L7.55539 17.1358C7.59068 17.0789 7.64041 17.0323 7.69952 17.0008C7.75863 16.9693 7.82502 16.954 7.89195 16.9564L7.90258 16.958C7.93665 16.9617 7.96978 16.9716 8.00039 16.987C8.00981 16.9906 8.01899 16.9948 8.02789 16.9995C8.04491 17.0104 8.061 17.0226 8.07601 17.0361C8.08608 17.0436 8.09568 17.0518 8.10476 17.0605C8.12001 17.0774 8.13361 17.0957 8.14539 17.1152C8.15008 17.1227 8.15633 17.1295 8.1607 17.1377C8.17403 17.1633 8.18391 17.1907 8.19008 17.2189C8.19008 17.2217 8.19226 17.2239 8.19289 17.2267C8.19937 17.2591 8.20084 17.2923 8.19726 17.3252C8.18727 17.3883 8.16254 17.4481 8.12508 17.4999ZM9.30695 18.0936L9.30476 18.0977C9.30281 18.1003 9.30104 18.103 9.29945 18.1058L8.99664 18.5817C8.947 18.6549 8.87076 18.7058 8.78415 18.7236C8.69754 18.7414 8.6074 18.7247 8.53292 18.6771C8.45844 18.6294 8.40549 18.5546 8.38535 18.4685C8.3652 18.3824 8.37946 18.2918 8.42508 18.2161L8.66508 17.8411C8.66508 17.8386 8.66945 17.837 8.67101 17.8345L8.73351 17.733C8.75634 17.6969 8.7861 17.6657 8.82108 17.6412C8.85605 17.6166 8.89554 17.5993 8.93726 17.5902C8.97598 17.5825 9.01573 17.5816 9.05476 17.5874C9.06508 17.5874 9.07539 17.5895 9.08601 17.5917C9.12696 17.6 9.16611 17.6154 9.20164 17.6374C9.24423 17.6655 9.27962 17.7032 9.30497 17.7475C9.33032 17.7918 9.34491 17.8414 9.34758 17.8924C9.35002 17.9121 9.35075 17.9321 9.34976 17.952C9.3455 18.0022 9.33138 18.0511 9.3082 18.0958L9.30695 18.0936ZM14.7813 14.3236C14.7768 14.3756 14.7631 14.4264 14.7407 14.4736C14.714 14.5316 14.6755 14.5833 14.6276 14.6255C14.578 14.6686 14.521 14.7023 14.4595 14.7252C14.3434 14.7367 14.2263 14.7281 14.1132 14.6999C14.082 14.6955 14.0579 14.6908 14.0385 14.6867C14.0297 14.6863 14.0208 14.6863 14.012 14.6867L10.517 12.9899C10.4796 12.9716 10.439 12.9609 10.3975 12.9583C10.3561 12.9558 10.3145 12.9614 10.2752 12.975C10.2359 12.9885 10.1996 13.0097 10.1685 13.0373C10.1374 13.0649 10.1121 13.0983 10.0939 13.1357C10.0758 13.1731 10.0652 13.2137 10.0628 13.2552C10.0603 13.2967 10.0661 13.3383 10.0798 13.3775C10.0934 13.4168 10.1147 13.453 10.1424 13.484C10.1701 13.515 10.2036 13.5402 10.241 13.5583L13.7757 15.2742C13.796 15.2813 13.8169 15.2861 13.8382 15.2886C13.9361 15.345 14.0113 15.4335 14.0512 15.5392C14.0911 15.6448 14.0931 15.761 14.057 15.868C14.0517 15.8865 14.0452 15.9047 14.0376 15.9224C13.9806 16.0395 13.8796 16.1292 13.7566 16.172C13.6336 16.2148 13.4987 16.2072 13.3813 16.1508L13.3776 16.1583C13.3678 16.1493 13.3573 16.1411 13.3463 16.1336L13.0398 15.9817C13.0338 15.9789 13.0273 15.9789 13.0213 15.9764L9.81914 14.4249C9.78179 14.4067 9.74125 14.3961 9.69981 14.3937C9.65838 14.3913 9.61686 14.397 9.57765 14.4106C9.53843 14.4242 9.50227 14.4454 9.47124 14.4729C9.44021 14.5005 9.41491 14.5339 9.3968 14.5713C9.37868 14.6086 9.36809 14.6492 9.36564 14.6906C9.3632 14.732 9.36893 14.7735 9.38253 14.8128C9.39612 14.852 9.41731 14.8881 9.44488 14.9192C9.47245 14.9502 9.50586 14.9755 9.5432 14.9936L12.752 16.5492C12.7601 16.5545 12.7685 16.5599 12.7763 16.5642C12.8856 16.6249 12.9677 16.725 13.0059 16.8441C13.044 16.9631 13.0353 17.0923 12.9816 17.2052C12.9249 17.3211 12.8249 17.4102 12.7031 17.4531C12.5814 17.4961 12.4477 17.4895 12.3307 17.4349L12.2245 17.3824C12.2045 17.3619 12.1816 17.3446 12.1566 17.3308L9.08289 15.838C9.04555 15.8197 9.00497 15.809 8.96348 15.8065C8.922 15.8039 8.88041 15.8096 8.84112 15.8231C8.80182 15.8367 8.76558 15.8578 8.73448 15.8854C8.70338 15.913 8.67803 15.9464 8.65988 15.9838C8.64173 16.0212 8.63113 16.0618 8.6287 16.1033C8.62627 16.1448 8.63206 16.1864 8.64572 16.2256C8.65938 16.2649 8.68065 16.3011 8.70832 16.3321C8.73599 16.3631 8.76951 16.3884 8.80695 16.4064L11.5029 17.7158C11.5194 17.7318 11.5376 17.746 11.5573 17.758H11.5595C11.6757 17.8149 11.7647 17.9155 11.8071 18.0378C11.8495 18.1601 11.8418 18.2941 11.7857 18.4108C11.758 18.4692 11.7188 18.5214 11.6705 18.5644C11.6222 18.6073 11.5657 18.6401 11.5045 18.6608C11.4445 18.6824 11.3807 18.6917 11.3171 18.688C11.2534 18.6842 11.1912 18.6677 11.1341 18.6392L9.97195 18.0808C9.97476 18.0627 9.97726 18.0445 9.97914 18.0258V18.0236C9.99519 17.8703 9.97445 17.7155 9.91864 17.5718C9.86283 17.4282 9.77355 17.2999 9.65823 17.1977C9.5429 17.0955 9.40485 17.0223 9.25555 16.9841C9.10625 16.9459 8.94999 16.9439 8.79976 16.9783L8.7807 16.983C8.7807 16.9799 8.77789 16.9774 8.77664 16.9742C8.75943 16.9269 8.73854 16.8811 8.71414 16.837C8.70758 16.8249 8.7007 16.8133 8.69383 16.8014C8.67128 16.7635 8.64622 16.7272 8.61883 16.6927C8.61164 16.6836 8.60539 16.6742 8.59789 16.6655C8.56259 16.6237 8.5238 16.585 8.48195 16.5499C8.47351 16.5427 8.46414 16.5367 8.4557 16.5299C8.43133 16.5108 8.40726 16.4911 8.38101 16.4739C8.37164 16.468 8.36101 16.4645 8.35164 16.4589C8.34226 16.4533 8.33351 16.4452 8.3232 16.4395C8.30758 16.4308 8.29195 16.4267 8.27476 16.4192C8.23883 16.4013 8.20178 16.3858 8.16383 16.3727C8.14164 16.3652 8.11945 16.3589 8.09664 16.3533C8.05157 16.3417 8.00572 16.3333 7.95945 16.3283C7.9457 16.3283 7.93195 16.3258 7.9182 16.3252C7.85962 16.3215 7.80083 16.3233 7.74258 16.3305H7.73789C7.70851 16.3342 7.67914 16.3345 7.64976 16.3411C7.61459 16.3503 7.57995 16.3615 7.54601 16.3745V16.3705C7.53581 16.3111 7.52012 16.2529 7.49914 16.1964C7.49445 16.1833 7.48914 16.1711 7.48383 16.1583C7.46299 16.1064 7.43757 16.0566 7.40789 16.0092C7.40508 16.0045 7.40289 15.9999 7.40008 15.9952C7.367 15.9455 7.32933 15.899 7.28758 15.8564C7.27726 15.8458 7.26695 15.8355 7.25633 15.8252C7.21255 15.7826 7.16472 15.7444 7.11351 15.7111C7.05846 15.6758 6.99992 15.6463 6.93883 15.623C6.76139 15.5553 6.56801 15.5411 6.38258 15.582C6.3807 15.5742 6.37664 15.567 6.37445 15.5592C6.36273 15.5157 6.34801 15.473 6.33039 15.4314C6.32601 15.4217 6.32289 15.4114 6.31851 15.402C6.29542 15.3532 6.26824 15.3063 6.23726 15.262C6.22976 15.2514 6.22101 15.2414 6.21289 15.2308C6.18708 15.197 6.15899 15.1651 6.12883 15.1352C6.11758 15.1242 6.10695 15.1133 6.09508 15.1039C6.05451 15.0655 6.0107 15.0307 5.96414 14.9999C5.85779 14.9297 5.7385 14.8814 5.61325 14.8579C5.48801 14.8344 5.35933 14.8361 5.23476 14.863C5.17228 14.8763 5.11125 14.8958 5.05258 14.9211C5.03539 14.9286 5.02133 14.9399 5.0032 14.9483C4.96346 14.9664 4.92503 14.9873 4.8882 15.0108C4.86789 15.0249 4.85039 15.042 4.83133 15.0586C4.80092 15.0813 4.77201 15.1059 4.74476 15.1324C4.72508 15.1527 4.70914 15.1767 4.69101 15.1986C4.67289 15.2205 4.64758 15.2474 4.62851 15.2752L3.80008 14.4061L5.5882 10.7202L6.26851 10.5136C6.72559 10.3734 7.21811 10.4046 7.65383 10.6014L7.8907 10.7064L7.25195 11.528C7.18073 11.6197 7.13207 11.7269 7.10987 11.8409C7.08767 11.955 7.09257 12.0726 7.12416 12.1844C7.15575 12.2961 7.21316 12.3989 7.29175 12.4844C7.37034 12.57 7.46793 12.6358 7.57664 12.6767C8.01096 12.8757 8.50004 12.921 8.96351 12.8052C9.03617 12.7816 9.10682 12.7522 9.17476 12.7174C9.30853 12.6487 9.43429 12.5655 9.54976 12.4692C9.60851 12.418 9.65976 12.3664 9.70601 12.318C9.75684 12.2667 9.80316 12.2112 9.84445 12.152L10.0082 11.962C10.0826 11.8935 10.1528 11.8204 10.2182 11.7433L10.8279 12.0174L14.496 13.8124C14.5082 13.8216 14.521 13.8298 14.5345 13.837C14.6176 13.8834 14.6852 13.9533 14.7288 14.0379C14.7724 14.1225 14.7902 14.218 14.7798 14.3127L14.7813 14.3236ZM15.3551 13.8961C15.335 13.8388 15.3103 13.7833 15.281 13.7302C15.2723 13.7142 15.2623 13.6989 15.2529 13.6842C15.2309 13.6473 15.2067 13.6117 15.1804 13.5777C15.1679 13.5614 15.1548 13.5464 15.141 13.5302C15.1125 13.4973 15.0819 13.4663 15.0495 13.4374C15.0354 13.4249 15.0223 13.4117 15.0076 13.3995C14.96 13.3598 14.9091 13.3242 14.8554 13.2933C14.8328 13.2781 14.8093 13.2642 14.7851 13.2517L11.0976 11.4461L10.2476 11.0636C10.215 11.0491 10.1801 11.0403 10.1445 11.0377C10.1359 11.0372 10.1274 11.0372 10.1188 11.0377C10.0928 11.037 10.0668 11.0395 10.0413 11.0452C10.0094 11.0574 9.97808 11.0712 9.94758 11.0867C9.9366 11.0949 9.92616 11.1038 9.91633 11.1133C9.90335 11.1228 9.89113 11.1332 9.87976 11.1445L9.5557 11.5217C9.54935 11.5276 9.5433 11.5337 9.53758 11.5402L9.35008 11.7627C9.32204 11.8033 9.29069 11.8416 9.25633 11.877C9.21883 11.917 9.18227 11.9542 9.14476 11.987C9.06509 12.0525 8.97854 12.1091 8.88664 12.1558C8.84854 12.1751 8.80893 12.1913 8.7682 12.2042C8.44235 12.2672 8.10493 12.2251 7.80445 12.0842C7.78811 12.0783 7.77343 12.0685 7.76164 12.0557C7.74984 12.043 7.74127 12.0276 7.73664 12.0108C7.73196 11.9945 7.73122 11.9772 7.73448 11.9606C7.73774 11.9439 7.7449 11.9282 7.75539 11.9149L8.63414 10.7845L9.4057 9.95079C9.46487 9.8858 9.5396 9.83693 9.62286 9.80878C9.70612 9.78062 9.79517 9.77411 9.88164 9.78985C10.0288 9.81954 13.331 10.4774 15.0945 9.86048C15.3757 10.7042 16.0413 12.7624 16.282 13.5099L15.3551 13.8961ZM16.8682 13.2811C16.6138 12.4942 15.9576 10.4658 15.6807 9.63829L17.4851 9.01548L18.6038 12.6405L16.8682 13.2811ZM8.88601 4.9311C9.00324 4.925 9.11813 4.96543 9.2057 5.0436C9.26014 5.09213 9.30175 5.15335 9.32684 5.22183C9.35192 5.2903 9.35971 5.36391 9.3495 5.43612C9.3393 5.50833 9.31141 5.5769 9.26833 5.63574C9.22525 5.69458 9.1683 5.74187 9.10255 5.77341C9.0368 5.80495 8.96427 5.81976 8.89142 5.81653C8.81856 5.8133 8.74763 5.79212 8.68493 5.75488C8.62223 5.71764 8.56969 5.66549 8.53199 5.60307C8.4943 5.54064 8.4726 5.46987 8.46883 5.39704C8.467 5.35549 8.4569 5.31472 8.43911 5.27712C8.42133 5.23952 8.39621 5.20585 8.36524 5.17809C8.33428 5.15032 8.29808 5.12901 8.25877 5.11542C8.21946 5.10182 8.17783 5.09621 8.13633 5.09892C8.09488 5.10115 8.05429 5.11154 8.01687 5.12948C7.97945 5.14743 7.94593 5.17258 7.91824 5.20349C7.89055 5.2344 7.86922 5.27047 7.85549 5.30964C7.84176 5.3488 7.83588 5.39029 7.8382 5.43173C7.85043 5.66684 7.93995 5.89134 8.09286 6.07036C8.24577 6.24938 8.45351 6.37289 8.68383 6.42173L8.69664 6.65923C8.70103 6.73996 8.73614 6.81595 8.79477 6.87161C8.8534 6.92728 8.9311 6.9584 9.01195 6.9586C9.01778 6.95892 9.02362 6.95892 9.02945 6.9586C9.11314 6.95408 9.19162 6.91652 9.24764 6.85418C9.30365 6.79183 9.33263 6.7098 9.3282 6.6261L9.31414 6.36485C9.48318 6.2971 9.63213 6.18733 9.74689 6.04592C9.86165 5.90452 9.93843 5.73616 9.96994 5.5568C10.0014 5.37743 9.98666 5.19299 9.92696 5.02094C9.86727 4.84888 9.76466 4.69491 9.62883 4.5736C9.52433 4.47852 9.40181 4.40538 9.26852 4.35852C9.13524 4.31166 8.9939 4.29203 8.85289 4.30079C8.73599 4.30586 8.62176 4.26498 8.53462 4.1869C8.44748 4.10882 8.39437 3.99973 8.38664 3.88298C8.38033 3.76564 8.42086 3.65059 8.49932 3.56311C8.57777 3.47563 8.68775 3.42287 8.80508 3.41642C8.92211 3.41139 9.03655 3.45181 9.12445 3.52923C9.16785 3.56797 9.20314 3.61493 9.2283 3.66738C9.25345 3.71984 9.26797 3.77676 9.27101 3.83485C9.27254 3.87653 9.28245 3.91748 9.30016 3.95524C9.31787 3.993 9.34301 4.02681 9.37407 4.05464C9.40514 4.08247 9.44149 4.10375 9.48097 4.11721C9.52045 4.13067 9.56223 4.13603 9.60383 4.13298C9.64526 4.1307 9.68583 4.12029 9.72323 4.10233C9.76064 4.08437 9.79414 4.05922 9.82182 4.02832C9.8495 3.99741 9.87083 3.96136 9.88458 3.92221C9.89833 3.88307 9.90423 3.84159 9.90195 3.80017C9.8912 3.57656 9.80976 3.36213 9.66937 3.18776C9.52897 3.01339 9.33686 2.88808 9.1207 2.82985L9.10695 2.57985C9.10547 2.53811 9.09558 2.49709 9.07787 2.45925C9.06017 2.42141 9.03501 2.38754 9.00391 2.35965C8.97281 2.33176 8.93641 2.31042 8.89687 2.29693C8.85734 2.28343 8.81549 2.27805 8.77383 2.2811C8.73238 2.28334 8.69179 2.29373 8.65437 2.31167C8.61695 2.32962 8.58343 2.35476 8.55574 2.38568C8.52805 2.41659 8.50672 2.45266 8.49299 2.49183C8.47926 2.53099 8.47338 2.57248 8.4757 2.61392L8.4882 2.84392C8.26424 2.91633 8.07066 3.06107 7.93786 3.25542C7.80505 3.44976 7.74054 3.68269 7.75445 3.91767C7.77026 4.20206 7.89832 4.46854 8.1105 4.65857C8.32267 4.84859 8.60161 4.94662 8.88601 4.9311Z" fill="#878787"/>
</svg>
