<svg width="44" height="44" viewBox="0 0 44 44" fill="none" xmlns="http://www.w3.org/2000/svg">
<rect width="44" height="44" rx="8" fill="#F59600" fill-opacity="0.15"/>
<path d="M11.62 24.475L14.1475 19.6675C14.365 19.255 14.7925 19 15.2575 19H20.5L21.25 25.75L11.5 25C11.5 24.7975 11.5375 24.6625 11.62 24.475Z" fill="#E6E6E6"/>
<path d="M11.7324 24.2503H16.6749C17.1324 24.2503 17.4999 23.8828 17.4999 23.4253V20.5828C17.4999 20.1253 17.1324 19.7578 16.6749 19.7578H14.1099L11.7324 24.2503Z" fill="#26C9FC"/>
<path d="M11.5 25V28.9225C11.5 29.6575 12.1 30.2575 12.835 30.2575H31.15C31.8925 30.2575 32.5 29.65 32.5 28.9075V25L26.875 22.75L20.5 25H11.5Z" fill="#FF822D"/>
<path d="M19 29.875C19 30.5712 18.7234 31.2389 18.2312 31.7312C17.7389 32.2234 17.0712 32.5 16.375 32.5C15.6788 32.5 15.0111 32.2234 14.5188 31.7312C14.0266 31.2389 13.75 30.5712 13.75 29.875C13.75 29.1788 14.0266 28.5111 14.5188 28.0188C15.0111 27.5266 15.6788 27.25 16.375 27.25C17.0712 27.25 17.7389 27.5266 18.2312 28.0188C18.7234 28.5111 19 29.1788 19 29.875ZM30.25 29.875C30.25 30.5712 29.9734 31.2389 29.4812 31.7312C28.9889 32.2234 28.3212 32.5 27.625 32.5C26.9288 32.5 26.2611 32.2234 25.7688 31.7312C25.2766 31.2389 25 30.5712 25 29.875C25 29.1788 25.2766 28.5111 25.7688 28.0188C26.2611 27.5266 26.9288 27.25 27.625 27.25C28.3212 27.25 28.9889 27.5266 29.4812 28.0188C29.9734 28.5111 30.25 29.1788 30.25 29.875Z" fill="#321B41"/>
<path d="M17.5 29.875C17.5 30.1734 17.3815 30.4595 17.1705 30.6705C16.9595 30.8815 16.6734 31 16.375 31C16.0766 31 15.7905 30.8815 15.5795 30.6705C15.3685 30.4595 15.25 30.1734 15.25 29.875C15.25 29.5766 15.3685 29.2905 15.5795 29.0795C15.7905 28.8685 16.0766 28.75 16.375 28.75C16.6734 28.75 16.9595 28.8685 17.1705 29.0795C17.3815 29.2905 17.5 29.5766 17.5 29.875ZM28.75 29.875C28.75 30.0227 28.7209 30.169 28.6644 30.3055C28.6078 30.442 28.525 30.566 28.4205 30.6705C28.316 30.775 28.192 30.8578 28.0555 30.9144C27.919 30.9709 27.7727 31 27.625 31C27.4773 31 27.331 30.9709 27.1945 30.9144C27.058 30.8578 26.934 30.775 26.8295 30.6705C26.725 30.566 26.6422 30.442 26.5856 30.3055C26.5291 30.169 26.5 30.0227 26.5 29.875C26.5 29.5766 26.6185 29.2905 26.8295 29.0795C27.0405 28.8685 27.3266 28.75 27.625 28.75C27.9234 28.75 28.2095 28.8685 28.4205 29.0795C28.6315 29.2905 28.75 29.5766 28.75 29.875Z" fill="#F4F4F4"/>
<path d="M32.4993 26.5H32.1243C31.4868 26.5 30.9693 27.0325 30.9993 27.6775C31.0293 28.285 31.5543 28.75 32.1618 28.75H32.4993V26.5Z" fill="#CA0B4A"/>
<path d="M22.75 15.25H30.25C31.495 15.25 32.5 16.255 32.5 17.5V25H20.5V17.5C20.5 16.255 21.505 15.25 22.75 15.25ZM11.5 28.75H12.1825C12.6325 28.75 13 28.3825 13 27.9325V26.5675C13 26.1175 12.6325 25.75 12.1825 25.75H11.5V28.75Z" fill="#FCD53F"/>
</svg>
