<svg width="20" height="20" viewBox="0 0 20 20" fill="none" xmlns="http://www.w3.org/2000/svg">
    <mask id="path-1-inside-1_4582_39037" fill="white">
        <path d="M13.9062 3.125C12.293 3.125 10.8805 3.81875 10 4.99141C9.11953 3.81875 7.70703 3.125 6.09375 3.125C4.80955 3.12645 3.57837 3.63723 2.6703 4.5453C1.76223 5.45337 1.25145 6.68455 1.25 7.96875C1.25 13.4375 9.35859 17.8641 9.70391 18.0469C9.79492 18.0958 9.89665 18.1215 10 18.1215C10.1033 18.1215 10.2051 18.0958 10.2961 18.0469C10.6414 17.8641 18.75 13.4375 18.75 7.96875C18.7486 6.68455 18.2378 5.45337 17.3297 4.5453C16.4216 3.63723 15.1904 3.12645 13.9062 3.125ZM10 16.7813C8.57344 15.95 2.5 12.1633 2.5 7.96875C2.50124 7.01601 2.88026 6.10265 3.55395 5.42896C4.22765 4.75526 5.14101 4.37624 6.09375 4.375C7.61328 4.375 8.88906 5.18438 9.42187 6.48438C9.46896 6.59901 9.54907 6.69705 9.65201 6.76605C9.75495 6.83505 9.87607 6.8719 10 6.8719C10.1239 6.8719 10.2451 6.83505 10.348 6.76605C10.4509 6.69705 10.531 6.59901 10.5781 6.48438C11.1109 5.18203 12.3867 4.375 13.9062 4.375C14.859 4.37624 15.7724 4.75526 16.446 5.42896C17.1197 6.10265 17.4988 7.01601 17.5 7.96875C17.5 12.157 11.425 15.9492 10 16.7813Z"/>
    </mask>
    <path d="M13.9062 3.125C12.293 3.125 10.8805 3.81875 10 4.99141C9.11953 3.81875 7.70703 3.125 6.09375 3.125C4.80955 3.12645 3.57837 3.63723 2.6703 4.5453C1.76223 5.45337 1.25145 6.68455 1.25 7.96875C1.25 13.4375 9.35859 17.8641 9.70391 18.0469C9.79492 18.0958 9.89665 18.1215 10 18.1215C10.1033 18.1215 10.2051 18.0958 10.2961 18.0469C10.6414 17.8641 18.75 13.4375 18.75 7.96875C18.7486 6.68455 18.2378 5.45337 17.3297 4.5453C16.4216 3.63723 15.1904 3.12645 13.9062 3.125ZM10 16.7813C8.57344 15.95 2.5 12.1633 2.5 7.96875C2.50124 7.01601 2.88026 6.10265 3.55395 5.42896C4.22765 4.75526 5.14101 4.37624 6.09375 4.375C7.61328 4.375 8.88906 5.18438 9.42187 6.48438C9.46896 6.59901 9.54907 6.69705 9.65201 6.76605C9.75495 6.83505 9.87607 6.8719 10 6.8719C10.1239 6.8719 10.2451 6.83505 10.348 6.76605C10.4509 6.69705 10.531 6.59901 10.5781 6.48438C11.1109 5.18203 12.3867 4.375 13.9062 4.375C14.859 4.37624 15.7724 4.75526 16.446 5.42896C17.1197 6.10265 17.4988 7.01601 17.5 7.96875C17.5 12.157 11.425 15.9492 10 16.7813Z" fill="#878787"/>
    <path d="M13.9062 3.125L13.9079 1.625H13.9062V3.125ZM10 4.99141L8.80048 5.89205L10 7.48963L11.1995 5.89205L10 4.99141ZM6.09375 3.125V1.625L6.09206 1.625L6.09375 3.125ZM1.25 7.96875L-0.25 7.96706V7.96875H1.25ZM9.70391 18.0469L10.4145 16.7259L10.4057 16.7212L9.70391 18.0469ZM10.2961 18.0469L9.59425 16.7212L9.58547 16.7259L10.2961 18.0469ZM18.75 7.96875H20.25V7.96706L18.75 7.96875ZM10 16.7813L9.24481 18.0773L10.0008 18.5178L10.7563 18.0766L10 16.7813ZM2.5 7.96875L1 7.9668V7.96875H2.5ZM6.09375 4.375V2.875L6.0918 2.875L6.09375 4.375ZM9.42188 6.48438L8.03393 7.05323L8.03437 7.05433L9.42188 6.48438ZM10 6.8719V5.3719V6.8719ZM10.5781 6.48438L11.9656 7.05433L11.9664 7.05236L10.5781 6.48438ZM13.9062 4.375L13.9082 2.875H13.9062V4.375ZM17.5 7.96875H19L19 7.9668L17.5 7.96875ZM13.9062 3.125V1.625C11.8546 1.625 9.98379 2.51476 8.80048 4.09077L10 4.99141L11.1995 5.89205C11.7771 5.12274 12.7313 4.625 13.9062 4.625V3.125ZM10 4.99141L11.1995 4.09077C10.0162 2.51476 8.14538 1.625 6.09375 1.625V3.125V4.625C7.26868 4.625 8.22286 5.12274 8.80048 5.89205L10 4.99141ZM6.09375 3.125L6.09206 1.625C4.41062 1.6269 2.7986 2.29568 1.60964 3.48464L2.6703 4.5453L3.73096 5.60596C4.35814 4.97879 5.20848 4.626 6.09544 4.625L6.09375 3.125ZM2.6703 4.5453L1.60964 3.48464C0.420684 4.6736 -0.248104 6.28562 -0.249999 7.96706L1.25 7.96875L2.75 7.97044C2.751 7.08348 3.10379 6.23314 3.73096 5.60596L2.6703 4.5453ZM1.25 7.96875H-0.25C-0.25 11.405 2.24517 14.2671 4.35922 16.1185C6.55238 18.0391 8.77869 19.2543 9.00207 19.3726L9.70391 18.0469L10.4057 16.7212C10.2838 16.6566 8.28317 15.5671 6.3357 13.8616C4.30913 12.0868 2.75 10.0012 2.75 7.96875H1.25ZM9.70391 18.0469L8.99328 19.3679C9.30272 19.5343 9.64862 19.6215 10 19.6215V18.1215V16.6215C10.1447 16.6215 10.2871 16.6573 10.4145 16.7259L9.70391 18.0469ZM10 18.1215V19.6215C10.3514 19.6215 10.6973 19.5343 11.0067 19.3679L10.2961 18.0469L9.58547 16.7259C9.71288 16.6573 9.85531 16.6215 10 16.6215V18.1215ZM10.2961 18.0469L10.9979 19.3726C11.2213 19.2543 13.4476 18.0391 15.6408 16.1185C17.7548 14.2671 20.25 11.405 20.25 7.96875H18.75H17.25C17.25 10.0012 15.6909 12.0868 13.6643 13.8616C11.7168 15.5671 9.71619 16.6566 9.59426 16.7212L10.2961 18.0469ZM18.75 7.96875L20.25 7.96706C20.2481 6.28562 19.5793 4.6736 18.3904 3.48464L17.3297 4.5453L16.269 5.60596C16.8962 6.23314 17.249 7.08348 17.25 7.97044L18.75 7.96875ZM17.3297 4.5453L18.3904 3.48464C17.2014 2.29568 15.5894 1.6269 13.9079 1.625L13.9062 3.125L13.9046 4.625C14.7915 4.626 15.6419 4.97879 16.269 5.60596L17.3297 4.5453ZM10 16.7813L10.7552 15.4852C10.0813 15.0926 8.31462 14.0026 6.73551 12.5369C5.0813 11.0014 4 9.39031 4 7.96875H2.5H1C1 10.7417 2.95542 13.1213 4.69457 14.7356C6.50882 16.4196 8.49211 17.6387 9.24481 18.0773L10 16.7813ZM2.5 7.96875L4 7.9707C4.00072 7.41511 4.22175 6.88248 4.61462 6.48962L3.55396 5.42896L2.49329 4.3683C1.53878 5.32281 1.00176 6.61691 1 7.9668L2.5 7.96875ZM3.55396 5.42896L4.61462 6.48962C5.00748 6.09675 5.54011 5.87572 6.0957 5.875L6.09375 4.375L6.0918 2.875C4.74191 2.87676 3.44781 3.41378 2.49329 4.3683L3.55396 5.42896ZM6.09375 4.375V5.875C7.06809 5.875 7.75515 6.37306 8.03393 7.05323L9.42188 6.48438L10.8098 5.91552C10.023 3.9957 8.15847 2.875 6.09375 2.875V4.375ZM9.42188 6.48438L8.03437 7.05433C8.19447 7.44407 8.46682 7.77743 8.81682 8.01203L9.65201 6.76605L10.4872 5.52008C10.6313 5.61668 10.7435 5.75394 10.8094 5.91442L9.42188 6.48438ZM9.65201 6.76605L8.81682 8.01203C9.16681 8.24664 9.57865 8.3719 10 8.3719V6.8719V5.3719C10.1735 5.3719 10.3431 5.42347 10.4872 5.52008L9.65201 6.76605ZM10 6.8719V8.3719C10.4214 8.3719 10.8332 8.24664 11.1832 8.01203L10.348 6.76605L9.51281 5.52008C9.65692 5.42347 9.8265 5.3719 10 5.3719V6.8719ZM10.348 6.76605L11.1832 8.01203C11.5332 7.77743 11.8055 7.44407 11.9656 7.05433L10.5781 6.48438L9.19062 5.91442C9.25655 5.75394 9.36869 5.61668 9.51281 5.52008L10.348 6.76605ZM10.5781 6.48438L11.9664 7.05236C12.2449 6.37178 12.9305 5.875 13.9062 5.875V4.375V2.875C11.8429 2.875 9.97701 3.99228 9.18982 5.91639L10.5781 6.48438ZM13.9062 4.375L13.9043 5.875C14.4599 5.87572 14.9925 6.09675 15.3854 6.48962L16.446 5.42896L17.5067 4.3683C16.5522 3.41378 15.2581 2.87676 13.9082 2.875L13.9062 4.375ZM16.446 5.42896L15.3854 6.48962C15.7782 6.88248 15.9993 7.41511 16 7.9707L17.5 7.96875L19 7.9668C18.9982 6.61691 18.4612 5.32281 17.5067 4.3683L16.446 5.42896ZM17.5 7.96875H16C16 9.3868 14.9189 10.9975 13.2637 12.5344C11.6841 14.0011 9.91714 15.0927 9.24366 15.4859L10 16.7813L10.7563 18.0766C11.5079 17.6378 13.4909 16.4173 15.305 14.7328C17.0436 13.1185 19 10.739 19 7.96875H17.5Z" fill="#878787" mask="url(#path-1-inside-1_4582_39037)"/>
</svg>
