<svg width="22" height="25" viewBox="0 0 22 25" fill="none" xmlns="http://www.w3.org/2000/svg">
    <path d="M5.5 17.875C5.5 18.6043 5.21027 19.3038 4.69454 19.8195C4.17882 20.3353 3.47935 20.625 2.75 20.625C2.02065 20.625 1.32118 20.3353 0.805456 19.8195C0.289731 19.3038 0 18.6043 0 17.875C0 17.1457 0.289731 16.4462 0.805456 15.9305C1.32118 15.4147 2.02065 15.125 2.75 15.125C3.47935 15.125 4.17882 15.4147 4.69454 15.9305C5.21027 16.4462 5.5 17.1457 5.5 17.875Z" fill="#F59600"/>
    <path fill-rule="evenodd" clip-rule="evenodd" d="M11 11C10.6384 11 10.3125 11.2723 10.3125 11.6339V24.0625C10.3125 24.2448 10.3849 24.4197 10.5139 24.5486C10.6428 24.6776 10.8177 24.75 11 24.75C11.1823 24.75 11.3572 24.6776 11.4861 24.5486C11.6151 24.4197 11.6875 24.2448 11.6875 24.0625V11.6339C11.6875 11.2723 11.3616 11 11 11ZM10.3125 6.1875C10.3125 6.567 10.6384 6.875 11.0179 6.875C11.3981 6.875 11.6875 6.567 11.6875 6.1875V0.6875C11.6875 0.505164 11.6151 0.330295 11.4861 0.201364C11.3572 0.072433 11.1823 0 11 0C10.8177 0 10.6428 0.072433 10.5139 0.201364C10.3849 0.330295 10.3125 0.505164 10.3125 0.6875V6.1875ZM19.25 18.5625C18.8884 18.5625 18.5625 18.8347 18.5625 19.1964V24.0625C18.5625 24.2448 18.6349 24.4197 18.7639 24.5486C18.8928 24.6776 19.0677 24.75 19.25 24.75C19.4323 24.75 19.6072 24.6776 19.7361 24.5486C19.8651 24.4197 19.9375 24.2448 19.9375 24.0625V19.1964C19.9375 18.8347 19.6116 18.5625 19.25 18.5625ZM18.5625 13.75C18.5625 14.1295 18.8884 14.4375 19.2679 14.4375C19.6481 14.4375 19.9375 14.1295 19.9375 13.75V0.6875C19.9375 0.505164 19.8651 0.330295 19.7361 0.201364C19.6072 0.072433 19.4323 0 19.25 0C19.0677 0 18.8928 0.072433 18.7639 0.201364C18.6349 0.330295 18.5625 0.505164 18.5625 0.6875V13.75ZM2.75 22C2.38838 22 2.0625 22.2722 2.0625 22.6339V24.0625C2.0625 24.2448 2.13493 24.4197 2.26386 24.5486C2.3928 24.6776 2.56766 24.75 2.75 24.75C2.93234 24.75 3.1072 24.6776 3.23614 24.5486C3.36507 24.4197 3.4375 24.2448 3.4375 24.0625V22.6339C3.4375 22.2722 3.11162 22 2.75 22ZM2.0625 17.1875C2.0625 17.567 2.38838 17.875 2.76787 17.875C3.14806 17.875 3.4375 17.567 3.4375 17.1875V0.6875C3.4375 0.505164 3.36507 0.330295 3.23614 0.201364C3.1072 0.072433 2.93234 0 2.75 0C2.56766 0 2.3928 0.072433 2.26386 0.201364C2.13493 0.330295 2.0625 0.505164 2.0625 0.6875V17.1875Z" fill="#F59600"/>
    <path d="M13.75 6.875C13.75 7.60435 13.4603 8.30382 12.9445 8.81954C12.4288 9.33527 11.7293 9.625 11 9.625C10.2707 9.625 9.57118 9.33527 9.05546 8.81954C8.53973 8.30382 8.25 7.60435 8.25 6.875C8.25 6.14565 8.53973 5.44618 9.05546 4.93046C9.57118 4.41473 10.2707 4.125 11 4.125C11.7293 4.125 12.4288 4.41473 12.9445 4.93046C13.4603 5.44618 13.75 6.14565 13.75 6.875ZM22 14.4375C22 15.1668 21.7103 15.8663 21.1945 16.382C20.6788 16.8978 19.9793 17.1875 19.25 17.1875C18.5207 17.1875 17.8212 16.8978 17.3055 16.382C16.7897 15.8663 16.5 15.1668 16.5 14.4375C16.5 13.7082 16.7897 13.0087 17.3055 12.493C17.8212 11.9772 18.5207 11.6875 19.25 11.6875C19.9793 11.6875 20.6788 11.9772 21.1945 12.493C21.7103 13.0087 22 13.7082 22 14.4375Z" fill="#F59600"/>
</svg>
