<svg width="39" height="39" viewBox="0 0 39 39" fill="none" xmlns="http://www.w3.org/2000/svg">
<path d="M19.8055 26.9961C11.7617 26.9961 5.05859 24.4977 3.53516 21.207C6.33828 29.7992 4.63203 37.782 19.8055 37.782C34.9789 37.782 33.2727 29.7992 36.0758 21.207C34.5523 24.4977 27.8492 26.9961 19.8055 26.9961Z" fill="#3E4347"/>
<path d="M12.3102 12.4923C20.9024 10.1157 40.6461 13.711 36.3196 21.8766C38.6961 24.5579 39.5493 27.4219 28.2149 27.2391C10.7868 31.3219 -3.59449 22.8516 2.74301 16.4532C1.21957 13.3454 4.57113 11.761 12.3102 12.4923Z" fill="#6F7980"/>
<path d="M19.8055 26.6289C27.4227 26.6289 33.7602 24.2523 35.2227 21.1445C35.3445 20.8398 35.4055 20.5352 35.5273 20.2305C35.5273 20.0477 35.5883 19.9258 35.5883 19.743C35.5883 15.9648 28.5195 12.918 19.8664 12.918C11.2133 12.918 4.14453 15.9648 4.14453 19.743C4.14453 19.9258 4.14453 20.0477 4.20547 20.2305C4.26641 20.5352 4.38828 20.8398 4.51016 21.1445C5.85078 24.2523 12.1883 26.6289 19.8055 26.6289Z" fill="#3E4347"/>
<path d="M19.8051 26.6301C27.4223 26.6301 33.7598 24.2535 35.2223 21.1457C35.2223 21.0238 35.2832 20.9629 35.2832 20.841C34.0035 17.6113 27.5441 15.1738 19.7441 15.1738C11.9441 15.1738 5.48477 17.6113 4.20508 20.841C4.26602 20.9629 4.26602 21.0238 4.26602 21.1457C5.85039 24.2535 12.1879 26.6301 19.8051 26.6301Z" fill="#FBBF67"/>
<path d="M21.9378 18.5246C18.8909 18.4636 15.1737 20.9011 12.6753 20.7183C8.53155 20.4136 12.7972 22.4246 15.7222 22.4246C17.6722 22.4246 19.0128 20.6574 20.0487 19.9261C21.5112 19.0121 25.1065 18.5855 21.9378 18.5246Z" fill="#D33B23"/>
<path d="M12.9196 16.5132C12.1274 14.3195 7.55706 17.9148 11.4571 18.707C12.0664 18.8288 13.5899 18.4632 12.9196 16.5132ZM21.7555 23.3992C20.7805 20.7179 15.1133 25.1663 19.9883 26.0804C20.7196 26.2023 22.6086 25.7757 21.7555 23.3992ZM22.7914 15.721C21.8774 13.5273 16.2102 17.1226 21.0242 17.9148C21.6946 17.9757 23.5836 17.6101 22.7914 15.721ZM32.1149 18.0976C31.7492 15.721 24.4977 17.0617 29.4946 19.5601C30.2258 19.9257 32.4196 20.2304 32.1149 18.0976Z" fill="#FF8736"/>
<path d="M9.20169 20.2306C8.53138 19.3165 7.55638 18.0978 7.19076 18.7072C6.64232 19.5603 6.45951 21.2665 6.88607 21.3275C9.93294 21.9369 9.68919 20.9619 9.20169 20.2306ZM25.9595 18.5244C24.8626 19.0119 24.1923 18.6462 23.7048 19.3775C22.547 21.0228 26.5079 21.5712 27.2392 20.5962C27.7876 19.9259 26.6908 18.2197 25.9595 18.5244ZM26.8736 22.6072C26.0814 22.2415 26.2642 23.4603 25.0454 22.4853C24.1923 21.815 22.3642 23.5212 23.5829 24.679C24.9236 25.9587 25.2892 24.74 25.8376 24.8619C26.9954 25.0447 29.0064 23.5212 26.8736 22.6072ZM13.4673 22.9728C12.7361 22.2415 11.5783 24.3134 12.0048 24.8619C12.9189 26.0806 16.2095 25.8369 17.0626 24.9228C18.1595 23.8259 15.2345 24.679 13.4673 22.9728Z" fill="#89664C"/>
<path d="M10.6637 22.3648C10.6637 22.3648 10.7246 23.0961 10.8465 23.4008C10.0543 23.0961 10.0543 21.6945 10.0543 21.6945C10.0543 21.6945 9.50586 21.9992 9.5668 22.5477C8.71367 21.8164 7.98242 22.182 7.98242 22.182C7.98242 22.182 9.0793 22.7914 9.26211 23.218C8.65273 23.2789 8.28711 23.4617 8.04336 23.9492C8.04336 23.9492 9.26211 23.3398 10.1762 23.7664C9.81055 24.0711 9.99336 24.8023 9.99336 24.8023C11.4559 23.2789 12.3699 24.6195 13.0402 24.2539C12.4918 23.5227 11.6996 23.4008 11.6996 23.4008C11.3949 22.7914 10.6637 22.3648 10.6637 22.3648ZM17.2449 16.393C16.5137 16.2711 15.7824 16.6367 15.7824 16.6367C15.7824 16.6367 16.4527 16.9414 16.7574 17.0633C16.0871 17.6117 14.8684 16.8805 14.8684 16.8805C14.8684 16.8805 14.8684 17.4898 15.3559 17.7336C14.3199 18.0992 14.198 18.9523 14.198 18.9523C14.198 18.9523 15.2949 18.343 15.7215 18.4039C15.4168 18.9523 15.4168 19.3789 15.7824 19.8055C15.7824 19.8055 15.9043 18.4648 16.7574 17.9164C16.8184 18.4039 17.5496 18.5867 17.5496 18.5867C17.0012 16.5758 18.6465 16.4539 18.6465 15.7227C17.7934 15.7227 17.2449 16.393 17.2449 16.393ZM31.4434 21.8773C31.748 21.5727 33.0277 21.3898 33.0277 21.3898C33.0277 21.3898 32.4793 20.7805 31.3824 21.0852C31.6262 20.5977 31.2605 20.1102 31.2605 20.1102C31.2605 20.1102 30.7121 21.3898 29.859 21.3898C30.1027 21.0852 30.4074 20.4758 30.4074 20.4758C30.4074 20.4758 29.5543 20.6586 29.0668 21.207C29.0668 21.207 28.2746 20.9633 27.5434 21.4508C27.9699 22.0602 29.3715 21.1461 30.1027 23.0961C30.1027 23.0961 30.5293 22.4867 30.3465 22.0602C31.3215 21.9992 32.2355 23.0352 32.2355 23.0352C32.2355 22.4867 31.9918 22.182 31.4434 21.8773Z" fill="#699635"/>
<path opacity="0.6" d="M20.293 6.94687C18.0383 4.63125 19.5617 1.21875 19.5617 1.21875C19.5617 1.21875 14.8086 5.72813 17.7945 8.83594C21.268 12.4312 19.5617 14.625 19.5617 14.625C19.5617 14.625 23.8273 10.6031 20.293 6.94687ZM13.5898 9.01875C11.8836 7.37344 13.0414 4.875 13.0414 4.875C13.0414 4.875 9.50703 8.16563 11.7617 10.4203C14.382 13.0406 13.0414 14.625 13.0414 14.625C13.0414 14.625 16.2102 11.7 13.5898 9.01875ZM26.9961 9.01875C25.2898 7.37344 26.4477 4.875 26.4477 4.875C26.4477 4.875 22.9133 8.16563 25.168 10.4203C27.7883 13.0406 26.4477 14.625 26.4477 14.625C26.4477 14.625 29.6164 11.7 26.9961 9.01875Z" fill="#A6AEB0"/>
</svg>
