<svg width="24" height="24" viewBox="0 0 24 24" fill="none" xmlns="http://www.w3.org/2000/svg">
<path d="M5.3189 14.5026L4.48349 17.6213L1.43011 17.6859C0.517593 15.9934 0 14.057 0 11.9991C0 10.0093 0.483937 8.13276 1.34175 6.48047H1.3424L4.06077 6.97884L5.25158 9.6809C5.00235 10.4075 4.86651 11.1875 4.86651 11.9991C4.8666 12.88 5.02616 13.724 5.3189 14.5026Z" fill="#FBBB00"/>
<path d="M23.7902 9.75781C23.928 10.4837 23.9998 11.2334 23.9998 11.9996C23.9998 12.8587 23.9095 13.6967 23.7374 14.5051C23.1533 17.2558 21.6269 19.6578 19.5124 21.3576L19.5118 21.3569L16.0878 21.1822L15.6032 18.1571C17.0063 17.3343 18.1028 16.0466 18.6804 14.5051H12.2637V9.75781H18.774H23.7902Z" fill="#518EF8"/>
<path d="M19.5114 21.3577L19.5121 21.3584C17.4556 23.0113 14.8433 24.0003 11.9996 24.0003C7.42968 24.0003 3.45651 21.4461 1.42969 17.6872L5.31848 14.5039C6.33187 17.2085 8.94088 19.1338 11.9996 19.1338C13.3143 19.1338 14.5459 18.7784 15.6028 18.1579L19.5114 21.3577Z" fill="#28B446"/>
<path d="M19.6596 2.76262L15.7721 5.94524C14.6783 5.26152 13.3853 4.86655 12 4.86655C8.87211 4.86655 6.2143 6.88016 5.25168 9.68173L1.34245 6.4813H1.3418C3.33895 2.63076 7.36222 0 12 0C14.9117 0 17.5813 1.03715 19.6596 2.76262Z" fill="#F14336"/>
</svg>
