<svg width="20" height="20" viewBox="0 0 20 20" fill="none" xmlns="http://www.w3.org/2000/svg">
    <g clip-path="url(#clip0_6330_20843)">
        <path d="M10.0005 15L10.0005 12.5" stroke="#F59600" stroke-width="1.5" stroke-linecap="round"/>
        <path d="M1.95982 11.0115C1.66563 9.09719 1.51854 8.14002 1.88046 7.29147C2.24238 6.44292 3.04535 5.86235 4.65127 4.70121L5.85115 3.83366C7.8489 2.38921 8.84778 1.66699 10.0003 1.66699C11.1529 1.66699 12.1517 2.38921 14.1495 3.83366L15.3494 4.70121C16.9553 5.86235 17.7583 6.44292 18.1202 7.29147C18.4821 8.14002 18.335 9.09719 18.0408 11.0115L17.79 12.644C17.3729 15.3578 17.1644 16.7147 16.1912 17.5242C15.2179 18.3337 13.795 18.3337 10.9493 18.3337H9.05131C6.2056 18.3337 4.78275 18.3337 3.80949 17.5242C2.83623 16.7147 2.62772 15.3578 2.21068 12.644L1.95982 11.0115Z" stroke="#F59600" stroke-width="1.5" stroke-linejoin="round"/>
    </g>
    <defs>
        <clipPath id="clip0_6330_20843">
            <rect width="20" height="20" fill="white"/>
        </clipPath>
    </defs>
</svg>
