<svg width="20" height="20" viewBox="0 0 20 20" fill="none" xmlns="http://www.w3.org/2000/svg">
<path d="M3.125 3.17188H16.875C17.1941 3.17188 17.5 3.29878 17.7256 3.52441C17.9512 3.75004 18.0781 4.05591 18.0781 4.375V16.25L18.0732 16.3232C18.0639 16.3961 18.0409 16.4667 18.0049 16.5312C17.9569 16.6172 17.8875 16.6895 17.8037 16.7412C17.7199 16.793 17.6238 16.8228 17.5254 16.8271C17.4271 16.8315 17.3292 16.8106 17.2412 16.7666L15.0205 15.6562L15 15.6465L14.9795 15.6562L12.7588 16.7666C12.6785 16.8068 12.5898 16.8281 12.5 16.8281C12.4102 16.8281 12.3215 16.8068 12.2412 16.7666L10.0205 15.6562L10 15.6465L9.97949 15.6562L7.75879 16.7666C7.67847 16.8068 7.58981 16.8281 7.5 16.8281C7.41019 16.8281 7.32153 16.8068 7.24121 16.7666L5.02051 15.6562L5 15.6465L4.97949 15.6562L2.75879 16.7666C2.67078 16.8106 2.57292 16.8315 2.47461 16.8271C2.37617 16.8228 2.28013 16.793 2.19629 16.7412C2.11252 16.6895 2.04311 16.6172 1.99512 16.5312C1.94716 16.4453 1.92193 16.3485 1.92188 16.25V4.375C1.92188 4.05591 2.04878 3.75004 2.27441 3.52441C2.50004 3.29878 2.80591 3.17188 3.125 3.17188ZM3.07812 15.3145L3.14551 15.2812L4.74121 14.4824C4.82153 14.4422 4.91019 14.4219 5 14.4219C5.08981 14.4219 5.17847 14.4422 5.25879 14.4824L7.47949 15.5938L7.5 15.6035L7.52051 15.5938L9.74121 14.4824C9.82153 14.4422 9.91019 14.4219 10 14.4219C10.0898 14.4219 10.1785 14.4422 10.2588 14.4824L12.4795 15.5938L12.5 15.6035L12.5205 15.5938L14.7412 14.4824C14.8215 14.4422 14.9102 14.4219 15 14.4219C15.0898 14.4219 15.1785 14.4422 15.2588 14.4824L16.8545 15.2812L16.9219 15.3145V4.32812H3.07812V15.3145ZM6.25 10.0469H13.75C13.9033 10.0469 14.0508 10.1074 14.1592 10.2158C14.2676 10.3242 14.3281 10.4717 14.3281 10.625C14.3281 10.7783 14.2676 10.9258 14.1592 11.0342C14.0508 11.1426 13.9033 11.2031 13.75 11.2031H6.25C6.09667 11.2031 5.94924 11.1426 5.84082 11.0342C5.7324 10.9258 5.67188 10.7783 5.67188 10.625C5.67188 10.4717 5.7324 10.3242 5.84082 10.2158C5.94924 10.1074 6.09667 10.0469 6.25 10.0469ZM6.25 7.54688H13.75C13.9033 7.54688 14.0508 7.6074 14.1592 7.71582C14.2676 7.82424 14.3281 7.97167 14.3281 8.125C14.3281 8.27833 14.2676 8.42576 14.1592 8.53418C14.0508 8.6426 13.9033 8.70312 13.75 8.70312H6.25C6.09667 8.70312 5.94924 8.6426 5.84082 8.53418C5.7324 8.42576 5.67188 8.27833 5.67188 8.125C5.67188 7.97167 5.7324 7.82424 5.84082 7.71582C5.94924 7.6074 6.09667 7.54688 6.25 7.54688Z" fill="#878787" stroke="#878787" stroke-width="0.09375"/>
</svg>
