<svg width="20" height="20" viewBox="0 0 20 20" fill="none" xmlns="http://www.w3.org/2000/svg">
<path d="M10 1.29688C11.8103 1.29894 13.5461 2.01875 14.8262 3.29883C16.1062 4.5789 16.8261 6.3147 16.8281 8.125C16.8281 10.5635 15.6982 13.1535 13.5586 15.6143C12.718 16.5868 11.7845 17.4744 10.7725 18.2656L10.334 18.5986C10.2369 18.6664 10.1213 18.7031 10.0029 18.7031C9.91415 18.7031 9.82702 18.6824 9.74805 18.6436L9.67188 18.5986C8.48774 17.7267 7.404 16.726 6.44141 15.6143V15.6133C4.29889 13.1527 3.17188 10.5634 3.17188 8.125L3.18066 7.78613C3.26626 6.09928 3.97385 4.4988 5.17383 3.29883C6.3738 2.09885 7.97428 1.39126 9.66113 1.30566L10 1.29688ZM10 2.45312C8.49573 2.45312 7.05294 3.05057 5.98926 4.11426C4.92557 5.17794 4.32812 6.62073 4.32812 8.125C4.32812 10.3762 5.41835 12.4372 6.66602 14.0596C7.91409 15.6824 9.32344 16.8718 9.9707 17.3809L10 17.4033L10.0293 17.3809C10.6766 16.8718 12.0859 15.6817 13.334 14.0586C14.5816 12.4361 15.6719 10.3753 15.6719 8.125C15.6719 6.62073 15.0744 5.17794 14.0107 4.11426C12.9471 3.05057 11.5043 2.45312 10 2.45312ZM10 5.04688C10.8164 5.04688 11.5995 5.37098 12.1768 5.94824C12.754 6.5255 13.0781 7.30863 13.0781 8.125C13.0781 8.73372 12.8977 9.32881 12.5596 9.83496C12.2213 10.3412 11.7402 10.7358 11.1777 10.9688C10.6153 11.2017 9.99646 11.2623 9.39941 11.1436C8.80238 11.0248 8.25369 10.7322 7.82324 10.3018C7.3928 9.87131 7.10023 9.32262 6.98145 8.72559C6.86269 8.12854 6.92333 7.50968 7.15625 6.94727C7.38923 6.38481 7.78384 5.90366 8.29004 5.56543C8.79619 5.22729 9.39128 5.04688 10 5.04688ZM10.7354 6.34961C10.3842 6.20416 9.9978 6.16608 9.625 6.24023C9.25223 6.3144 8.90938 6.49687 8.64062 6.76562C8.37187 7.03438 8.1894 7.37723 8.11523 7.75C8.04108 8.1228 8.07916 8.50918 8.22461 8.86035C8.37007 9.21153 8.61657 9.51148 8.93262 9.72266C9.24865 9.93379 9.61993 10.0469 10 10.0469C10.5097 10.0469 10.999 9.8448 11.3594 9.48438C11.7198 9.12395 11.9219 8.63471 11.9219 8.125C11.9219 7.74493 11.8088 7.37365 11.5977 7.05762C11.3865 6.74157 11.0865 6.49507 10.7354 6.34961Z" fill="#878787" stroke="#878787" stroke-width="0.09375"/>
</svg>
