<svg width="24" height="24" viewBox="0 0 24 24" fill="none" xmlns="http://www.w3.org/2000/svg">
<path d="M15 12H2M5.5 15L2 12L5.5 9" stroke="#E72C2C" stroke-width="1.5" stroke-linecap="round" stroke-linejoin="round"/>
<path d="M9 7C9.012 4.825 9.109 3.647 9.877 2.879C10.756 2 12.17 2 14.998 2H15.998C18.827 2 20.241 2 21.12 2.879C21.998 3.757 21.998 5.172 21.998 8V16C21.998 18.828 21.998 20.243 21.12 21.121C20.351 21.89 19.173 21.986 16.998 21.998M9 17C9.012 19.175 9.109 20.353 9.877 21.121C10.518 21.763 11.445 21.936 12.998 21.983" stroke="#E72C2C" stroke-width="1.5" stroke-linecap="round"/>
</svg>
