<svg width="23" height="23" viewBox="0 0 23 23" fill="none" xmlns="http://www.w3.org/2000/svg">
    <path fill-rule="evenodd" clip-rule="evenodd" d="M11.5344 1.91602H11.4661C8.23733 1.91602 5.27694 4.25872 4.98973 7.36027C4.97058 7.58214 4.95752 7.80886 4.94909 8.05309L4.93729 8.6241L4.93496 9.13605L4.94937 9.07769C4.81613 9.72744 4.50903 10.3301 4.05985 10.8226L3.99548 10.9054C3.61087 11.4896 3.38989 12.1659 3.35568 12.8642L3.35487 13.0925C3.33523 14.0109 3.64996 14.9198 4.24202 15.6416C5.04492 16.4893 6.08426 16.995 7.19976 17.1023C10.0527 17.4122 12.9392 17.4122 15.8002 17.1015C16.9081 16.9995 17.9505 16.4923 18.7198 15.6759C19.3006 14.9811 19.6176 14.1472 19.6447 13.2838L19.6457 12.8973C19.6139 12.1683 19.3915 11.4914 19.0023 10.9097L18.9431 10.8337L18.7987 10.6639C18.4742 10.2585 18.2372 9.79162 18.1024 9.29219L18.0597 9.11288L18.0508 8.92481C18.0482 8.84023 18.0468 8.74644 18.0464 8.62929L18.0463 7.98424C18.0441 7.73749 18.0368 7.56202 18.0197 7.36449C17.7227 4.25708 14.7615 1.91602 11.5344 1.91602ZM11.4661 3.25322H11.5344C14.1196 3.25322 16.4778 5.11757 16.7043 7.48706C16.7177 7.64262 16.7237 7.79102 16.7254 8.01149L16.728 8.87844C16.7309 9.01709 16.7364 9.13239 16.7457 9.26213L16.758 9.35094L16.8202 9.61523C17.0045 10.3144 17.3354 10.9666 17.791 11.5289L17.9232 11.6839L17.9085 11.6596C18.1612 12.0372 18.3052 12.4755 18.3253 12.9274L18.3247 13.084C18.3399 13.7128 18.1315 14.3102 17.737 14.7832C17.2159 15.3346 16.4708 15.6971 15.6699 15.7709C12.892 16.0724 10.1 16.0724 7.3327 15.7719C6.52304 15.694 5.77745 15.3312 5.22629 14.751C4.869 14.3127 4.66278 13.7172 4.67573 13.1069L4.67588 12.8973L4.69262 12.7147C4.73295 12.4093 4.835 12.0997 4.99318 11.8147L5.0734 11.682C5.66147 11.0205 6.06505 10.2163 6.24281 9.34949L6.2566 9.21359L6.26285 8.33262L6.27824 7.88566C6.28522 7.74467 6.29415 7.6107 6.30536 7.48084C6.5242 5.11768 8.88025 3.25322 11.4661 3.25322ZM5.0734 11.682C5.05918 11.698 5.04485 11.7139 5.03041 11.7297L5.07762 11.675L5.0734 11.682ZM13.9991 18.8695C13.7149 18.6381 13.2991 18.6837 13.0705 18.9714C12.9714 19.0961 12.8566 19.2079 12.729 19.3043C12.296 19.6439 11.7556 19.7951 11.2185 19.7311C10.6821 19.6672 10.1945 19.3942 9.86368 18.9738C9.63637 18.685 9.22081 18.6374 8.9355 18.8675C8.6502 19.0976 8.60318 19.5183 8.83048 19.8071C9.37905 20.5041 10.1829 20.9542 11.0641 21.0591C11.9445 21.164 12.8311 20.9159 13.5284 20.3688C13.7354 20.2127 13.9307 20.0223 14.0997 19.8096C14.3284 19.5219 14.2834 19.101 13.9991 18.8695Z" fill="#F9F9F9"/>
</svg>
