<svg width="20" height="20" viewBox="0 0 20 20" fill="none" xmlns="http://www.w3.org/2000/svg">
    <path d="M16.6668 10.417V5.66699C16.6668 4.26686 16.6668 3.5668 16.3943 3.03202C16.1547 2.56161 15.7722 2.17916 15.3018 1.93948C14.767 1.66699 14.067 1.66699 12.6668 1.66699H7.3335C5.93336 1.66699 5.2333 1.66699 4.69852 1.93948C4.22811 2.17916 3.84566 2.56161 3.60598 3.03202C3.3335 3.5668 3.3335 4.26686 3.3335 5.66699V14.3337C3.3335 15.7338 3.3335 16.4339 3.60598 16.9686C3.84566 17.439 4.22811 17.8215 4.69852 18.0612C5.2333 18.3337 5.93336 18.3337 7.3335 18.3337H10.0002M11.6668 9.16699H6.66683M8.3335 12.5003H6.66683M13.3335 5.83366H6.66683M12.0835 15.8337L13.7502 17.5003L17.5002 13.7503" stroke="#878787" stroke-width="1.5" stroke-linecap="round" stroke-linejoin="round"/>
</svg>
