<svg width="101" height="101" viewBox="0 0 101 101" fill="none" xmlns="http://www.w3.org/2000/svg">
<g filter="url(#filter0_d_7562_35646)">
<rect x="4" width="93" height="93" rx="46.5" fill="white" shape-rendering="crispEdges"/>
<path d="M47.7745 61.625V52.99L42.982 48.195C42.5133 47.7262 42.25 47.0904 42.25 46.4275C42.25 45.7646 42.5133 45.1288 42.982 44.66L54.032 33.6075C54.2677 33.3714 54.5483 33.1848 54.8573 33.0588C55.1662 32.9328 55.4973 32.87 55.8309 32.8739C56.1646 32.8779 56.494 32.9486 56.7999 33.0819C57.1058 33.2152 57.3819 33.4083 57.612 33.65L62.397 38.6625H66.8545C67.5175 38.6625 68.1534 38.9259 68.6222 39.3947C69.0911 39.8636 69.3545 40.4995 69.3545 41.1625C69.3545 41.8255 69.0911 42.4614 68.6222 42.9303C68.1534 43.3991 67.5175 43.6625 66.8545 43.6625H61.3295C60.991 43.6626 60.6561 43.5939 60.345 43.4607C60.0338 43.3275 59.753 43.1325 59.5195 42.8875L55.757 38.9525L48.2845 46.4275L52.0445 50.1875C52.512 50.655 52.777 51.2925 52.777 51.955V61.625C52.777 62.288 52.5136 62.9239 52.0447 63.3928C51.5759 63.8616 50.94 64.125 50.277 64.125C49.6139 64.125 48.978 63.8616 48.5092 63.3928C48.0404 62.9239 47.777 62.288 47.777 61.625M70.3745 29.125C70.3745 29.8637 70.229 30.5951 69.9463 31.2776C69.6636 31.9601 69.2493 32.5801 68.7269 33.1025C68.2046 33.6248 67.5845 34.0391 66.9021 34.3218C66.2196 34.6045 65.4882 34.75 64.7495 34.75C64.0108 34.75 63.2793 34.6045 62.5969 34.3218C61.9144 34.0391 61.2943 33.6248 60.772 33.1025C60.2497 32.5801 59.8353 31.9601 59.5526 31.2776C59.27 30.5951 59.1245 29.8637 59.1245 29.125C59.1245 27.6332 59.7171 26.2024 60.772 25.1475C61.8269 24.0926 63.2576 23.5 64.7495 23.5C66.2413 23.5 67.672 24.0926 68.7269 25.1475C69.7818 26.2024 70.3745 27.6332 70.3745 29.125Z" fill="#F59600"/>
<path d="M73.8775 65.7525C75.5218 64.1086 76.4966 61.9123 76.6125 59.59L76.625 59.125C76.625 56.6386 75.6373 54.254 73.8791 52.4959C72.121 50.7377 69.7364 49.75 67.25 49.75C64.7636 49.75 62.379 50.7377 60.6209 52.4959C58.8627 54.254 57.875 56.6386 57.875 59.125L57.8875 59.59C58.0068 61.9928 59.0453 64.2577 60.788 65.9162C62.5307 67.5747 64.8443 68.4998 67.25 68.5L67.715 68.4875C70.0373 68.3716 72.2336 67.3968 73.8775 65.7525ZM44.125 59.125C44.125 56.6386 43.1373 54.254 41.3791 52.4959C39.621 50.7377 37.2364 49.75 34.75 49.75C32.2636 49.75 29.879 50.7377 28.1209 52.4959C26.3627 54.254 25.375 56.6386 25.375 59.125C25.375 61.6114 26.3627 63.996 28.1209 65.7541C29.879 67.5123 32.2636 68.5 34.75 68.5C37.2364 68.5 39.621 67.5123 41.3791 65.7541C43.1373 63.996 44.125 61.6114 44.125 59.125Z" fill="#F59600"/>
</g>
<defs>
<filter id="filter0_d_7562_35646" x="0" y="0" width="101" height="101" filterUnits="userSpaceOnUse" color-interpolation-filters="sRGB">
<feFlood flood-opacity="0" result="BackgroundImageFix"/>
<feColorMatrix in="SourceAlpha" type="matrix" values="0 0 0 0 0 0 0 0 0 0 0 0 0 0 0 0 0 0 127 0" result="hardAlpha"/>
<feOffset dy="4"/>
<feGaussianBlur stdDeviation="2"/>
<feComposite in2="hardAlpha" operator="out"/>
<feColorMatrix type="matrix" values="0 0 0 0 0 0 0 0 0 0 0 0 0 0 0 0 0 0 0.12 0"/>
<feBlend mode="normal" in2="BackgroundImageFix" result="effect1_dropShadow_7562_35646"/>
<feBlend mode="normal" in="SourceGraphic" in2="effect1_dropShadow_7562_35646" result="shape"/>
</filter>
</defs>
</svg>
