<svg width="20" height="20" viewBox="0 0 20 20" fill="none" xmlns="http://www.w3.org/2000/svg">
    <mask id="path-1-inside-1_4586_39209" fill="white">
        <path d="M17.5 3.75H2.5C2.16848 3.75 1.85054 3.8817 1.61612 4.11612C1.3817 4.35054 1.25 4.66848 1.25 5V15C1.25 15.3315 1.3817 15.6495 1.61612 15.8839C1.85054 16.1183 2.16848 16.25 2.5 16.25H17.5C17.8315 16.25 18.1495 16.1183 18.3839 15.8839C18.6183 15.6495 18.75 15.3315 18.75 15V5C18.75 4.66848 18.6183 4.35054 18.3839 4.11612C18.1495 3.8817 17.8315 3.75 17.5 3.75ZM17.5 5V6.875H2.5V5H17.5ZM17.5 15H2.5V8.125H17.5V15ZM16.25 13.125C16.25 13.2908 16.1842 13.4497 16.0669 13.5669C15.9497 13.6842 15.7908 13.75 15.625 13.75H13.125C12.9592 13.75 12.8003 13.6842 12.6831 13.5669C12.5658 13.4497 12.5 13.2908 12.5 13.125C12.5 12.9592 12.5658 12.8003 12.6831 12.6831C12.8003 12.5658 12.9592 12.5 13.125 12.5H15.625C15.7908 12.5 15.9497 12.5658 16.0669 12.6831C16.1842 12.8003 16.25 12.9592 16.25 13.125ZM11.25 13.125C11.25 13.2908 11.1842 13.4497 11.0669 13.5669C10.9497 13.6842 10.7908 13.75 10.625 13.75H9.375C9.20924 13.75 9.05027 13.6842 8.93306 13.5669C8.81585 13.4497 8.75 13.2908 8.75 13.125C8.75 12.9592 8.81585 12.8003 8.93306 12.6831C9.05027 12.5658 9.20924 12.5 9.375 12.5H10.625C10.7908 12.5 10.9497 12.5658 11.0669 12.6831C11.1842 12.8003 11.25 12.9592 11.25 13.125Z"/>
    </mask>
    <path d="M17.5 3.75H2.5C2.16848 3.75 1.85054 3.8817 1.61612 4.11612C1.3817 4.35054 1.25 4.66848 1.25 5V15C1.25 15.3315 1.3817 15.6495 1.61612 15.8839C1.85054 16.1183 2.16848 16.25 2.5 16.25H17.5C17.8315 16.25 18.1495 16.1183 18.3839 15.8839C18.6183 15.6495 18.75 15.3315 18.75 15V5C18.75 4.66848 18.6183 4.35054 18.3839 4.11612C18.1495 3.8817 17.8315 3.75 17.5 3.75ZM17.5 5V6.875H2.5V5H17.5ZM17.5 15H2.5V8.125H17.5V15ZM16.25 13.125C16.25 13.2908 16.1842 13.4497 16.0669 13.5669C15.9497 13.6842 15.7908 13.75 15.625 13.75H13.125C12.9592 13.75 12.8003 13.6842 12.6831 13.5669C12.5658 13.4497 12.5 13.2908 12.5 13.125C12.5 12.9592 12.5658 12.8003 12.6831 12.6831C12.8003 12.5658 12.9592 12.5 13.125 12.5H15.625C15.7908 12.5 15.9497 12.5658 16.0669 12.6831C16.1842 12.8003 16.25 12.9592 16.25 13.125ZM11.25 13.125C11.25 13.2908 11.1842 13.4497 11.0669 13.5669C10.9497 13.6842 10.7908 13.75 10.625 13.75H9.375C9.20924 13.75 9.05027 13.6842 8.93306 13.5669C8.81585 13.4497 8.75 13.2908 8.75 13.125C8.75 12.9592 8.81585 12.8003 8.93306 12.6831C9.05027 12.5658 9.20924 12.5 9.375 12.5H10.625C10.7908 12.5 10.9497 12.5658 11.0669 12.6831C11.1842 12.8003 11.25 12.9592 11.25 13.125Z" fill="#878787"/>
    <path d="M17.5 3.75V2.25V3.75ZM2.5 3.75V2.25V3.75ZM1.25 5H-0.25H1.25ZM1.25 15H-0.25H1.25ZM17.5 5H19V3.5H17.5V5ZM17.5 6.875V8.375H19V6.875H17.5ZM2.5 6.875H1V8.375H2.5V6.875ZM2.5 5V3.5H1V5H2.5ZM17.5 15V16.5H19V15H17.5ZM2.5 15H1V16.5H2.5V15ZM2.5 8.125V6.625H1V8.125H2.5ZM17.5 8.125H19V6.625H17.5V8.125ZM17.5 3.75V2.25H2.5V3.75V5.25H17.5V3.75ZM2.5 3.75V2.25C1.77065 2.25 1.07118 2.53973 0.555456 3.05546L1.61612 4.11612L2.67678 5.17678C2.62989 5.22366 2.5663 5.25 2.5 5.25V3.75ZM1.61612 4.11612L0.555456 3.05546C0.039731 3.57118 -0.25 4.27065 -0.25 5H1.25H2.75C2.75 5.0663 2.72366 5.12989 2.67678 5.17678L1.61612 4.11612ZM1.25 5H-0.25V15H1.25H2.75V5H1.25ZM1.25 15H-0.25C-0.25 15.7293 0.0397314 16.4288 0.555456 16.9445L1.61612 15.8839L2.67678 14.8232C2.72366 14.8701 2.75 14.9337 2.75 15H1.25ZM1.61612 15.8839L0.555456 16.9445C1.07118 17.4603 1.77065 17.75 2.5 17.75V16.25V14.75C2.5663 14.75 2.62989 14.7763 2.67678 14.8232L1.61612 15.8839ZM2.5 16.25V17.75H17.5V16.25V14.75H2.5V16.25ZM17.5 16.25V17.75C18.2293 17.75 18.9288 17.4603 19.4445 16.9445L18.3839 15.8839L17.3232 14.8232C17.3701 14.7763 17.4337 14.75 17.5 14.75V16.25ZM18.3839 15.8839L19.4445 16.9445C19.9603 16.4288 20.25 15.7293 20.25 15H18.75H17.25C17.25 14.9337 17.2763 14.8701 17.3232 14.8232L18.3839 15.8839ZM18.75 15H20.25V5H18.75H17.25V15H18.75ZM18.75 5H20.25C20.25 4.27065 19.9603 3.57118 19.4445 3.05546L18.3839 4.11612L17.3232 5.17678C17.2763 5.12989 17.25 5.0663 17.25 5H18.75ZM18.3839 4.11612L19.4445 3.05546C18.9288 2.53973 18.2293 2.25 17.5 2.25V3.75V5.25C17.4337 5.25 17.3701 5.22366 17.3232 5.17678L18.3839 4.11612ZM17.5 5H16V6.875H17.5H19V5H17.5ZM17.5 6.875V5.375H2.5V6.875V8.375H17.5V6.875ZM2.5 6.875H4V5H2.5H1V6.875H2.5ZM2.5 5V6.5H17.5V5V3.5H2.5V5ZM17.5 15V13.5H2.5V15V16.5H17.5V15ZM2.5 15H4V8.125H2.5H1V15H2.5ZM2.5 8.125V9.625H17.5V8.125V6.625H2.5V8.125ZM17.5 8.125H16V15H17.5H19V8.125H17.5ZM16.25 13.125H14.75C14.75 12.8929 14.8422 12.6704 15.0063 12.5063L16.0669 13.5669L17.1276 14.6276C17.5261 14.2291 17.75 13.6886 17.75 13.125H16.25ZM16.0669 13.5669L15.0063 12.5063C15.1704 12.3422 15.3929 12.25 15.625 12.25V13.75V15.25C16.1886 15.25 16.7291 15.0261 17.1276 14.6276L16.0669 13.5669ZM15.625 13.75V12.25H13.125V13.75V15.25H15.625V13.75ZM13.125 13.75V12.25C13.3571 12.25 13.5796 12.3422 13.7437 12.5063L12.6831 13.5669L11.6224 14.6276C12.0209 15.0261 12.5614 15.25 13.125 15.25V13.75ZM12.6831 13.5669L13.7437 12.5063C13.9078 12.6704 14 12.8929 14 13.125H12.5H11C11 13.6886 11.2239 14.2291 11.6224 14.6276L12.6831 13.5669ZM12.5 13.125H14C14 13.3571 13.9078 13.5796 13.7437 13.7437L12.6831 12.6831L11.6224 11.6224C11.2239 12.0209 11 12.5614 11 13.125H12.5ZM12.6831 12.6831L13.7437 13.7437C13.5796 13.9078 13.3571 14 13.125 14V12.5V11C12.5614 11 12.0209 11.2239 11.6224 11.6224L12.6831 12.6831ZM13.125 12.5V14H15.625V12.5V11H13.125V12.5ZM15.625 12.5V14C15.3929 14 15.1704 13.9078 15.0063 13.7437L16.0669 12.6831L17.1276 11.6224C16.7291 11.2239 16.1886 11 15.625 11V12.5ZM16.0669 12.6831L15.0063 13.7437C14.8422 13.5796 14.75 13.3571 14.75 13.125H16.25H17.75C17.75 12.5614 17.5261 12.0209 17.1276 11.6224L16.0669 12.6831ZM11.25 13.125H9.75C9.75 12.8929 9.84219 12.6704 10.0063 12.5063L11.0669 13.5669L12.1276 14.6276C12.5261 14.2291 12.75 13.6886 12.75 13.125H11.25ZM11.0669 13.5669L10.0063 12.5063C10.1704 12.3422 10.3929 12.25 10.625 12.25V13.75V15.25C11.1886 15.25 11.7291 15.0261 12.1276 14.6276L11.0669 13.5669ZM10.625 13.75V12.25H9.375V13.75V15.25H10.625V13.75ZM9.375 13.75V12.25C9.60706 12.25 9.82962 12.3422 9.99372 12.5063L8.93306 13.5669L7.8724 14.6276C8.27092 15.0261 8.81142 15.25 9.375 15.25V13.75ZM8.93306 13.5669L9.99372 12.5063C10.1578 12.6704 10.25 12.8929 10.25 13.125H8.75H7.25C7.25 13.6886 7.47388 14.2291 7.8724 14.6276L8.93306 13.5669ZM8.75 13.125H10.25C10.25 13.3571 10.1578 13.5796 9.99372 13.7437L8.93306 12.6831L7.8724 11.6224C7.47388 12.0209 7.25 12.5614 7.25 13.125H8.75ZM8.93306 12.6831L9.99372 13.7437C9.82962 13.9078 9.60706 14 9.375 14V12.5V11C8.81142 11 8.27092 11.2239 7.8724 11.6224L8.93306 12.6831ZM9.375 12.5V14H10.625V12.5V11H9.375V12.5ZM10.625 12.5V14C10.3929 14 10.1704 13.9078 10.0063 13.7437L11.0669 12.6831L12.1276 11.6224C11.7291 11.2239 11.1886 11 10.625 11V12.5ZM11.0669 12.6831L10.0063 13.7437C9.84219 13.5796 9.75 13.3571 9.75 13.125H11.25H12.75C12.75 12.5614 12.5261 12.0209 12.1276 11.6224L11.0669 12.6831Z" fill="#878787" mask="url(#path-1-inside-1_4586_39209)"/>
</svg>
