<svg width="15" height="15" viewBox="0 0 15 15" fill="none" xmlns="http://www.w3.org/2000/svg">
<path d="M3.33395 3.83333C3.33395 2.81667 3.73782 1.84165 4.45671 1.12276C5.1756 0.403868 6.15062 0 7.16729 0C8.18395 0 9.15897 0.403868 9.87786 1.12276C10.5968 1.84165 11.0006 2.81667 11.0006 3.83333C11.0006 4.85 10.5968 5.82502 9.87786 6.54391C9.15897 7.2628 8.18395 7.66667 7.16729 7.66667C6.15062 7.66667 5.1756 7.2628 4.45671 6.54391C3.73782 5.82502 3.33395 4.85 3.33395 3.83333ZM7.03262 8.674C7.06132 8.66967 7.09027 8.66722 7.11929 8.66667H7.21529C7.24462 8.66667 7.27351 8.66911 7.30195 8.674L12.1653 9.52933L12.1906 9.53467C13.0866 9.74133 14.0493 10.31 14.2366 11.4147L14.2393 11.434L14.3153 12.0187V12.02C14.4913 13.3593 13.4293 14.3333 12.1753 14.3333C12.1476 14.3328 12.12 14.3306 12.0926 14.3267H2.15929C0.905286 14.3267 -0.157381 13.352 0.0192856 12.012L0.0952855 11.4327L0.0986189 11.4127C0.285286 10.328 1.25595 9.72733 2.14995 9.53333L2.16929 9.52933L7.03262 8.674Z" fill="#253B4B"/>
</svg>
