<svg width="20" height="20" viewBox="0 0 20 20" fill="none" xmlns="http://www.w3.org/2000/svg">
<path d="M10 4.5C10.0497 4.5 10.0976 4.51952 10.1328 4.55469C10.168 4.58985 10.1875 4.63777 10.1875 4.6875C10.1875 4.72458 10.1769 4.76116 10.1562 4.79199C10.1356 4.8228 10.1055 4.84617 10.0713 4.86035C10.0372 4.8744 10 4.87821 9.96387 4.87109C9.9275 4.86386 9.89341 4.84653 9.86719 4.82031C9.84097 4.79409 9.82364 4.76 9.81641 4.72363C9.80929 4.68747 9.8131 4.65028 9.82715 4.61621C9.84133 4.58197 9.8647 4.55185 9.89551 4.53125C9.92634 4.51065 9.96292 4.5 10 4.5Z" fill="black" stroke="#878787" stroke-width="1.5"/>
</svg>
