<svg width="20" height="20" viewBox="0 0 20 20" fill="none" xmlns="http://www.w3.org/2000/svg">
<mask id="path-1-inside-1_4908_35647" fill="white">
<path fill-rule="evenodd" clip-rule="evenodd" d="M10.2084 17.4716C11.1669 16.6019 12.0539 15.6566 12.8609 14.6449C14.5609 12.5091 15.5951 10.4032 15.6651 8.53073C15.6928 7.76972 15.5668 7.01094 15.2947 6.29971C15.0226 5.58848 14.6099 4.93939 14.0813 4.39122C13.5528 3.84305 12.9191 3.40703 12.2183 3.10923C11.5174 2.81143 10.7637 2.65794 10.0022 2.65794C9.24068 2.65794 8.48698 2.81143 7.78612 3.10923C7.08526 3.40703 6.45161 3.84305 5.92302 4.39122C5.39444 4.93939 4.98177 5.58848 4.70965 6.29971C4.43754 7.01094 4.31157 7.76972 4.33927 8.53073C4.4101 10.4032 5.4451 12.5091 7.14427 14.6449C7.95132 15.6566 8.83834 16.6019 9.79677 17.4716C9.88899 17.5549 9.9576 17.6155 10.0026 17.6532L10.2084 17.4716ZM9.3876 18.4424C9.3876 18.4424 3.33594 13.3457 3.33594 8.33073C3.33594 6.56262 4.03832 4.86693 5.28856 3.61668C6.5388 2.36644 8.23449 1.66406 10.0026 1.66406C11.7707 1.66406 13.4664 2.36644 14.7166 3.61668C15.9669 4.86693 16.6693 6.56262 16.6693 8.33073C16.6693 13.3457 10.6176 18.4424 10.6176 18.4424C10.2809 18.7524 9.72677 18.7491 9.3876 18.4424ZM10.0026 10.6641C10.6214 10.6641 11.2149 10.4182 11.6525 9.98065C12.0901 9.54306 12.3359 8.94957 12.3359 8.33073C12.3359 7.71189 12.0901 7.1184 11.6525 6.68081C11.2149 6.24323 10.6214 5.9974 10.0026 5.9974C9.38377 5.9974 8.79027 6.24323 8.35269 6.68081C7.9151 7.1184 7.66927 7.71189 7.66927 8.33073C7.66927 8.94957 7.9151 9.54306 8.35269 9.98065C8.79027 10.4182 9.38377 10.6641 10.0026 10.6641ZM10.0026 11.6641C9.11855 11.6641 8.2707 11.3129 7.64558 10.6878C7.02046 10.0626 6.66927 9.21478 6.66927 8.33073C6.66927 7.44667 7.02046 6.59883 7.64558 5.97371C8.2707 5.34859 9.11855 4.9974 10.0026 4.9974C10.8867 4.9974 11.7345 5.34859 12.3596 5.97371C12.9847 6.59883 13.3359 7.44667 13.3359 8.33073C13.3359 9.21478 12.9847 10.0626 12.3596 10.6878C11.7345 11.3129 10.8867 11.6641 10.0026 11.6641Z"/>
</mask>
<path fill-rule="evenodd" clip-rule="evenodd" d="M10.2084 17.4716C11.1669 16.6019 12.0539 15.6566 12.8609 14.6449C14.5609 12.5091 15.5951 10.4032 15.6651 8.53073C15.6928 7.76972 15.5668 7.01094 15.2947 6.29971C15.0226 5.58848 14.6099 4.93939 14.0813 4.39122C13.5528 3.84305 12.9191 3.40703 12.2183 3.10923C11.5174 2.81143 10.7637 2.65794 10.0022 2.65794C9.24068 2.65794 8.48698 2.81143 7.78612 3.10923C7.08526 3.40703 6.45161 3.84305 5.92302 4.39122C5.39444 4.93939 4.98177 5.58848 4.70965 6.29971C4.43754 7.01094 4.31157 7.76972 4.33927 8.53073C4.4101 10.4032 5.4451 12.5091 7.14427 14.6449C7.95132 15.6566 8.83834 16.6019 9.79677 17.4716C9.88899 17.5549 9.9576 17.6155 10.0026 17.6532L10.2084 17.4716ZM9.3876 18.4424C9.3876 18.4424 3.33594 13.3457 3.33594 8.33073C3.33594 6.56262 4.03832 4.86693 5.28856 3.61668C6.5388 2.36644 8.23449 1.66406 10.0026 1.66406C11.7707 1.66406 13.4664 2.36644 14.7166 3.61668C15.9669 4.86693 16.6693 6.56262 16.6693 8.33073C16.6693 13.3457 10.6176 18.4424 10.6176 18.4424C10.2809 18.7524 9.72677 18.7491 9.3876 18.4424ZM10.0026 10.6641C10.6214 10.6641 11.2149 10.4182 11.6525 9.98065C12.0901 9.54306 12.3359 8.94957 12.3359 8.33073C12.3359 7.71189 12.0901 7.1184 11.6525 6.68081C11.2149 6.24323 10.6214 5.9974 10.0026 5.9974C9.38377 5.9974 8.79027 6.24323 8.35269 6.68081C7.9151 7.1184 7.66927 7.71189 7.66927 8.33073C7.66927 8.94957 7.9151 9.54306 8.35269 9.98065C8.79027 10.4182 9.38377 10.6641 10.0026 10.6641ZM10.0026 11.6641C9.11855 11.6641 8.2707 11.3129 7.64558 10.6878C7.02046 10.0626 6.66927 9.21478 6.66927 8.33073C6.66927 7.44667 7.02046 6.59883 7.64558 5.97371C8.2707 5.34859 9.11855 4.9974 10.0026 4.9974C10.8867 4.9974 11.7345 5.34859 12.3596 5.97371C12.9847 6.59883 13.3359 7.44667 13.3359 8.33073C13.3359 9.21478 12.9847 10.0626 12.3596 10.6878C11.7345 11.3129 10.8867 11.6641 10.0026 11.6641Z" fill="black"/>
<path d="M10.0568 17.6999L10.5369 17.1237L10.5319 17.1195L10.0518 17.6957L9.57166 18.2719L9.57666 18.2761L10.0568 17.6999ZM10.2084 17.4716L11.201 18.5962L11.2088 18.5893L11.2164 18.5824L10.2084 17.4716ZM12.8609 14.6449L14.0336 15.5803L14.0346 15.579L12.8609 14.6449ZM15.6651 8.53073L17.1641 8.58676L17.1641 8.58529L15.6651 8.53073ZM10.0022 2.65794V1.15794V2.65794ZM4.33927 8.53073L2.84026 8.58529L2.84034 8.58743L4.33927 8.53073ZM7.14427 14.6449L5.97042 15.5788L5.97165 15.5803L7.14427 14.6449ZM9.79677 17.4716L8.78879 18.5824L8.7911 18.5845L9.79677 17.4716ZM10.0026 17.6532L9.03815 18.8021L10.0271 19.6323L10.9952 18.7779L10.0026 17.6532ZM9.3876 18.4424L10.3936 17.3298L10.374 17.3121L10.3539 17.2951L9.3876 18.4424ZM10.0026 1.66406V0.164062V1.66406ZM16.6693 8.33073H18.1693H16.6693ZM10.6176 18.4424L9.65134 17.2951L9.62596 17.3165L9.60155 17.3389L10.6176 18.4424ZM12.3359 8.33073H13.8359H12.3359ZM10.0026 5.9974V4.4974V5.9974ZM7.66927 8.33073H6.16927H7.66927ZM10.0026 11.6641V13.1641V11.6641ZM6.66927 8.33073H5.16927H6.66927ZM10.0026 4.9974V3.4974V4.9974ZM13.3359 8.33073H14.8359H13.3359ZM10.2084 17.4716L11.2164 18.5824C12.2343 17.6587 13.1764 16.6548 14.0336 15.5803L12.8609 14.6449L11.6883 13.7095C10.9314 14.6584 10.0994 15.545 9.20046 16.3607L10.2084 17.4716ZM12.8609 14.6449L14.0346 15.579C15.8131 13.3446 17.0765 10.9301 17.1641 8.58676L15.6651 8.53073L14.1662 8.47469C14.1138 9.87641 13.3088 11.6736 11.6873 13.7108L12.8609 14.6449ZM15.6651 8.53073L17.1641 8.58529C17.1991 7.62284 17.0398 6.66321 16.6957 5.76371L15.2947 6.29971L13.8938 6.83571C14.0938 7.35868 14.1865 7.91661 14.1661 8.47617L15.6651 8.53073ZM15.2947 6.29971L16.6957 5.76371C16.3515 4.86421 15.8296 4.04331 15.1611 3.35003L14.0813 4.39122L13.0016 5.43241C13.3902 5.83548 13.6937 6.31275 13.8938 6.83571L15.2947 6.29971ZM14.0813 4.39122L15.1611 3.35003C14.4926 2.65675 13.6912 2.10532 12.8049 1.72869L12.2183 3.10923L11.6316 4.48977C12.147 4.70875 12.6129 5.02934 13.0016 5.43241L14.0813 4.39122ZM12.2183 3.10923L12.8049 1.72869C11.9185 1.35206 10.9653 1.15794 10.0022 1.15794V2.65794V4.15794C10.5621 4.15794 11.1163 4.2708 11.6316 4.48977L12.2183 3.10923ZM10.0022 2.65794V1.15794C9.0391 1.15794 8.0859 1.35206 7.19951 1.72869L7.78612 3.10923L8.37273 4.48977C8.88807 4.2708 9.44226 4.15794 10.0022 4.15794V2.65794ZM7.78612 3.10923L7.19951 1.72869C6.31313 2.10532 5.51175 2.65675 4.84325 3.35003L5.92302 4.39122L7.0028 5.43241C7.39147 5.02934 7.85739 4.70875 8.37273 4.48977L7.78612 3.10923ZM5.92302 4.39122L4.84325 3.35003C4.17474 4.04331 3.65283 4.86421 3.30869 5.76371L4.70965 6.29971L6.11062 6.83571C6.3107 6.31275 6.61414 5.83548 7.0028 5.43241L5.92302 4.39122ZM4.70965 6.29971L3.30869 5.76371C2.96455 6.66321 2.80523 7.62284 2.84026 8.58529L4.33927 8.53073L5.83828 8.47617C5.81791 7.91661 5.91054 7.35868 6.11062 6.83571L4.70965 6.29971ZM4.33927 8.53073L2.84034 8.58743C2.92897 10.9304 4.1931 13.3447 5.97042 15.5788L7.14427 14.6449L8.31812 13.711C6.69711 11.6734 5.89123 9.87604 5.8382 8.47403L4.33927 8.53073ZM7.14427 14.6449L5.97165 15.5803C6.8288 16.6548 7.77087 17.6587 8.78879 18.5824L9.79677 17.4716L10.8048 16.3607C9.90581 15.545 9.07385 14.6584 8.31689 13.7095L7.14427 14.6449ZM9.79677 17.4716L8.7911 18.5845C8.88542 18.6697 8.97099 18.7457 9.03815 18.8021L10.0026 17.6532L10.9671 16.5044C10.9442 16.4852 10.8926 16.4401 10.8024 16.3586L9.79677 17.4716ZM10.0026 17.6532L10.9952 18.7779L11.201 18.5962L10.2084 17.4716L9.21585 16.3469L9.01002 16.5286L10.0026 17.6532ZM9.3876 18.4424C10.3539 17.2951 10.3541 17.2953 10.3543 17.2955C10.3544 17.2955 10.3546 17.2957 10.3547 17.2958C10.3549 17.2959 10.3549 17.296 10.3549 17.296C10.3549 17.296 10.3546 17.2957 10.3539 17.2951C10.3524 17.2939 10.3496 17.2915 10.3454 17.2878C10.337 17.2806 10.3231 17.2687 10.3041 17.2522C10.2661 17.2191 10.2077 17.1678 10.1319 17.0994C9.98011 16.9626 9.75915 16.7583 9.49209 16.4965C8.95617 15.9712 8.24398 15.2234 7.53545 14.3331C6.06434 12.4846 4.83594 10.3015 4.83594 8.33073H3.33594H1.83594C1.83594 11.375 3.63337 14.2477 5.18809 16.2012C5.99248 17.212 6.7932 18.0519 7.39197 18.6388C7.69226 18.9332 7.94408 19.1663 8.12327 19.3278C8.21293 19.4086 8.28457 19.4717 8.33521 19.5157C8.36054 19.5377 8.38062 19.555 8.3951 19.5674C8.40234 19.5736 8.40817 19.5786 8.41256 19.5823C8.41476 19.5842 8.41659 19.5857 8.41806 19.5869C8.41879 19.5876 8.41943 19.5881 8.41998 19.5886C8.42025 19.5888 8.42059 19.5891 8.42073 19.5892C8.42105 19.5895 8.42134 19.5897 9.3876 18.4424ZM3.33594 8.33073H4.83594C4.83594 6.96044 5.38028 5.64628 6.34922 4.67734L5.28856 3.61668L4.2279 2.55602C2.69635 4.08757 1.83594 6.16479 1.83594 8.33073H3.33594ZM5.28856 3.61668L6.34922 4.67734C7.31816 3.70841 8.63232 3.16406 10.0026 3.16406V1.66406V0.164062C7.83667 0.164062 5.75945 1.02448 4.2279 2.55602L5.28856 3.61668ZM10.0026 1.66406V3.16406C11.3729 3.16406 12.6871 3.70841 13.656 4.67734L14.7166 3.61668L15.7773 2.55602C14.2458 1.02448 12.1685 0.164062 10.0026 0.164062V1.66406ZM14.7166 3.61668L13.656 4.67734C14.6249 5.64628 15.1693 6.96044 15.1693 8.33073H16.6693H18.1693C18.1693 6.16479 17.3089 4.08757 15.7773 2.55602L14.7166 3.61668ZM16.6693 8.33073H15.1693C15.1693 10.3015 13.9409 12.4846 12.4698 14.3331C11.7612 15.2234 11.049 15.9712 10.5131 16.4965C10.2461 16.7583 10.0251 16.9626 9.87334 17.0994C9.79752 17.1678 9.73915 17.2191 9.70114 17.2522C9.68214 17.2687 9.66824 17.2806 9.65982 17.2878C9.65561 17.2915 9.65276 17.2939 9.65133 17.2951C9.65062 17.2957 9.65026 17.296 9.65026 17.296C9.65026 17.296 9.65035 17.2959 9.65053 17.2958C9.65062 17.2957 9.65082 17.2955 9.65087 17.2955C9.65109 17.2953 9.65134 17.2951 10.6176 18.4424C11.5839 19.5897 11.5842 19.5895 11.5845 19.5892C11.5846 19.5891 11.585 19.5888 11.5852 19.5886C11.5858 19.5881 11.5864 19.5876 11.5872 19.5869C11.5886 19.5857 11.5905 19.5842 11.5926 19.5823C11.597 19.5786 11.6029 19.5736 11.6101 19.5674C11.6246 19.555 11.6447 19.5377 11.67 19.5157C11.7206 19.4717 11.7923 19.4086 11.8819 19.3278C12.0611 19.1663 12.3129 18.9332 12.6132 18.6388C13.212 18.0519 14.0127 17.212 14.8171 16.2012C16.3718 14.2477 18.1693 11.375 18.1693 8.33073H16.6693ZM10.6176 18.4424L9.60155 17.3389C9.73947 17.2119 9.89274 17.1734 10.0063 17.1736C10.1192 17.1739 10.2633 17.2119 10.3936 17.3298L9.3876 18.4424L8.38159 19.555C9.28296 20.37 10.7139 20.3927 11.6337 19.5459L10.6176 18.4424ZM10.0026 10.6641V12.1641C11.0193 12.1641 11.9943 11.7602 12.7132 11.0413L11.6525 9.98065L10.5919 8.91999C10.4356 9.07627 10.2236 9.16406 10.0026 9.16406V10.6641ZM11.6525 9.98065L12.7132 11.0413C13.4321 10.3224 13.8359 9.34739 13.8359 8.33073H12.3359H10.8359C10.8359 8.55174 10.7481 8.76371 10.5919 8.91999L11.6525 9.98065ZM12.3359 8.33073H13.8359C13.8359 7.31407 13.4321 6.33904 12.7132 5.62015L11.6525 6.68081L10.5919 7.74147C10.7481 7.89775 10.8359 8.10971 10.8359 8.33073H12.3359ZM11.6525 6.68081L12.7132 5.62015C11.9943 4.90126 11.0193 4.4974 10.0026 4.4974V5.9974V7.4974C10.2236 7.4974 10.4356 7.58519 10.5919 7.74147L11.6525 6.68081ZM10.0026 5.9974V4.4974C8.98594 4.4974 8.01092 4.90126 7.29203 5.62015L8.35269 6.68081L9.41335 7.74147C9.56963 7.58519 9.78159 7.4974 10.0026 7.4974V5.9974ZM8.35269 6.68081L7.29203 5.62015C6.57314 6.33904 6.16927 7.31407 6.16927 8.33073H7.66927H9.16927C9.16927 8.10971 9.25707 7.89775 9.41335 7.74147L8.35269 6.68081ZM7.66927 8.33073H6.16927C6.16927 9.34739 6.57314 10.3224 7.29203 11.0413L8.35269 9.98065L9.41335 8.91999C9.25707 8.76371 9.16927 8.55174 9.16927 8.33073H7.66927ZM8.35269 9.98065L7.29203 11.0413C8.01092 11.7602 8.98594 12.1641 10.0026 12.1641V10.6641V9.16406C9.78159 9.16406 9.56963 9.07627 9.41335 8.91999L8.35269 9.98065ZM10.0026 11.6641V10.1641C9.51637 10.1641 9.05006 9.97091 8.70624 9.62709L7.64558 10.6878L6.58492 11.7484C7.49135 12.6548 8.72072 13.1641 10.0026 13.1641V11.6641ZM7.64558 10.6878L8.70624 9.62709C8.36242 9.28328 8.16927 8.81696 8.16927 8.33073H6.66927H5.16927C5.16927 9.61261 5.6785 10.842 6.58492 11.7484L7.64558 10.6878ZM6.66927 8.33073H8.16927C8.16927 7.8445 8.36242 7.37818 8.70624 7.03437L7.64558 5.97371L6.58492 4.91305C5.6785 5.81947 5.16927 7.04885 5.16927 8.33073H6.66927ZM7.64558 5.97371L8.70624 7.03437C9.05006 6.69055 9.51637 6.4974 10.0026 6.4974V4.9974V3.4974C8.72072 3.4974 7.49135 4.00662 6.58492 4.91305L7.64558 5.97371ZM10.0026 4.9974V6.4974C10.4888 6.4974 10.9552 6.69055 11.299 7.03437L12.3596 5.97371L13.4203 4.91305C12.5139 4.00662 11.2845 3.4974 10.0026 3.4974V4.9974ZM12.3596 5.97371L11.299 7.03437C11.6428 7.37818 11.8359 7.8445 11.8359 8.33073H13.3359H14.8359C14.8359 7.04885 14.3267 5.81947 13.4203 4.91305L12.3596 5.97371ZM13.3359 8.33073H11.8359C11.8359 8.81696 11.6428 9.28328 11.299 9.62709L12.3596 10.6878L13.4203 11.7484C14.3267 10.842 14.8359 9.61261 14.8359 8.33073H13.3359ZM12.3596 10.6878L11.299 9.62709C10.9552 9.97091 10.4888 10.1641 10.0026 10.1641V11.6641V13.1641C11.2845 13.1641 12.5139 12.6548 13.4203 11.7484L12.3596 10.6878Z" fill="#878787" mask="url(#path-1-inside-1_4908_35647)"/>
</svg>
