<svg width="44" height="44" viewBox="0 0 44 44" fill="none" xmlns="http://www.w3.org/2000/svg">
<rect width="44" height="44" rx="8" fill="#F59600" fill-opacity="0.15"/>
<path d="M22 12.6667C26.838 12.6667 30.6667 15.3333 31.7993 14C31.9307 13.7847 32 13.562 32 13.3333C32 12 27.5227 10 22 10C16.4773 10 12 12 12 13.3333C12 13.562 12.0693 13.7847 12.2007 14C13.3333 15.3333 17.162 12.6667 22 12.6667Z" fill="#F4900C"/>
<path d="M21.9995 12C17.8575 12 14.9222 13.2067 13.8175 13.7453C13.4995 13.9007 13.4582 14.3053 13.5408 14.5973C13.6235 14.8893 20.6662 32.6667 20.6662 32.6667C20.6662 32.6667 21.2635 34 21.9995 34C22.7355 34 23.3328 32.6667 23.3328 32.6667L30.4688 14.5193C30.4688 14.5193 30.6108 13.958 30.0895 13.7C28.9275 13.126 26.0308 12 21.9995 12Z" fill="#FFCC4D"/>
<path d="M21.9994 30.668C21.9994 29.9607 21.7184 29.2824 21.2183 28.7824C20.7183 28.2823 20.04 28.0013 19.3327 28.0013C19.1634 28.0013 18.9994 28.0206 18.8387 28.0513L20.6661 32.668C20.6661 32.668 20.7134 32.7613 20.7927 32.896C21.1633 32.6542 21.4677 32.3239 21.6784 31.9349C21.8891 31.5458 21.9994 31.1104 21.9994 30.668ZM21.3327 23.3346C21.3327 22.6274 21.0518 21.9491 20.5517 21.449C20.0516 20.9489 19.3733 20.668 18.6661 20.668C17.7154 20.668 16.8861 21.1693 16.4141 21.9186L17.9887 25.904C18.2094 25.9654 18.437 25.9981 18.6661 26.0013C20.1381 26.0013 21.3327 24.8066 21.3327 23.3346Z" fill="#BE1931"/>
<path d="M20.6667 18.0013C22.1394 18.0013 23.3333 16.8074 23.3333 15.3346C23.3333 13.8619 22.1394 12.668 20.6667 12.668C19.1939 12.668 18 13.8619 18 15.3346C18 16.8074 19.1939 18.0013 20.6667 18.0013Z" fill="#BE1931"/>
<path d="M26.6667 16.0026C25.9595 16.0026 25.2812 16.2836 24.7811 16.7837C24.281 17.2837 24.0001 17.962 24.0001 18.6693C24.0001 19.3765 24.281 20.0548 24.7811 20.5549C25.2812 21.055 25.9595 21.3359 26.6667 21.3359C27.1214 21.3359 27.5434 21.2113 27.9181 21.0106L29.1781 17.8066C28.8181 16.7593 27.8347 16.0026 26.6667 16.0026ZM22.6667 26.6693C22.6676 27.2614 22.8661 27.8363 23.2307 28.3029C23.5952 28.7695 24.1051 29.1012 24.6794 29.2453L26.6081 24.3406C26.2187 24.1217 25.7801 24.0053 25.3334 24.0026C23.8614 24.0026 22.6667 25.1973 22.6667 26.6693ZM16.6667 18.0026C16.6667 17.2954 16.3858 16.6171 15.8857 16.117C15.3856 15.6169 14.7073 15.3359 14.0001 15.3359C13.9421 15.3359 13.8874 15.3493 13.8301 15.3533C14.1967 16.2946 14.8801 18.0306 15.6801 20.0579C16.2774 19.5686 16.6667 18.8346 16.6667 18.0026Z" fill="#BE1931"/>
</svg>
