<svg width="16" height="13" viewBox="0 0 16 13" fill="none" xmlns="http://www.w3.org/2000/svg">
<path d="M5.5 2.5V0.5C5.5 0.367392 5.55268 0.240215 5.64645 0.146447C5.74022 0.0526784 5.86739 0 6 0C6.13261 0 6.25979 0.0526784 6.35356 0.146447C6.44732 0.240215 6.5 0.367392 6.5 0.5V2.5C6.5 2.63261 6.44732 2.75979 6.35356 2.85355C6.25979 2.94732 6.13261 3 6 3C5.86739 3 5.74022 2.94732 5.64645 2.85355C5.55268 2.75979 5.5 2.63261 5.5 2.5ZM8 3C8.13261 3 8.25979 2.94732 8.35356 2.85355C8.44732 2.75979 8.5 2.63261 8.5 2.5V0.5C8.5 0.367392 8.44732 0.240215 8.35356 0.146447C8.25979 0.0526784 8.13261 0 8 0C7.86739 0 7.74022 0.0526784 7.64645 0.146447C7.55268 0.240215 7.5 0.367392 7.5 0.5V2.5C7.5 2.63261 7.55268 2.75979 7.64645 2.85355C7.74022 2.94732 7.86739 3 8 3ZM10 3C10.1326 3 10.2598 2.94732 10.3536 2.85355C10.4473 2.75979 10.5 2.63261 10.5 2.5V0.5C10.5 0.367392 10.4473 0.240215 10.3536 0.146447C10.2598 0.0526784 10.1326 0 10 0C9.86739 0 9.74022 0.0526784 9.64645 0.146447C9.55268 0.240215 9.5 0.367392 9.5 0.5V2.5C9.5 2.63261 9.55268 2.75979 9.64645 2.85355C9.74022 2.94732 9.86739 3 10 3ZM15.9 5.2C15.8204 5.09391 15.702 5.02378 15.5707 5.00503C15.4394 4.98627 15.3061 5.02043 15.2 5.1L14 6V4.5C14 4.36739 13.9473 4.24021 13.8536 4.14645C13.7598 4.05268 13.6326 4 13.5 4H2.5C2.36739 4 2.24022 4.05268 2.14645 4.14645C2.05268 4.24021 2 4.36739 2 4.5V6L0.800002 5.1C0.693915 5.02043 0.560567 4.98627 0.429291 5.00503C0.298016 5.02378 0.179567 5.09391 0.100002 5.2C0.0204371 5.30609 -0.0137263 5.43944 0.0050273 5.57071C0.0237809 5.70199 0.0939155 5.82044 0.200002 5.9L2 7.25V11C2 11.5304 2.21072 12.0391 2.58579 12.4142C2.96086 12.7893 3.46957 13 4 13H12C12.5304 13 13.0391 12.7893 13.4142 12.4142C13.7893 12.0391 14 11.5304 14 11V7.25L15.8 5.9C15.8525 5.8606 15.8968 5.81125 15.9302 5.75475C15.9637 5.69825 15.9857 5.63571 15.995 5.57071C16.0043 5.50571 16.0007 5.43952 15.9844 5.37591C15.9681 5.3123 15.9394 5.25253 15.9 5.2Z" fill="#253B4B"/>
</svg>
