<svg width="20" height="20" viewBox="0 0 20 20" fill="none" xmlns="http://www.w3.org/2000/svg">
<path d="M10 15.0469C10.3191 15.0469 10.625 15.1738 10.8506 15.3994C11.0762 15.625 11.2031 15.9309 11.2031 16.25C11.2031 16.4879 11.1321 16.7201 11 16.918C10.8678 17.1158 10.6798 17.2703 10.46 17.3613C10.2403 17.4522 9.99881 17.476 9.76562 17.4297C9.53224 17.3833 9.31767 17.2688 9.14941 17.1006C8.98115 16.9323 8.86674 16.7178 8.82031 16.4844C8.77398 16.2512 8.79775 16.0097 8.88867 15.79C8.97973 15.5702 9.13418 15.3822 9.33203 15.25C9.52985 15.1179 9.7621 15.0469 10 15.0469ZM10 3.17188C12.7372 3.17188 14.9531 5.11907 14.9531 7.5C14.9531 9.69829 13.0649 11.5263 10.6201 11.7939L10.5781 11.7988V12.5C10.5781 12.6533 10.5176 12.8008 10.4092 12.9092C10.3008 13.0176 10.1533 13.0781 10 13.0781C9.84667 13.0781 9.69924 13.0176 9.59082 12.9092C9.4824 12.8008 9.42188 12.6533 9.42188 12.5V11.25C9.42188 11.0967 9.4824 10.9492 9.59082 10.8408C9.69924 10.7324 9.84667 10.6719 10 10.6719C12.0855 10.6719 13.7969 9.25697 13.7969 7.5C13.7969 5.74303 12.0855 4.32812 10 4.32812C7.91451 4.32812 6.20313 5.74303 6.20312 7.5C6.20312 7.65333 6.1426 7.80076 6.03418 7.90918C5.92576 8.0176 5.77833 8.07812 5.625 8.07812C5.47167 8.07812 5.32424 8.0176 5.21582 7.90918C5.1074 7.80076 5.04687 7.65333 5.04688 7.5C5.04688 5.11907 7.26278 3.17188 10 3.17188Z" fill="#878787" stroke="#878787" stroke-width="0.09375"/>
</svg>
