<svg width="31" height="31" viewBox="0 0 31 31" fill="none" xmlns="http://www.w3.org/2000/svg">
<path d="M19.375 12.5938H28.0938V7.26562C28.0938 6.10945 27.6345 5.00062 26.8169 4.18308C25.9994 3.36554 24.8906 2.90625 23.7344 2.90625H19.375V12.5938Z" fill="url(#paint0_linear_4376_30076)"/>
<path d="M2.90625 24.9453C2.90625 25.7803 3.23796 26.5811 3.82841 27.1716C4.41885 27.762 5.21967 28.0938 6.05469 28.0938H19.1328C19.9678 28.0938 20.7686 27.762 21.3591 27.1716C21.9495 26.5811 22.2812 25.7803 22.2812 24.9453V2.90625H7.26562C6.10945 2.90625 5.00062 3.36554 4.18308 4.18308C3.36554 5.00062 2.90625 6.10945 2.90625 7.26562V24.9453Z" fill="url(#paint1_linear_4376_30076)"/>
<path d="M7.75 21.3125C7.75 21.5694 7.85206 21.8158 8.03374 21.9975C8.21542 22.1792 8.46182 22.2812 8.71875 22.2812H16.4688C16.7257 22.2812 16.9721 22.1792 17.1538 21.9975C17.3354 21.8158 17.4375 21.5694 17.4375 21.3125C17.4375 21.0556 17.3354 20.8092 17.1538 20.6275C16.9721 20.4458 16.7257 20.3438 16.4688 20.3438H8.71875C8.46182 20.3438 8.21542 20.4458 8.03374 20.6275C7.85206 20.8092 7.75 21.0556 7.75 21.3125Z" fill="url(#paint2_linear_4376_30076)"/>
<path d="M7.75 15.5C7.75 15.7569 7.85206 16.0033 8.03374 16.185C8.21542 16.3667 8.46182 16.4688 8.71875 16.4688H16.4688C16.7257 16.4688 16.9721 16.3667 17.1538 16.185C17.3354 16.0033 17.4375 15.7569 17.4375 15.5C17.4375 15.2431 17.3354 14.9967 17.1538 14.815C16.9721 14.6333 16.7257 14.5312 16.4688 14.5312H8.71875C8.46182 14.5312 8.21542 14.6333 8.03374 14.815C7.85206 14.9967 7.75 15.2431 7.75 15.5Z" fill="url(#paint3_linear_4376_30076)"/>
<path d="M8.71875 10.6562C8.46182 10.6562 8.21542 10.5542 8.03374 10.3725C7.85206 10.1908 7.75 9.94443 7.75 9.6875C7.75 9.43057 7.85206 9.18417 8.03374 9.00249C8.21542 8.82081 8.46182 8.71875 8.71875 8.71875H12.5938C12.8507 8.71875 13.0971 8.82081 13.2788 9.00249C13.4604 9.18417 13.5625 9.43057 13.5625 9.6875C13.5625 9.94443 13.4604 10.1908 13.2788 10.3725C13.0971 10.5542 12.8507 10.6562 12.5938 10.6562H8.71875Z" fill="url(#paint4_linear_4376_30076)"/>
<defs>
<linearGradient id="paint0_linear_4376_30076" x1="28.0937" y1="8.71875" x2="19.9262" y2="6.59719" gradientUnits="userSpaceOnUse">
<stop stop-color="#FE8401"/>
<stop offset="1" stop-color="#CA6407"/>
</linearGradient>
<linearGradient id="paint1_linear_4376_30076" x1="6.42862" y1="27.1938" x2="14.663" y2="3.01087" gradientUnits="userSpaceOnUse">
<stop stop-color="#FFE06B"/>
<stop offset="0.645" stop-color="#FFB357"/>
<stop offset="1" stop-color="#FF921F"/>
</linearGradient>
<linearGradient id="paint2_linear_4376_30076" x1="5.8125" y1="22.2813" x2="19.375" y2="10.6563" gradientUnits="userSpaceOnUse">
<stop stop-color="#FF921F"/>
<stop offset="1" stop-color="#CA6407"/>
</linearGradient>
<linearGradient id="paint3_linear_4376_30076" x1="5.8125" y1="22.2812" x2="19.375" y2="10.6562" gradientUnits="userSpaceOnUse">
<stop stop-color="#FF921F"/>
<stop offset="1" stop-color="#CA6407"/>
</linearGradient>
<linearGradient id="paint4_linear_4376_30076" x1="5.8125" y1="22.2812" x2="19.375" y2="10.6562" gradientUnits="userSpaceOnUse">
<stop stop-color="#FF921F"/>
<stop offset="1" stop-color="#CA6407"/>
</linearGradient>
</defs>
</svg>
