<svg width="11" height="12" viewBox="0 0 11 12" fill="none" xmlns="http://www.w3.org/2000/svg">
<path fill-rule="evenodd" clip-rule="evenodd" d="M0 1.79998C0 1.32259 0.193154 0.864762 0.536971 0.527201C0.880788 0.18964 1.3471 0 1.83333 0H9.16667C9.6529 0 10.1192 0.18964 10.463 0.527201C10.8068 0.864762 11 1.32259 11 1.79998V11.3999C10.9999 11.5129 10.9674 11.6236 10.906 11.7192C10.8447 11.8148 10.7571 11.8915 10.6533 11.9404C10.5496 11.9893 10.4338 12.0084 10.3195 11.9956C10.2051 11.9828 10.0968 11.9385 10.0069 11.8679L8.82811 10.9427L7.36694 11.8991C7.25901 11.9698 7.13094 12.0049 7.0013 11.9994C6.87165 11.9939 6.74715 11.9481 6.64583 11.8685L5.5 10.9679L4.35417 11.8679C4.25285 11.9475 4.12835 11.9933 3.9987 11.9988C3.86906 12.0043 3.74099 11.9692 3.63306 11.8984L2.17189 10.9421L0.992444 11.8679C0.902586 11.9383 0.794306 11.9824 0.680047 11.9952C0.565788 12.0079 0.450188 11.9887 0.346531 11.9398C0.242875 11.891 0.155368 11.8144 0.0940686 11.7188C0.0327689 11.6233 0.000163696 11.5128 0 11.3999V1.79998ZM3.05556 2.39997C2.89348 2.39997 2.73804 2.46318 2.62343 2.5757C2.50883 2.68822 2.44444 2.84083 2.44444 2.99996C2.44444 3.15909 2.50883 3.3117 2.62343 3.42422C2.73804 3.53674 2.89348 3.59995 3.05556 3.59995H7.94444C8.10652 3.59995 8.26196 3.53674 8.37657 3.42422C8.49117 3.3117 8.55556 3.15909 8.55556 2.99996C8.55556 2.84083 8.49117 2.68822 8.37657 2.5757C8.26196 2.46318 8.10652 2.39997 7.94444 2.39997H3.05556ZM3.05556 4.79994C2.89348 4.79994 2.73804 4.86315 2.62343 4.97567C2.50883 5.08819 2.44444 5.2408 2.44444 5.39993C2.44444 5.55906 2.50883 5.71167 2.62343 5.82419C2.73804 5.93671 2.89348 5.99992 3.05556 5.99992H7.94444C8.10652 5.99992 8.26196 5.93671 8.37657 5.82419C8.49117 5.71167 8.55556 5.55906 8.55556 5.39993C8.55556 5.2408 8.49117 5.08819 8.37657 4.97567C8.26196 4.86315 8.10652 4.79994 7.94444 4.79994H3.05556ZM3.05556 7.19991C2.89348 7.19991 2.73804 7.26312 2.62343 7.37564C2.50883 7.48816 2.44444 7.64077 2.44444 7.7999C2.44444 7.95903 2.50883 8.11164 2.62343 8.22416C2.73804 8.33668 2.89348 8.39989 3.05556 8.39989H5.5C5.66208 8.39989 5.81751 8.33668 5.93212 8.22416C6.04673 8.11164 6.11111 7.95903 6.11111 7.7999C6.11111 7.64077 6.04673 7.48816 5.93212 7.37564C5.81751 7.26312 5.66208 7.19991 5.5 7.19991H3.05556Z" fill="#253B4B"/>
</svg>
