<svg width="20" height="20" viewBox="0 0 20 20" fill="none" xmlns="http://www.w3.org/2000/svg">
<mask id="path-1-inside-1_4586_39256" fill="white">
<path d="M13.7497 12.4986C13.3328 12.4985 12.9201 12.582 12.536 12.7442C12.1519 12.9065 11.8043 13.1441 11.5138 13.4431L7.9122 11.1283C8.1955 10.4018 8.1955 9.59539 7.9122 8.86891L11.5138 6.55407C12.0547 7.10822 12.7822 7.44176 13.5551 7.49002C14.3281 7.53829 15.0914 7.29783 15.6971 6.81527C16.3028 6.33272 16.7078 5.64244 16.8335 4.87827C16.9592 4.11411 16.7966 3.33049 16.3774 2.67935C15.9581 2.02822 15.312 1.55595 14.5644 1.3541C13.8167 1.15226 13.0207 1.23523 12.3307 1.58692C11.6408 1.93861 11.106 2.53397 10.83 3.25757C10.5541 3.98117 10.5566 4.78146 10.8372 5.50328L7.23564 7.81813C6.80194 7.37287 6.24531 7.06707 5.63692 6.9398C5.02852 6.81254 4.39599 6.86959 3.82019 7.10367C3.24438 7.33776 2.75147 7.73823 2.40445 8.25391C2.05743 8.76958 1.87207 9.37703 1.87207 9.9986C1.87207 10.6202 2.05743 11.2276 2.40445 11.7433C2.75147 12.259 3.24438 12.6594 3.82019 12.8935C4.39599 13.1276 5.02852 13.1847 5.63692 13.0574C6.24531 12.9301 6.80194 12.6243 7.23564 12.1791L10.8372 14.4939C10.5959 15.1162 10.5602 15.7994 10.7353 16.4434C10.9104 17.0875 11.2871 17.6585 11.8102 18.073C12.3334 18.4875 12.9755 18.7236 13.6425 18.7467C14.3095 18.7699 14.9664 18.5788 15.517 18.2016C16.0676 17.8244 16.483 17.2808 16.7023 16.6505C16.9216 16.0201 16.9334 15.3361 16.7358 14.6986C16.5383 14.0611 16.1418 13.5035 15.6044 13.1077C15.0671 12.7118 14.4171 12.4983 13.7497 12.4986ZM13.7497 2.4986C14.1205 2.4986 14.4831 2.60856 14.7914 2.81459C15.0997 3.02062 15.3401 3.31345 15.482 3.65606C15.6239 3.99868 15.661 4.37568 15.5887 4.73939C15.5163 5.1031 15.3377 5.4372 15.0755 5.69942C14.8133 5.96164 14.4792 6.14022 14.1155 6.21257C13.7518 6.28492 13.3748 6.24778 13.0322 6.10587C12.6896 5.96396 12.3967 5.72363 12.1907 5.41529C11.9847 5.10695 11.8747 4.74444 11.8747 4.3736C11.8747 3.87632 12.0722 3.3994 12.4239 3.04777C12.7755 2.69614 13.2524 2.4986 13.7497 2.4986ZM4.9997 11.8736C4.62886 11.8736 4.26635 11.7636 3.95801 11.5576C3.64966 11.3516 3.40934 11.0587 3.26743 10.7161C3.12551 10.3735 3.08838 9.99652 3.16073 9.6328C3.23307 9.26909 3.41165 8.93499 3.67387 8.67277C3.9361 8.41055 4.27019 8.23197 4.63391 8.15962C4.99762 8.08728 5.37462 8.12441 5.71723 8.26632C6.05984 8.40824 6.35268 8.64856 6.5587 8.9569C6.76473 9.26524 6.8747 9.62776 6.8747 9.9986C6.8747 10.4959 6.67716 10.9728 6.32552 11.3244C5.97389 11.6761 5.49698 11.8736 4.9997 11.8736ZM13.7497 17.4986C13.3789 17.4986 13.0163 17.3886 12.708 17.1826C12.3997 16.9766 12.1593 16.6837 12.0174 16.3411C11.8755 15.9985 11.8384 15.6215 11.9107 15.2578C11.9831 14.8941 12.1617 14.56 12.4239 14.2978C12.6861 14.0355 13.0202 13.857 13.3839 13.7846C13.7476 13.7123 14.1246 13.7494 14.4672 13.8913C14.8098 14.0332 15.1027 14.2736 15.3087 14.5819C15.5147 14.8902 15.6247 15.2528 15.6247 15.6236C15.6247 16.1209 15.4272 16.5978 15.0755 16.9494C14.7239 17.3011 14.247 17.4986 13.7497 17.4986Z"/>
</mask>
<path d="M13.7497 12.4986C13.3328 12.4985 12.9201 12.582 12.536 12.7442C12.1519 12.9065 11.8043 13.1441 11.5138 13.4431L7.9122 11.1283C8.1955 10.4018 8.1955 9.59539 7.9122 8.86891L11.5138 6.55407C12.0547 7.10822 12.7822 7.44176 13.5551 7.49002C14.3281 7.53829 15.0914 7.29783 15.6971 6.81527C16.3028 6.33272 16.7078 5.64244 16.8335 4.87827C16.9592 4.11411 16.7966 3.33049 16.3774 2.67935C15.9581 2.02822 15.312 1.55595 14.5644 1.3541C13.8167 1.15226 13.0207 1.23523 12.3307 1.58692C11.6408 1.93861 11.106 2.53397 10.83 3.25757C10.5541 3.98117 10.5566 4.78146 10.8372 5.50328L7.23564 7.81813C6.80194 7.37287 6.24531 7.06707 5.63692 6.9398C5.02852 6.81254 4.39599 6.86959 3.82019 7.10367C3.24438 7.33776 2.75147 7.73823 2.40445 8.25391C2.05743 8.76958 1.87207 9.37703 1.87207 9.9986C1.87207 10.6202 2.05743 11.2276 2.40445 11.7433C2.75147 12.259 3.24438 12.6594 3.82019 12.8935C4.39599 13.1276 5.02852 13.1847 5.63692 13.0574C6.24531 12.9301 6.80194 12.6243 7.23564 12.1791L10.8372 14.4939C10.5959 15.1162 10.5602 15.7994 10.7353 16.4434C10.9104 17.0875 11.2871 17.6585 11.8102 18.073C12.3334 18.4875 12.9755 18.7236 13.6425 18.7467C14.3095 18.7699 14.9664 18.5788 15.517 18.2016C16.0676 17.8244 16.483 17.2808 16.7023 16.6505C16.9216 16.0201 16.9334 15.3361 16.7358 14.6986C16.5383 14.0611 16.1418 13.5035 15.6044 13.1077C15.0671 12.7118 14.4171 12.4983 13.7497 12.4986ZM13.7497 2.4986C14.1205 2.4986 14.4831 2.60856 14.7914 2.81459C15.0997 3.02062 15.3401 3.31345 15.482 3.65606C15.6239 3.99868 15.661 4.37568 15.5887 4.73939C15.5163 5.1031 15.3377 5.4372 15.0755 5.69942C14.8133 5.96164 14.4792 6.14022 14.1155 6.21257C13.7518 6.28492 13.3748 6.24778 13.0322 6.10587C12.6896 5.96396 12.3967 5.72363 12.1907 5.41529C11.9847 5.10695 11.8747 4.74444 11.8747 4.3736C11.8747 3.87632 12.0722 3.3994 12.4239 3.04777C12.7755 2.69614 13.2524 2.4986 13.7497 2.4986ZM4.9997 11.8736C4.62886 11.8736 4.26635 11.7636 3.95801 11.5576C3.64966 11.3516 3.40934 11.0587 3.26743 10.7161C3.12551 10.3735 3.08838 9.99652 3.16073 9.6328C3.23307 9.26909 3.41165 8.93499 3.67387 8.67277C3.9361 8.41055 4.27019 8.23197 4.63391 8.15962C4.99762 8.08728 5.37462 8.12441 5.71723 8.26632C6.05984 8.40824 6.35268 8.64856 6.5587 8.9569C6.76473 9.26524 6.8747 9.62776 6.8747 9.9986C6.8747 10.4959 6.67716 10.9728 6.32552 11.3244C5.97389 11.6761 5.49698 11.8736 4.9997 11.8736ZM13.7497 17.4986C13.3789 17.4986 13.0163 17.3886 12.708 17.1826C12.3997 16.9766 12.1593 16.6837 12.0174 16.3411C11.8755 15.9985 11.8384 15.6215 11.9107 15.2578C11.9831 14.8941 12.1617 14.56 12.4239 14.2978C12.6861 14.0355 13.0202 13.857 13.3839 13.7846C13.7476 13.7123 14.1246 13.7494 14.4672 13.8913C14.8098 14.0332 15.1027 14.2736 15.3087 14.5819C15.5147 14.8902 15.6247 15.2528 15.6247 15.6236C15.6247 16.1209 15.4272 16.5978 15.0755 16.9494C14.7239 17.3011 14.247 17.4986 13.7497 17.4986Z" fill="#878787"/>
<path d="M13.7497 12.4986L13.7492 13.9986H13.7503L13.7497 12.4986ZM11.5138 13.4431L10.7027 14.705L11.7346 15.3682L12.5895 14.4885L11.5138 13.4431ZM7.9122 11.1283L6.5147 10.5833L6.06885 11.7266L7.10117 12.3901L7.9122 11.1283ZM7.9122 8.86891L7.10117 7.60707L6.06885 8.27058L6.5147 9.41388L7.9122 8.86891ZM11.5138 6.55407L12.5871 5.50624L11.7322 4.63054L10.7027 5.29223L11.5138 6.55407ZM10.8372 5.50328L11.6482 6.76512L12.6794 6.10235L12.2353 4.95983L10.8372 5.50328ZM7.23564 7.81813L6.16113 8.86475L7.016 9.74241L8.04666 9.07997L7.23564 7.81813ZM1.87207 9.9986H3.37207H1.87207ZM7.23564 12.1791L8.04666 10.9172L7.016 10.2548L6.16113 11.1324L7.23564 12.1791ZM10.8372 14.4939L12.2358 15.0362L12.6785 13.8943L11.6482 13.2321L10.8372 14.4939ZM4.9997 11.8736V13.3736V11.8736ZM6.8747 9.9986H8.3747H6.8747ZM13.7497 17.4986V18.9986V17.4986ZM12.708 17.1826L13.5414 15.9354L12.708 17.1826ZM15.6247 15.6236H17.1247H15.6247ZM13.7497 12.4986L13.7502 10.9986C13.1326 10.9984 12.5212 11.1221 11.9523 11.3625L12.536 12.7442L13.1197 14.126C13.3189 14.0418 13.533 13.9985 13.7492 13.9986L13.7497 12.4986ZM12.536 12.7442L11.9523 11.3625C11.3834 11.6028 10.8685 11.9548 10.438 12.3978L11.5138 13.4431L12.5895 14.4885C12.7402 14.3334 12.9205 14.2102 13.1197 14.126L12.536 12.7442ZM11.5138 13.4431L12.3248 12.1813L8.72322 9.86644L7.9122 11.1283L7.10117 12.3901L10.7027 14.705L11.5138 13.4431ZM7.9122 11.1283L9.3097 11.6733C9.72967 10.5963 9.72967 9.40088 9.3097 8.32393L7.9122 8.86891L6.5147 9.41388C6.66133 9.7899 6.66133 10.2073 6.5147 10.5833L7.9122 11.1283ZM7.9122 8.86891L8.72323 10.1307L12.3248 7.8159L11.5138 6.55407L10.7027 5.29223L7.10117 7.60707L7.9122 8.86891ZM11.5138 6.55407L10.4404 7.60189C11.2411 8.42204 12.3177 8.91568 13.4617 8.98711L13.5551 7.49002L13.6486 5.99294C13.2467 5.96784 12.8684 5.7944 12.5871 5.50624L11.5138 6.55407ZM13.5551 7.49002L13.4617 8.98711C14.6056 9.05854 15.7353 8.70266 16.6318 7.98848L15.6971 6.81527L14.7624 5.64207C14.4475 5.893 14.0505 6.01804 13.6486 5.99294L13.5551 7.49002ZM15.6971 6.81527L16.6318 7.98848C17.5282 7.27429 18.1276 6.25269 18.3136 5.12172L16.8335 4.87827L15.3533 4.63483C15.288 5.0322 15.0774 5.39114 14.7624 5.64207L15.6971 6.81527ZM16.8335 4.87827L18.3136 5.12172C18.4996 3.99075 18.259 2.831 17.6386 1.86732L16.3774 2.67935L15.1162 3.49139C15.3342 3.82998 15.4187 4.23746 15.3533 4.63483L16.8335 4.87827ZM16.3774 2.67935L17.6386 1.86732C17.0181 0.903633 16.0619 0.204672 14.9553 -0.0940545L14.5644 1.3541L14.1734 2.80226C14.5622 2.90722 14.8982 3.1528 15.1162 3.49139L16.3774 2.67935ZM14.5644 1.3541L14.9553 -0.0940545C13.8488 -0.392781 12.6707 -0.269989 11.6496 0.250515L12.3307 1.58692L13.0119 2.92333C13.3707 2.74045 13.7846 2.6973 14.1734 2.80226L14.5644 1.3541ZM12.3307 1.58692L11.6496 0.250515C10.6284 0.771019 9.83688 1.65215 9.42847 2.72308L10.83 3.25757L12.2316 3.79206C12.3751 3.41579 12.6532 3.10621 13.0119 2.92333L12.3307 1.58692ZM10.83 3.25757L9.42847 2.72308C9.02006 3.79401 9.02385 4.97844 9.43911 6.04673L10.8372 5.50328L12.2353 4.95983C12.0894 4.58449 12.0881 4.16834 12.2316 3.79206L10.83 3.25757ZM10.8372 5.50328L10.0262 4.24144L6.42461 6.55629L7.23564 7.81813L8.04666 9.07997L11.6482 6.76512L10.8372 5.50328ZM7.23564 7.81813L8.31015 6.7715C7.66828 6.11253 6.84447 5.65993 5.94404 5.47158L5.63692 6.9398L5.32979 8.40802C5.64616 8.4742 5.9356 8.63322 6.16113 8.86475L7.23564 7.81813ZM5.63692 6.9398L5.94404 5.47158C5.04362 5.28323 4.10747 5.36767 3.25528 5.71411L3.82019 7.10367L4.38509 8.49324C4.68451 8.37151 5.01342 8.34184 5.32979 8.40802L5.63692 6.9398ZM3.82019 7.10367L3.25528 5.71411C2.4031 6.06055 1.67358 6.65326 1.15999 7.41646L2.40445 8.25391L3.64891 9.09136C3.82936 8.82321 4.08567 8.61496 4.38509 8.49324L3.82019 7.10367ZM2.40445 8.25391L1.15999 7.41646C0.646399 8.17966 0.37207 9.07868 0.37207 9.9986H1.87207H3.37207C3.37207 9.67538 3.46846 9.35951 3.64891 9.09136L2.40445 8.25391ZM1.87207 9.9986H0.37207C0.37207 10.9185 0.646399 11.8175 1.15999 12.5807L2.40445 11.7433L3.64891 10.9058C3.46846 10.6377 3.37207 10.3218 3.37207 9.9986H1.87207ZM2.40445 11.7433L1.15999 12.5807C1.67358 13.3439 2.4031 13.9366 3.25528 14.2831L3.82019 12.8935L4.38509 11.504C4.08567 11.3822 3.82936 11.174 3.64891 10.9058L2.40445 11.7433ZM3.82019 12.8935L3.25528 14.2831C4.10747 14.6295 5.04362 14.714 5.94404 14.5256L5.63692 13.0574L5.32979 11.5892C5.01342 11.6553 4.68451 11.6257 4.38509 11.504L3.82019 12.8935ZM5.63692 13.0574L5.94404 14.5256C6.84447 14.3373 7.66828 13.8847 8.31015 13.2257L7.23564 12.1791L6.16113 11.1324C5.9356 11.364 5.64616 11.523 5.32979 11.5892L5.63692 13.0574ZM7.23564 12.1791L6.42461 13.4409L10.0262 15.7557L10.8372 14.4939L11.6482 13.2321L8.04666 10.9172L7.23564 12.1791ZM10.8372 14.4939L9.43864 13.9517C9.08156 14.8726 9.02872 15.8838 9.28786 16.8369L10.7353 16.4434L12.1828 16.0499C12.0917 15.715 12.1103 15.3597 12.2358 15.0362L10.8372 14.4939ZM10.7353 16.4434L9.28786 16.8369C9.547 17.7901 10.1045 18.6353 10.8788 19.2487L11.8102 18.073L12.7417 16.8973C12.4697 16.6818 12.2738 16.3848 12.1828 16.0499L10.7353 16.4434ZM11.8102 18.073L10.8788 19.2487C11.653 19.8621 12.6033 20.2116 13.5905 20.2458L13.6425 18.7467L13.6945 17.2476C13.3477 17.2356 13.0138 17.1128 12.7417 16.8973L11.8102 18.073ZM13.6425 18.7467L13.5905 20.2458C14.5777 20.2801 15.5499 19.9974 16.3648 19.4391L15.517 18.2016L14.6693 16.9642C14.383 17.1603 14.0414 17.2597 13.6945 17.2476L13.6425 18.7467ZM15.517 18.2016L16.3648 19.4391C17.1797 18.8808 17.7944 18.0763 18.119 17.1434L16.7023 16.6505L15.2856 16.1576C15.1716 16.4854 14.9556 16.768 14.6693 16.9642L15.517 18.2016ZM16.7023 16.6505L18.119 17.1434C18.4436 16.2104 18.461 15.1981 18.1686 14.2546L16.7358 14.6986L15.303 15.1426C15.4058 15.4741 15.3997 15.8298 15.2856 16.1576L16.7023 16.6505ZM16.7358 14.6986L18.1686 14.2546C17.8762 13.311 17.2894 12.4859 16.4942 11.9L15.6044 13.1077L14.7147 14.3153C14.9941 14.5212 15.2003 14.8111 15.303 15.1426L16.7358 14.6986ZM15.6044 13.1077L16.4942 11.9C15.6989 11.3141 14.7369 10.9982 13.7491 10.9986L13.7497 12.4986L13.7503 13.9986C14.0973 13.9985 14.4353 14.1095 14.7147 14.3153L15.6044 13.1077ZM13.7497 2.4986V3.9986C13.8239 3.9986 13.8964 4.02059 13.958 4.0618L14.7914 2.81459L15.6247 1.56739C15.0697 1.19654 14.4172 0.998596 13.7497 0.998596L13.7497 2.4986ZM14.7914 2.81459L13.958 4.0618C14.0197 4.103 14.0678 4.16157 14.0962 4.23009L15.482 3.65606L16.8678 3.08204C16.6123 2.46534 16.1798 1.93824 15.6247 1.56739L14.7914 2.81459ZM15.482 3.65606L14.0962 4.23009C14.1245 4.29861 14.132 4.37401 14.1175 4.44675L15.5887 4.73939L17.0599 5.03203C17.1901 4.37734 17.1232 3.69874 16.8678 3.08204L15.482 3.65606ZM15.5887 4.73939L14.1175 4.44675C14.103 4.5195 14.0673 4.58632 14.0149 4.63876L15.0755 5.69942L16.1362 6.76008C16.6082 6.28808 16.9296 5.68671 17.0599 5.03203L15.5887 4.73939ZM15.0755 5.69942L14.0149 4.63876C13.9624 4.69121 13.8956 4.72692 13.8229 4.74139L14.1155 6.21257L14.4081 7.68375C15.0628 7.55352 15.6642 7.23208 16.1362 6.76008L15.0755 5.69942ZM14.1155 6.21257L13.8229 4.74139C13.7501 4.75586 13.6747 4.74843 13.6062 4.72005L13.0322 6.10587L12.4581 7.49169C13.0748 7.74714 13.7534 7.81397 14.4081 7.68375L14.1155 6.21257ZM13.0322 6.10587L13.6062 4.72005C13.5377 4.69167 13.4791 4.6436 13.4379 4.58193L12.1907 5.41529L10.9435 6.24865C11.3143 6.80366 11.8414 7.23624 12.4581 7.49169L13.0322 6.10587ZM12.1907 5.41529L13.4379 4.58193C13.3967 4.52027 13.3747 4.44777 13.3747 4.3736H11.8747H10.3747C10.3747 5.04111 10.5726 5.69363 10.9435 6.24865L12.1907 5.41529ZM11.8747 4.3736H13.3747C13.3747 4.27414 13.4142 4.17876 13.4845 4.10843L12.4239 3.04777L11.3632 1.98711C10.7303 2.62005 10.3747 3.47849 10.3747 4.3736H11.8747ZM12.4239 3.04777L13.4845 4.10843C13.5549 4.03811 13.6502 3.9986 13.7497 3.9986V2.4986V0.998596C12.8546 0.998596 11.9962 1.35418 11.3632 1.98711L12.4239 3.04777ZM4.9997 11.8736V10.3736C4.92553 10.3736 4.85303 10.3516 4.79136 10.3104L3.95801 11.5576L3.12465 12.8048C3.67967 13.1757 4.33219 13.3736 4.9997 13.3736V11.8736ZM3.95801 11.5576L4.79136 10.3104C4.72969 10.2692 4.68163 10.2106 4.65324 10.1421L3.26743 10.7161L1.88161 11.2902C2.13705 11.9069 2.56963 12.434 3.12465 12.8048L3.95801 11.5576ZM3.26743 10.7161L4.65324 10.1421C4.62486 10.0736 4.61744 9.99818 4.63191 9.92544L3.16073 9.6328L1.68955 9.34017C1.55932 9.99485 1.62616 10.6735 1.88161 11.2902L3.26743 10.7161ZM3.16073 9.6328L4.63191 9.92544C4.64637 9.85269 4.68209 9.78588 4.73453 9.73343L3.67387 8.67277L2.61321 7.61211C2.14121 8.08411 1.81977 8.68548 1.68955 9.34017L3.16073 9.6328ZM3.67387 8.67277L4.73453 9.73343C4.78698 9.68099 4.8538 9.64527 4.92654 9.6308L4.63391 8.15962L4.34127 6.68845C3.68658 6.81867 3.08522 7.14011 2.61321 7.61211L3.67387 8.67277ZM4.63391 8.15962L4.92654 9.6308C4.99928 9.61633 5.07468 9.62376 5.14321 9.65214L5.71723 8.26632L6.29126 6.8805C5.67456 6.62506 4.99596 6.55822 4.34127 6.68845L4.63391 8.15962ZM5.71723 8.26632L5.14321 9.65214C5.21173 9.68052 5.27029 9.72859 5.3115 9.79026L6.5587 8.9569L7.80591 8.12355C7.43506 7.56853 6.90796 7.13595 6.29126 6.8805L5.71723 8.26632ZM6.5587 8.9569L5.3115 9.79026C5.35271 9.85193 5.3747 9.92443 5.3747 9.9986H6.8747H8.3747C8.3747 9.33108 8.17676 8.67856 7.80591 8.12355L6.5587 8.9569ZM6.8747 9.9986H5.3747C5.3747 10.0981 5.33519 10.1934 5.26486 10.2638L6.32552 11.3244L7.38619 12.3851C8.01912 11.7521 8.3747 10.8937 8.3747 9.9986H6.8747ZM6.32552 11.3244L5.26486 10.2638C5.19454 10.3341 5.09916 10.3736 4.9997 10.3736L4.9997 11.8736V13.3736C5.8948 13.3736 6.75325 13.018 7.38619 12.3851L6.32552 11.3244ZM13.7497 17.4986V15.9986C13.6755 15.9986 13.603 15.9766 13.5414 15.9354L12.708 17.1826L11.8747 18.4298C12.4297 18.8007 13.0822 18.9986 13.7497 18.9986L13.7497 17.4986ZM12.708 17.1826L13.5414 15.9354C13.4797 15.8942 13.4316 15.8356 13.4032 15.7671L12.0174 16.3411L10.6316 16.9152C10.8871 17.5319 11.3196 18.059 11.8747 18.4298L12.708 17.1826ZM12.0174 16.3411L13.4032 15.7671C13.3749 15.6986 13.3674 15.6232 13.3819 15.5504L11.9107 15.2578L10.4395 14.9652C10.3093 15.6199 10.3762 16.2985 10.6316 16.9152L12.0174 16.3411ZM11.9107 15.2578L13.3819 15.5504C13.3964 15.4777 13.4321 15.4109 13.4845 15.3584L12.4239 14.2978L11.3632 13.2371C10.8912 13.7091 10.5698 14.3105 10.4395 14.9652L11.9107 15.2578ZM12.4239 14.2978L13.4845 15.3584C13.537 15.306 13.6038 15.2703 13.6765 15.2558L13.3839 13.7846L13.0913 12.3134C12.4366 12.4437 11.8352 12.7651 11.3632 13.2371L12.4239 14.2978ZM13.3839 13.7846L13.6765 15.2558C13.7493 15.2413 13.8247 15.2488 13.8932 15.2771L14.4672 13.8913L15.0413 12.5055C14.4246 12.2501 13.746 12.1832 13.0913 12.3134L13.3839 13.7846ZM14.4672 13.8913L13.8932 15.2771C13.9617 15.3055 14.0203 15.3536 14.0615 15.4153L15.3087 14.5819L16.5559 13.7485C16.1851 13.1935 15.658 12.7609 15.0413 12.5055L14.4672 13.8913ZM15.3087 14.5819L14.0615 15.4153C14.1027 15.4769 14.1247 15.5494 14.1247 15.6236H15.6247H17.1247C17.1247 14.9561 16.9268 14.3036 16.5559 13.7485L15.3087 14.5819ZM15.6247 15.6236H14.1247C14.1247 15.7231 14.0852 15.8184 14.0149 15.8888L15.0755 16.9494L16.1362 18.0101C16.7691 17.3771 17.1247 16.5187 17.1247 15.6236H15.6247ZM15.0755 16.9494L14.0149 15.8888C13.9445 15.9591 13.8492 15.9986 13.7497 15.9986L13.7497 17.4986V18.9986C14.6448 18.9986 15.5033 18.643 16.1362 18.0101L15.0755 16.9494Z" fill="#878787" mask="url(#path-1-inside-1_4586_39256)"/>
</svg>
