<svg width="20" height="20" viewBox="0 0 20 20" fill="none" xmlns="http://www.w3.org/2000/svg">
<mask id="path-1-inside-1_4586_39217" fill="white">
<path d="M16.25 3.125H3.75C3.41848 3.125 3.10054 3.2567 2.86612 3.49112C2.6317 3.72554 2.5 4.04348 2.5 4.375V8.75C2.5 12.8687 4.49375 15.3648 6.16641 16.7336C7.96797 18.207 9.76016 18.7078 9.83828 18.7281C9.9457 18.7573 10.059 18.7573 10.1664 18.7281C10.2445 18.7078 12.0344 18.207 13.8383 16.7336C15.5063 15.3648 17.5 12.8687 17.5 8.75V4.375C17.5 4.04348 17.3683 3.72554 17.1339 3.49112C16.8995 3.2567 16.5815 3.125 16.25 3.125ZM16.25 8.75C16.25 11.6461 15.1828 13.9969 13.0781 15.7359C12.1619 16.4904 11.12 17.0775 10 17.4703C8.89469 17.0843 7.86558 16.5077 6.95938 15.7664C4.82969 14.0242 3.75 11.6641 3.75 8.75V4.375H16.25V8.75Z"/>
</mask>
<path d="M16.25 3.125H3.75C3.41848 3.125 3.10054 3.2567 2.86612 3.49112C2.6317 3.72554 2.5 4.04348 2.5 4.375V8.75C2.5 12.8687 4.49375 15.3648 6.16641 16.7336C7.96797 18.207 9.76016 18.7078 9.83828 18.7281C9.9457 18.7573 10.059 18.7573 10.1664 18.7281C10.2445 18.7078 12.0344 18.207 13.8383 16.7336C15.5063 15.3648 17.5 12.8687 17.5 8.75V4.375C17.5 4.04348 17.3683 3.72554 17.1339 3.49112C16.8995 3.2567 16.5815 3.125 16.25 3.125ZM16.25 8.75C16.25 11.6461 15.1828 13.9969 13.0781 15.7359C12.1619 16.4904 11.12 17.0775 10 17.4703C8.89469 17.0843 7.86558 16.5077 6.95938 15.7664C4.82969 14.0242 3.75 11.6641 3.75 8.75V4.375H16.25V8.75Z" fill="#878787"/>
<path d="M16.25 3.125V1.625V3.125ZM3.75 3.125V1.625V3.125ZM2.5 4.375H1H2.5ZM6.16641 16.7336L5.21646 17.8945L5.21677 17.8947L6.16641 16.7336ZM9.83828 18.7281L10.232 17.2807L10.2239 17.2785L10.2157 17.2764L9.83828 18.7281ZM10.1664 18.7281L9.78896 17.2764L9.78079 17.2785L9.77266 17.2807L10.1664 18.7281ZM13.8383 16.7336L14.7872 17.8953L14.7898 17.8931L13.8383 16.7336ZM13.0781 15.7359L14.0317 16.8939L14.0336 16.8923L13.0781 15.7359ZM10 17.4703L9.5055 18.8865L10.0011 19.0595L10.4965 18.8858L10 17.4703ZM6.95938 15.7664L6.00961 16.9274L6.00967 16.9275L6.95938 15.7664ZM3.75 4.375V2.875H2.25V4.375H3.75ZM16.25 4.375H17.75V2.875H16.25V4.375ZM16.25 3.125V1.625H3.75V3.125V4.625H16.25V3.125ZM3.75 3.125V1.625C3.02065 1.625 2.32118 1.91473 1.80546 2.43046L2.86612 3.49112L3.92678 4.55178C3.87989 4.59866 3.8163 4.625 3.75 4.625V3.125ZM2.86612 3.49112L1.80546 2.43046C1.28973 2.94618 1 3.64565 1 4.375H2.5H4C4 4.4413 3.97366 4.50489 3.92678 4.55178L2.86612 3.49112ZM2.5 4.375H1V8.75H2.5H4V4.375H2.5ZM2.5 8.75H1C1 13.4287 3.29093 16.3188 5.21646 17.8945L6.16641 16.7336L7.11635 15.5727C5.69657 14.4109 4 12.3088 4 8.75H2.5ZM6.16641 16.7336L5.21677 17.8947C7.24546 19.5539 9.26339 20.1285 9.46083 20.1799L9.83828 18.7281L10.2157 17.2764C10.2569 17.2871 8.69048 16.8602 7.11604 15.5725L6.16641 16.7336ZM9.83828 18.7281L9.44453 20.1755C9.80977 20.2749 10.1949 20.2749 10.5602 20.1755L10.1664 18.7281L9.77266 17.2807C9.92305 17.2398 10.0816 17.2398 10.232 17.2807L9.83828 18.7281ZM10.1664 18.7281L10.5439 20.1799C10.7421 20.1283 12.7569 19.5536 14.7872 17.8953L13.8383 16.7336L12.8894 15.5719C11.3118 16.8604 9.74695 17.2873 9.78896 17.2764L10.1664 18.7281ZM13.8383 16.7336L14.7898 17.8931C16.7092 16.3181 19 13.4286 19 8.75H17.5H16C16 12.3089 14.3033 14.4116 12.8867 15.574L13.8383 16.7336ZM17.5 8.75H19V4.375H17.5H16V8.75H17.5ZM17.5 4.375H19C19 3.64565 18.7103 2.94618 18.1945 2.43046L17.1339 3.49112L16.0732 4.55178C16.0263 4.50489 16 4.4413 16 4.375H17.5ZM17.1339 3.49112L18.1945 2.43046C17.6788 1.91473 16.9793 1.625 16.25 1.625V3.125V4.625C16.1837 4.625 16.1201 4.59866 16.0732 4.55178L17.1339 3.49112ZM16.25 8.75H14.75C14.75 11.23 13.8591 13.1448 12.1227 14.5796L13.0781 15.7359L14.0336 16.8923C16.5065 14.8489 17.75 12.0622 17.75 8.75H16.25ZM13.0781 15.7359L12.1246 14.578C11.3445 15.2204 10.4572 15.7204 9.50355 16.0548L10 17.4703L10.4965 18.8858C11.7827 18.4346 12.9794 17.7604 14.0317 16.8939L13.0781 15.7359ZM10 17.4703L10.4945 16.0542C9.55467 15.726 8.67963 15.2356 7.90908 14.6053L6.95938 15.7664L6.00967 16.9275C7.05154 17.7797 8.23472 18.4427 9.5055 18.8865L10 17.4703ZM6.95938 15.7664L7.90914 14.6054C6.15061 13.1668 5.25 11.2446 5.25 8.75H3.75H2.25C2.25 12.0836 3.50876 14.8816 6.00961 16.9274L6.95938 15.7664ZM3.75 8.75H5.25V4.375H3.75H2.25V8.75H3.75ZM3.75 4.375V5.875H16.25V4.375V2.875H3.75V4.375ZM16.25 4.375H14.75V8.75H16.25H17.75V4.375H16.25Z" fill="#878787" mask="url(#path-1-inside-1_4586_39217)"/>
</svg>
