<svg width="179" height="160" viewBox="0 0 179 160" fill="none" xmlns="http://www.w3.org/2000/svg">
<path fill-rule="evenodd" clip-rule="evenodd" d="M89.549 17.082C107.474 17.082 122.004 31.6121 122.004 49.5373C122.004 67.4625 107.474 81.9926 89.549 81.9926C71.6238 81.9926 57.0938 67.4625 57.0938 49.5373C57.0938 31.6121 71.6238 17.082 89.549 17.082Z" fill="url(#paint0_linear_4295_28192)"/>
<path opacity="0.15" d="M106.763 35.0156H109.197C98.834 46.5712 90.8003 56.0996 83.6058 70.0332C79.8604 61.9931 76.5226 56.4428 69.0547 51.2966L71.8431 50.6637C77.4238 55.2481 80.3629 60.3434 83.6058 67.307C90.2269 54.483 97.5594 45.3905 106.763 35.0156Z" fill="#212121"/>
<path d="M77.2416 46.8768C79.7313 48.3167 81.3502 49.5139 83.2805 51.649C88.284 43.5622 93.7153 39.081 100.778 32.7213L101.468 32.4531H109.197C98.834 44.0096 90.8003 53.5376 83.6058 67.4707C79.8604 59.4309 76.5226 53.8808 69.0547 48.7336L77.2416 46.8768Z" fill="white"/>
<path opacity="0.8" fill-rule="evenodd" clip-rule="evenodd" d="M47.127 20.0858H46.8056C46.8056 17.4449 45.8185 15.1391 43.8509 13.165C41.8833 11.1942 39.578 10.2055 36.9414 10.2055V9.88358C39.578 9.88358 41.8833 8.8949 43.8509 6.92081C45.8185 4.94015 46.8056 2.63102 46.8056 0H47.127C47.127 2.64088 48.1141 4.95 50.0817 6.92081C52.0493 8.89161 54.3547 9.8803 56.9913 9.8803V10.2022C54.3547 10.2022 52.0493 11.1909 50.0817 13.1617C48.1141 15.1391 47.127 17.4449 47.127 20.0858ZM41.2668 32.1767H41.1192C41.1192 30.9679 40.6667 29.907 39.7616 29.0037C38.8598 28.1004 37.8005 27.6438 36.5938 27.6438V27.496C37.8005 27.496 38.8598 27.0427 39.7616 26.1362C40.6634 25.2296 41.1192 24.1719 41.1192 22.9664H41.2668C41.2668 24.1752 41.7194 25.2362 42.6245 26.1394C43.5263 27.0427 44.5822 27.4993 45.7923 27.4993V27.6471C44.5855 27.6471 43.5263 28.1004 42.6245 29.007C41.7161 29.907 41.2668 30.9679 41.2668 32.1767Z" fill="#F59600"/>
<path opacity="0.8" fill-rule="evenodd" clip-rule="evenodd" d="M131.865 82.1252H132.187C132.187 84.766 133.174 87.0719 135.141 89.046C137.109 91.0168 139.414 92.0055 142.051 92.0055V92.3274C139.414 92.3274 137.109 93.316 135.141 95.2901C133.174 97.2708 132.187 99.5799 132.187 102.211H131.865C131.865 99.5701 130.878 97.2609 128.91 95.2901C126.943 93.3193 124.638 92.3306 122.001 92.3306V92.0087C124.638 92.0087 126.943 91.0201 128.91 89.0492C130.878 87.0719 131.865 84.766 131.865 82.1252ZM137.725 70.0343H137.873C137.873 71.243 138.325 72.304 139.231 73.2073C140.132 74.1105 141.192 74.5671 142.398 74.5671V74.7149C141.192 74.7149 140.132 75.1682 139.231 76.0748C138.329 76.9814 137.873 78.039 137.873 79.2445H137.725C137.725 78.0357 137.273 76.9748 136.368 76.0715C135.466 75.1682 134.41 74.7116 133.2 74.7116V74.5638C134.407 74.5638 135.466 74.1105 136.368 73.204C137.276 72.304 137.725 71.243 137.725 70.0343Z" fill="#F59600"/>
<path d="M10.0082 128.435H6.23219V138.211H4.42419V128.435H0.632189V126.851H10.0082V128.435ZM18.9116 138.211H17.1516V133.523C17.1516 132.766 17.0129 132.2 16.7356 131.827C16.4582 131.454 16.0689 131.267 15.5676 131.267C15.2582 131.267 14.9382 131.352 14.6076 131.523C14.2769 131.694 13.9836 131.928 13.7276 132.227C13.4716 132.515 13.2849 132.851 13.1676 133.235V138.211H11.4076V126.531H13.1676V131.523C13.4876 130.958 13.9249 130.515 14.4796 130.195C15.0342 129.864 15.6316 129.699 16.2716 129.699C16.7942 129.699 17.2262 129.79 17.5676 129.971C17.9089 130.152 18.1756 130.403 18.3676 130.723C18.5702 131.032 18.7089 131.395 18.7836 131.811C18.8689 132.216 18.9116 132.648 18.9116 133.107V138.211ZM20.4464 135.763C20.4464 135.23 20.5958 134.766 20.8944 134.371C21.2038 133.966 21.6251 133.656 22.1584 133.443C22.6918 133.219 23.3104 133.107 24.0144 133.107C24.3878 133.107 24.7664 133.134 25.1504 133.187C25.5451 133.24 25.8918 133.326 26.1904 133.443V132.915C26.1904 132.328 26.0144 131.87 25.6624 131.539C25.3104 131.208 24.8038 131.043 24.1424 131.043C23.6731 131.043 23.2304 131.128 22.8144 131.299C22.3984 131.459 21.9558 131.688 21.4864 131.987L20.8944 130.803C21.4491 130.43 22.0038 130.152 22.5584 129.971C23.1238 129.79 23.7158 129.699 24.3344 129.699C25.4544 129.699 26.3344 129.998 26.9744 130.595C27.6251 131.182 27.9504 132.019 27.9504 133.107V136.227C27.9504 136.43 27.9824 136.574 28.0464 136.659C28.1211 136.744 28.2438 136.792 28.4144 136.803V138.211C28.2544 138.243 28.1104 138.264 27.9824 138.275C27.8544 138.286 27.7478 138.291 27.6624 138.291C27.2891 138.291 27.0064 138.2 26.8144 138.019C26.6224 137.838 26.5104 137.624 26.4784 137.379L26.4304 136.899C26.0678 137.368 25.6038 137.731 25.0384 137.987C24.4731 138.243 23.9024 138.371 23.3264 138.371C22.7718 138.371 22.2758 138.259 21.8384 138.035C21.4011 137.8 21.0598 137.486 20.8144 137.091C20.5691 136.696 20.4464 136.254 20.4464 135.763ZM25.7744 136.275C25.9024 136.136 26.0038 135.998 26.0784 135.859C26.1531 135.72 26.1904 135.598 26.1904 135.491V134.531C25.8918 134.414 25.5771 134.328 25.2464 134.275C24.9158 134.211 24.5904 134.179 24.2704 134.179C23.6304 134.179 23.1078 134.307 22.7024 134.563C22.3078 134.819 22.1104 135.171 22.1104 135.619C22.1104 135.864 22.1744 136.099 22.3024 136.323C22.4411 136.547 22.6331 136.728 22.8784 136.867C23.1344 137.006 23.4491 137.075 23.8224 137.075C24.2064 137.075 24.5744 137 24.9264 136.851C25.2784 136.702 25.5611 136.51 25.7744 136.275ZM37.6897 138.211H35.9297V133.523C35.9297 132.744 35.8017 132.174 35.5457 131.811C35.3004 131.448 34.9324 131.267 34.4417 131.267C34.1004 131.267 33.759 131.352 33.4177 131.523C33.087 131.694 32.7884 131.928 32.5217 132.227C32.255 132.515 32.063 132.851 31.9457 133.235V138.211H30.1857V129.843H31.7857V131.523C31.999 131.15 32.2764 130.83 32.6177 130.563C32.9697 130.286 33.3644 130.072 33.8017 129.923C34.239 129.774 34.703 129.699 35.1937 129.699C35.695 129.699 36.1057 129.79 36.4257 129.971C36.7564 130.152 37.0124 130.403 37.1937 130.723C37.3857 131.032 37.5137 131.395 37.5777 131.811C37.6524 132.216 37.6897 132.648 37.6897 133.107V138.211ZM45.6566 138.211L42.9686 134.355L41.5926 135.667V138.211H39.8326V126.531H41.5926V133.891L45.4646 129.859H47.3526L44.1046 133.363L47.5286 138.211H45.6566ZM52.6018 140.179C52.7618 140.2 52.9165 140.222 53.0658 140.243C53.2258 140.275 53.3538 140.291 53.4498 140.291C53.6311 140.291 53.7858 140.232 53.9138 140.115C54.0525 140.008 54.1911 139.806 54.3298 139.507C54.4685 139.208 54.6391 138.776 54.8418 138.211L51.4018 129.843H53.2418L55.8018 136.419L58.0738 129.843H59.7698L55.9778 140.147C55.8605 140.456 55.6898 140.739 55.4658 140.995C55.2418 141.262 54.9645 141.47 54.6338 141.619C54.3031 141.768 53.9138 141.843 53.4658 141.843C53.3378 141.843 53.2045 141.832 53.0658 141.811C52.9271 141.79 52.7725 141.758 52.6018 141.715V140.179ZM64.6426 138.371C63.9812 138.371 63.3892 138.259 62.8666 138.035C62.3439 137.8 61.8906 137.48 61.5066 137.075C61.1332 136.67 60.8452 136.211 60.6426 135.699C60.4399 135.176 60.3386 134.622 60.3386 134.035C60.3386 133.448 60.4399 132.894 60.6426 132.371C60.8452 131.848 61.1332 131.39 61.5066 130.995C61.8906 130.59 62.3439 130.275 62.8666 130.051C63.3999 129.816 63.9919 129.699 64.6426 129.699C65.2932 129.699 65.8799 129.816 66.4026 130.051C66.9359 130.275 67.3892 130.59 67.7626 130.995C68.1466 131.39 68.4399 131.848 68.6426 132.371C68.8452 132.894 68.9466 133.448 68.9466 134.035C68.9466 134.622 68.8452 135.176 68.6426 135.699C68.4399 136.211 68.1466 136.67 67.7626 137.075C67.3892 137.48 66.9359 137.8 66.4026 138.035C65.8799 138.259 65.2932 138.371 64.6426 138.371ZM62.1466 134.051C62.1466 134.584 62.2586 135.064 62.4826 135.491C62.7066 135.918 63.0052 136.254 63.3786 136.499C63.7519 136.744 64.1732 136.867 64.6426 136.867C65.1012 136.867 65.5172 136.744 65.8906 136.499C66.2746 136.243 66.5786 135.902 66.8026 135.475C67.0266 135.038 67.1386 134.558 67.1386 134.035C67.1386 133.502 67.0266 133.022 66.8026 132.595C66.5786 132.168 66.2746 131.832 65.8906 131.587C65.5172 131.331 65.1012 131.203 64.6426 131.203C64.1732 131.203 63.7519 131.331 63.3786 131.587C63.0052 131.843 62.7066 132.184 62.4826 132.611C62.2586 133.027 62.1466 133.507 62.1466 134.051ZM70.5276 134.963V129.843H72.2876V134.611C72.2876 135.358 72.4209 135.923 72.6876 136.307C72.9649 136.68 73.3649 136.867 73.8876 136.867C74.2182 136.867 74.5382 136.798 74.8476 136.659C75.1676 136.52 75.4556 136.318 75.7116 136.051C75.9782 135.774 76.1916 135.443 76.3516 135.059V129.843H78.1116V136.227C78.1116 136.43 78.1489 136.574 78.2236 136.659C78.2982 136.744 78.4209 136.792 78.5916 136.803V138.211C78.4102 138.243 78.2609 138.264 78.1436 138.275C78.0262 138.286 77.9142 138.291 77.8076 138.291C77.4876 138.291 77.2209 138.206 77.0076 138.035C76.7942 137.854 76.6716 137.624 76.6396 137.347L76.6076 136.515C76.2342 137.123 75.7489 137.587 75.1516 137.907C74.5542 138.216 73.8982 138.371 73.1836 138.371C72.3089 138.371 71.6476 138.083 71.1996 137.507C70.7516 136.931 70.5276 136.083 70.5276 134.963ZM84.9907 138.211V131.411H83.8707V130.051H84.9907V129.715C84.9907 129.032 85.0974 128.44 85.3107 127.939C85.5347 127.438 85.844 127.054 86.2387 126.787C86.644 126.51 87.1187 126.371 87.6627 126.371C88.004 126.371 88.34 126.419 88.6707 126.515C89.0014 126.6 89.316 126.723 89.6147 126.883L89.2307 128.195C89.0707 128.088 88.8787 128.008 88.6547 127.955C88.4414 127.891 88.2334 127.859 88.0307 127.859C87.6254 127.859 87.3107 128.014 87.0867 128.323C86.8627 128.632 86.7507 129.08 86.7507 129.667V130.051H88.8947V131.411H86.7507V138.211H84.9907ZM93.9176 138.371C93.2562 138.371 92.6642 138.259 92.1416 138.035C91.6189 137.8 91.1656 137.48 90.7816 137.075C90.4082 136.67 90.1202 136.211 89.9176 135.699C89.7149 135.176 89.6136 134.622 89.6136 134.035C89.6136 133.448 89.7149 132.894 89.9176 132.371C90.1202 131.848 90.4082 131.39 90.7816 130.995C91.1656 130.59 91.6189 130.275 92.1416 130.051C92.6749 129.816 93.2669 129.699 93.9176 129.699C94.5682 129.699 95.1549 129.816 95.6776 130.051C96.2109 130.275 96.6642 130.59 97.0376 130.995C97.4216 131.39 97.7149 131.848 97.9176 132.371C98.1202 132.894 98.2216 133.448 98.2216 134.035C98.2216 134.622 98.1202 135.176 97.9176 135.699C97.7149 136.211 97.4216 136.67 97.0376 137.075C96.6642 137.48 96.2109 137.8 95.6776 138.035C95.1549 138.259 94.5682 138.371 93.9176 138.371ZM91.4216 134.051C91.4216 134.584 91.5336 135.064 91.7576 135.491C91.9816 135.918 92.2802 136.254 92.6536 136.499C93.0269 136.744 93.4482 136.867 93.9176 136.867C94.3762 136.867 94.7922 136.744 95.1656 136.499C95.5496 136.243 95.8536 135.902 96.0776 135.475C96.3016 135.038 96.4136 134.558 96.4136 134.035C96.4136 133.502 96.3016 133.022 96.0776 132.595C95.8536 132.168 95.5496 131.832 95.1656 131.587C94.7922 131.331 94.3762 131.203 93.9176 131.203C93.4482 131.203 93.0269 131.331 92.6536 131.587C92.2802 131.843 91.9816 132.184 91.7576 132.611C91.5336 133.027 91.4216 133.507 91.4216 134.051ZM104.587 131.363C103.904 131.374 103.296 131.528 102.763 131.827C102.24 132.126 101.867 132.547 101.643 133.091V138.211H99.8826V129.843H101.515V131.715C101.803 131.139 102.181 130.68 102.651 130.339C103.12 129.987 103.616 129.795 104.139 129.763C104.245 129.763 104.331 129.763 104.395 129.763C104.469 129.763 104.533 129.768 104.587 129.779V131.363ZM113.421 138.371C112.759 138.371 112.167 138.259 111.645 138.035C111.122 137.8 110.669 137.48 110.285 137.075C109.911 136.67 109.623 136.211 109.421 135.699C109.218 135.176 109.117 134.622 109.117 134.035C109.117 133.448 109.218 132.894 109.421 132.371C109.623 131.848 109.911 131.39 110.285 130.995C110.669 130.59 111.122 130.275 111.645 130.051C112.178 129.816 112.77 129.699 113.421 129.699C114.071 129.699 114.658 129.816 115.181 130.051C115.714 130.275 116.167 130.59 116.541 130.995C116.925 131.39 117.218 131.848 117.421 132.371C117.623 132.894 117.725 133.448 117.725 134.035C117.725 134.622 117.623 135.176 117.421 135.699C117.218 136.211 116.925 136.67 116.541 137.075C116.167 137.48 115.714 137.8 115.181 138.035C114.658 138.259 114.071 138.371 113.421 138.371ZM110.925 134.051C110.925 134.584 111.037 135.064 111.261 135.491C111.485 135.918 111.783 136.254 112.157 136.499C112.53 136.744 112.951 136.867 113.421 136.867C113.879 136.867 114.295 136.744 114.669 136.499C115.053 136.243 115.357 135.902 115.581 135.475C115.805 135.038 115.917 134.558 115.917 134.035C115.917 133.502 115.805 133.022 115.581 132.595C115.357 132.168 115.053 131.832 114.669 131.587C114.295 131.331 113.879 131.203 113.421 131.203C112.951 131.203 112.53 131.331 112.157 131.587C111.783 131.843 111.485 132.184 111.261 132.611C111.037 133.027 110.925 133.507 110.925 134.051ZM124.09 131.363C123.407 131.374 122.799 131.528 122.266 131.827C121.743 132.126 121.37 132.547 121.146 133.091V138.211H119.386V129.843H121.018V131.715C121.306 131.139 121.684 130.68 122.154 130.339C122.623 129.987 123.119 129.795 123.642 129.763C123.748 129.763 123.834 129.763 123.898 129.763C123.972 129.763 124.036 129.768 124.09 129.779V131.363ZM124.817 134.035C124.817 133.235 124.977 132.51 125.297 131.859C125.628 131.198 126.076 130.675 126.641 130.291C127.206 129.896 127.857 129.699 128.593 129.699C129.233 129.699 129.809 129.864 130.321 130.195C130.844 130.526 131.249 130.936 131.537 131.427V126.531H133.297V136.227C133.297 136.43 133.334 136.574 133.409 136.659C133.484 136.744 133.606 136.792 133.777 136.803V138.211C133.446 138.264 133.19 138.291 133.009 138.291C132.678 138.291 132.396 138.195 132.161 138.003C131.937 137.811 131.82 137.582 131.809 137.315L131.793 136.691C131.473 137.224 131.041 137.64 130.497 137.939C129.953 138.227 129.388 138.371 128.801 138.371C128.225 138.371 127.692 138.259 127.201 138.035C126.721 137.811 126.3 137.496 125.937 137.091C125.585 136.686 125.308 136.222 125.105 135.699C124.913 135.176 124.817 134.622 124.817 134.035ZM131.537 135.203V133.011C131.42 132.67 131.228 132.366 130.961 132.099C130.705 131.822 130.412 131.603 130.081 131.443C129.761 131.283 129.441 131.203 129.121 131.203C128.748 131.203 128.406 131.283 128.097 131.443C127.798 131.603 127.537 131.816 127.313 132.083C127.1 132.35 126.934 132.654 126.817 132.995C126.7 133.336 126.641 133.694 126.641 134.067C126.641 134.451 126.705 134.814 126.833 135.155C126.961 135.486 127.142 135.784 127.377 136.051C127.622 136.307 127.9 136.51 128.209 136.659C128.529 136.798 128.876 136.867 129.249 136.867C129.484 136.867 129.718 136.824 129.953 136.739C130.198 136.654 130.428 136.536 130.641 136.387C130.865 136.238 131.052 136.062 131.201 135.859C131.361 135.656 131.473 135.438 131.537 135.203ZM139.425 138.371C138.774 138.371 138.182 138.259 137.649 138.035C137.126 137.8 136.673 137.486 136.289 137.091C135.905 136.686 135.606 136.227 135.393 135.715C135.19 135.192 135.089 134.638 135.089 134.051C135.089 133.262 135.27 132.542 135.633 131.891C135.995 131.23 136.502 130.702 137.153 130.307C137.803 129.902 138.566 129.699 139.441 129.699C140.315 129.699 141.067 129.902 141.697 130.307C142.337 130.702 142.833 131.224 143.185 131.875C143.537 132.526 143.713 133.224 143.713 133.971C143.713 134.099 143.707 134.222 143.697 134.339C143.686 134.446 143.675 134.536 143.665 134.611H136.961C136.993 135.102 137.126 135.534 137.361 135.907C137.606 136.27 137.915 136.558 138.289 136.771C138.662 136.974 139.062 137.075 139.489 137.075C139.958 137.075 140.401 136.958 140.817 136.723C141.243 136.488 141.531 136.179 141.681 135.795L143.185 136.227C143.003 136.632 142.726 137 142.353 137.331C141.99 137.651 141.558 137.907 141.057 138.099C140.555 138.28 140.011 138.371 139.425 138.371ZM136.913 133.443H141.969C141.937 132.963 141.798 132.542 141.553 132.179C141.318 131.806 141.014 131.518 140.641 131.315C140.278 131.102 139.873 130.995 139.425 130.995C138.987 130.995 138.582 131.102 138.209 131.315C137.846 131.518 137.547 131.806 137.313 132.179C137.078 132.542 136.945 132.963 136.913 133.443ZM149.952 131.363C149.27 131.374 148.662 131.528 148.128 131.827C147.606 132.126 147.232 132.547 147.008 133.091V138.211H145.248V129.843H146.88V131.715C147.168 131.139 147.547 130.68 148.016 130.339C148.486 129.987 148.982 129.795 149.504 129.763C149.611 129.763 149.696 129.763 149.76 129.763C149.835 129.763 149.899 129.768 149.952 129.779V131.363ZM151.333 138.211V129.843H153.093V138.211H151.333ZM151.333 128.467V126.531H153.093V128.467H151.333ZM162.812 138.211H161.052V133.523C161.052 132.744 160.924 132.174 160.668 131.811C160.422 131.448 160.054 131.267 159.564 131.267C159.222 131.267 158.881 131.352 158.54 131.523C158.209 131.694 157.91 131.928 157.644 132.227C157.377 132.515 157.185 132.851 157.068 133.235V138.211H155.308V129.843H156.908V131.523C157.121 131.15 157.398 130.83 157.74 130.563C158.092 130.286 158.486 130.072 158.924 129.923C159.361 129.774 159.825 129.699 160.316 129.699C160.817 129.699 161.228 129.79 161.548 129.971C161.878 130.152 162.134 130.403 162.316 130.723C162.508 131.032 162.636 131.395 162.7 131.811C162.774 132.216 162.812 132.648 162.812 133.107V138.211ZM168.266 138.291C167.701 138.291 167.184 138.179 166.714 137.955C166.245 137.72 165.84 137.406 165.498 137.011C165.168 136.616 164.906 136.163 164.714 135.651C164.533 135.139 164.442 134.6 164.442 134.035C164.442 133.438 164.538 132.878 164.73 132.355C164.922 131.832 165.189 131.374 165.53 130.979C165.882 130.574 166.293 130.259 166.762 130.035C167.232 129.811 167.754 129.699 168.33 129.699C169.002 129.699 169.589 129.859 170.09 130.179C170.602 130.499 171.024 130.915 171.354 131.427V129.843H172.906V137.971C172.906 138.782 172.709 139.47 172.314 140.035C171.93 140.6 171.402 141.032 170.73 141.331C170.058 141.63 169.301 141.779 168.458 141.779C167.53 141.779 166.762 141.619 166.154 141.299C165.546 140.979 165.029 140.542 164.602 139.987L165.594 139.059C165.914 139.507 166.325 139.848 166.826 140.083C167.338 140.318 167.882 140.435 168.458 140.435C168.938 140.435 169.381 140.344 169.786 140.163C170.202 139.992 170.533 139.72 170.778 139.347C171.024 138.984 171.146 138.526 171.146 137.971V136.691C170.848 137.192 170.437 137.587 169.914 137.875C169.392 138.152 168.842 138.291 168.266 138.291ZM168.842 136.867C169.109 136.867 169.365 136.824 169.61 136.739C169.856 136.643 170.08 136.52 170.282 136.371C170.496 136.211 170.677 136.035 170.826 135.843C170.976 135.64 171.082 135.427 171.146 135.203V133.011C171.008 132.648 170.81 132.334 170.554 132.067C170.298 131.79 170.01 131.576 169.69 131.427C169.37 131.278 169.045 131.203 168.714 131.203C168.33 131.203 167.984 131.288 167.674 131.459C167.376 131.619 167.12 131.838 166.906 132.115C166.693 132.382 166.528 132.686 166.41 133.027C166.293 133.368 166.234 133.72 166.234 134.083C166.234 134.467 166.298 134.824 166.426 135.155C166.565 135.486 166.752 135.784 166.986 136.051C167.221 136.307 167.498 136.51 167.818 136.659C168.138 136.798 168.48 136.867 168.842 136.867ZM175.453 134.163V126.739H177.213V134.163H175.453ZM175.453 138.211V136.019H177.213V138.211H175.453Z" fill="#253B4B"/>
<path d="M33.4779 150.111L35.7979 153.931L38.1379 150.111H38.8979L36.1479 154.571V157.211H35.4479V154.551L32.7079 150.111H33.4779ZM41.3636 157.311C40.9902 157.311 40.6436 157.241 40.3236 157.101C40.0102 156.954 39.7369 156.758 39.5036 156.511C39.2769 156.258 39.1002 155.971 38.9736 155.651C38.8469 155.324 38.7836 154.981 38.7836 154.621C38.7836 154.248 38.8469 153.901 38.9736 153.581C39.1002 153.254 39.2802 152.968 39.5136 152.721C39.7469 152.468 40.0202 152.271 40.3336 152.131C40.6536 151.984 41.0002 151.911 41.3736 151.911C41.7469 151.911 42.0902 151.984 42.4036 152.131C42.7169 152.271 42.9902 152.468 43.2236 152.721C43.4569 152.968 43.6369 153.254 43.7636 153.581C43.8902 153.901 43.9536 154.248 43.9536 154.621C43.9536 154.981 43.8902 155.324 43.7636 155.651C43.6369 155.971 43.4569 156.258 43.2236 156.511C42.9969 156.758 42.7236 156.954 42.4036 157.101C42.0902 157.241 41.7436 157.311 41.3636 157.311ZM39.4736 154.631C39.4736 155.018 39.5569 155.371 39.7236 155.691C39.8969 156.004 40.1269 156.254 40.4136 156.441C40.7002 156.621 41.0169 156.711 41.3636 156.711C41.7102 156.711 42.0269 156.618 42.3136 156.431C42.6002 156.244 42.8302 155.991 43.0036 155.671C43.1769 155.344 43.2636 154.991 43.2636 154.611C43.2636 154.224 43.1769 153.871 43.0036 153.551C42.8302 153.231 42.6002 152.978 42.3136 152.791C42.0269 152.604 41.7102 152.511 41.3636 152.511C41.0169 152.511 40.7002 152.608 40.4136 152.801C40.1336 152.994 39.9069 153.251 39.7336 153.571C39.5602 153.884 39.4736 154.238 39.4736 154.631ZM45.2908 155.061V152.001H45.9708V154.941C45.9708 155.534 46.0708 155.978 46.2708 156.271C46.4775 156.564 46.7808 156.711 47.1808 156.711C47.4475 156.711 47.7042 156.654 47.9508 156.541C48.2042 156.421 48.4275 156.254 48.6208 156.041C48.8142 155.821 48.9608 155.568 49.0608 155.281V152.001H49.7408V156.391C49.7408 156.484 49.7608 156.554 49.8008 156.601C49.8408 156.641 49.9008 156.664 49.9808 156.671V157.211C49.9008 157.218 49.8375 157.221 49.7908 157.221C49.7442 157.228 49.7008 157.231 49.6608 157.231C49.5275 157.218 49.4108 157.164 49.3108 157.071C49.2175 156.978 49.1675 156.864 49.1608 156.731L49.1408 156.031C48.9142 156.431 48.6042 156.744 48.2108 156.971C47.8242 157.198 47.4042 157.311 46.9508 157.311C46.4042 157.311 45.9908 157.121 45.7108 156.741C45.4308 156.361 45.2908 155.801 45.2908 155.061ZM54.1283 152.601C53.675 152.614 53.275 152.741 52.9283 152.981C52.5883 153.221 52.3483 153.551 52.2083 153.971V157.211H51.5283V152.001H52.1683V153.251C52.3483 152.884 52.585 152.588 52.8783 152.361C53.1783 152.134 53.495 152.008 53.8283 151.981C53.895 151.974 53.9517 151.971 53.9983 151.971C54.0517 151.971 54.095 151.974 54.1283 151.981V152.601ZM58.0986 157.211V152.541H57.3786V152.001H58.0986V151.861C58.0986 151.434 58.1586 151.068 58.2786 150.761C58.4053 150.454 58.582 150.221 58.8086 150.061C59.042 149.894 59.3153 149.811 59.6286 149.811C59.8353 149.811 60.0353 149.841 60.2286 149.901C60.422 149.961 60.5886 150.041 60.7286 150.141L60.5186 150.631C60.432 150.558 60.3186 150.501 60.1786 150.461C60.0386 150.421 59.8986 150.401 59.7586 150.401C59.4453 150.401 59.202 150.524 59.0286 150.771C58.862 151.018 58.7786 151.374 58.7786 151.841V152.001H60.2186V152.541H58.7786V157.211H58.0986ZM63.4534 157.311C63.0801 157.311 62.7334 157.241 62.4134 157.101C62.1001 156.954 61.8267 156.758 61.5934 156.511C61.3667 156.258 61.1901 155.971 61.0634 155.651C60.9367 155.324 60.8734 154.981 60.8734 154.621C60.8734 154.248 60.9367 153.901 61.0634 153.581C61.1901 153.254 61.3701 152.968 61.6034 152.721C61.8367 152.468 62.1101 152.271 62.4234 152.131C62.7434 151.984 63.0901 151.911 63.4634 151.911C63.8367 151.911 64.1801 151.984 64.4934 152.131C64.8067 152.271 65.0801 152.468 65.3134 152.721C65.5467 152.968 65.7267 153.254 65.8534 153.581C65.9801 153.901 66.0434 154.248 66.0434 154.621C66.0434 154.981 65.9801 155.324 65.8534 155.651C65.7267 155.971 65.5467 156.258 65.3134 156.511C65.0867 156.758 64.8134 156.954 64.4934 157.101C64.1801 157.241 63.8334 157.311 63.4534 157.311ZM61.5634 154.631C61.5634 155.018 61.6467 155.371 61.8134 155.691C61.9867 156.004 62.2167 156.254 62.5034 156.441C62.7901 156.621 63.1067 156.711 63.4534 156.711C63.8001 156.711 64.1167 156.618 64.4034 156.431C64.6901 156.244 64.9201 155.991 65.0934 155.671C65.2667 155.344 65.3534 154.991 65.3534 154.611C65.3534 154.224 65.2667 153.871 65.0934 153.551C64.9201 153.231 64.6901 152.978 64.4034 152.791C64.1167 152.604 63.8001 152.511 63.4534 152.511C63.1067 152.511 62.7901 152.608 62.5034 152.801C62.2234 152.994 61.9967 153.251 61.8234 153.571C61.6501 153.884 61.5634 154.238 61.5634 154.631ZM69.6507 157.311C69.2773 157.311 68.9307 157.241 68.6107 157.101C68.2973 156.954 68.024 156.758 67.7907 156.511C67.564 156.258 67.3873 155.971 67.2607 155.651C67.134 155.324 67.0707 154.981 67.0707 154.621C67.0707 154.248 67.134 153.901 67.2607 153.581C67.3873 153.254 67.5673 152.968 67.8007 152.721C68.034 152.468 68.3073 152.271 68.6207 152.131C68.9407 151.984 69.2873 151.911 69.6607 151.911C70.034 151.911 70.3773 151.984 70.6907 152.131C71.004 152.271 71.2773 152.468 71.5107 152.721C71.744 152.968 71.924 153.254 72.0507 153.581C72.1773 153.901 72.2407 154.248 72.2407 154.621C72.2407 154.981 72.1773 155.324 72.0507 155.651C71.924 155.971 71.744 156.258 71.5107 156.511C71.284 156.758 71.0107 156.954 70.6907 157.101C70.3773 157.241 70.0307 157.311 69.6507 157.311ZM67.7607 154.631C67.7607 155.018 67.844 155.371 68.0107 155.691C68.184 156.004 68.414 156.254 68.7007 156.441C68.9873 156.621 69.304 156.711 69.6507 156.711C69.9973 156.711 70.314 156.618 70.6007 156.431C70.8873 156.244 71.1173 155.991 71.2907 155.671C71.464 155.344 71.5507 154.991 71.5507 154.611C71.5507 154.224 71.464 153.871 71.2907 153.551C71.1173 153.231 70.8873 152.978 70.6007 152.791C70.314 152.604 69.9973 152.511 69.6507 152.511C69.304 152.511 68.9873 152.608 68.7007 152.801C68.4207 152.994 68.194 153.251 68.0207 153.571C67.8473 153.884 67.7607 154.238 67.7607 154.631ZM73.2779 154.621C73.2779 154.128 73.3779 153.678 73.5779 153.271C73.7846 152.858 74.0679 152.528 74.4279 152.281C74.7879 152.034 75.1979 151.911 75.6579 151.911C76.0913 151.911 76.4779 152.028 76.8179 152.261C77.1646 152.488 77.4346 152.764 77.6279 153.091V149.911H78.3079V156.391C78.3079 156.484 78.3279 156.554 78.3679 156.601C78.4079 156.641 78.4679 156.664 78.5479 156.671V157.211C78.4146 157.231 78.3113 157.238 78.2379 157.231C78.0979 157.224 77.9746 157.168 77.8679 157.061C77.7613 156.954 77.7079 156.838 77.7079 156.711V156.201C77.5013 156.541 77.2213 156.811 76.8679 157.011C76.5146 157.211 76.1479 157.311 75.7679 157.311C75.4079 157.311 75.0746 157.238 74.7679 157.091C74.4679 156.944 74.2046 156.744 73.9779 156.491C73.7579 156.238 73.5846 155.951 73.4579 155.631C73.3379 155.304 73.2779 154.968 73.2779 154.621ZM77.6279 155.421V153.811C77.5413 153.571 77.4013 153.354 77.2079 153.161C77.0146 152.961 76.7946 152.804 76.5479 152.691C76.3079 152.571 76.0679 152.511 75.8279 152.511C75.5479 152.511 75.2946 152.571 75.0679 152.691C74.8413 152.804 74.6446 152.961 74.4779 153.161C74.3179 153.361 74.1946 153.588 74.1079 153.841C74.0213 154.094 73.9779 154.354 73.9779 154.621C73.9779 154.901 74.0246 155.168 74.1179 155.421C74.2179 155.674 74.3579 155.901 74.5379 156.101C74.7179 156.294 74.9246 156.444 75.1579 156.551C75.3913 156.658 75.6446 156.711 75.9179 156.711C76.0913 156.711 76.2713 156.678 76.4579 156.611C76.6446 156.544 76.8213 156.454 76.9879 156.341C77.1613 156.221 77.3046 156.081 77.4179 155.921C77.5313 155.761 77.6013 155.594 77.6279 155.421ZM82.8975 157.211V152.001H83.5775V157.211H82.8975ZM82.8975 150.911V149.911H83.5775V150.911H82.8975ZM87.0352 157.311C86.6085 157.311 86.2119 157.241 85.8452 157.101C85.4785 156.961 85.1619 156.748 84.8952 156.461L85.1752 155.981C85.4685 156.254 85.7619 156.454 86.0552 156.581C86.3552 156.701 86.6719 156.761 87.0052 156.761C87.4119 156.761 87.7419 156.681 87.9952 156.521C88.2485 156.354 88.3752 156.118 88.3752 155.811C88.3752 155.604 88.3119 155.448 88.1852 155.341C88.0652 155.228 87.8885 155.138 87.6552 155.071C87.4285 154.998 87.1552 154.921 86.8352 154.841C86.4752 154.741 86.1719 154.638 85.9252 154.531C85.6852 154.418 85.5019 154.278 85.3752 154.111C85.2552 153.938 85.1952 153.714 85.1952 153.441C85.1952 153.101 85.2785 152.821 85.4452 152.601C85.6185 152.374 85.8519 152.204 86.1452 152.091C86.4452 151.971 86.7785 151.911 87.1452 151.911C87.5452 151.911 87.8985 151.974 88.2052 152.101C88.5119 152.228 88.7619 152.404 88.9552 152.631L88.6252 153.091C88.4385 152.878 88.2152 152.721 87.9552 152.621C87.7019 152.514 87.4185 152.461 87.1052 152.461C86.8919 152.461 86.6885 152.491 86.4952 152.551C86.3019 152.604 86.1419 152.698 86.0152 152.831C85.8952 152.958 85.8352 153.134 85.8352 153.361C85.8352 153.548 85.8819 153.694 85.9752 153.801C86.0685 153.901 86.2085 153.988 86.3952 154.061C86.5819 154.128 86.8119 154.201 87.0852 154.281C87.4785 154.388 87.8219 154.498 88.1152 154.611C88.4085 154.718 88.6352 154.858 88.7952 155.031C88.9552 155.204 89.0352 155.448 89.0352 155.761C89.0352 156.248 88.8519 156.628 88.4852 156.901C88.1185 157.174 87.6352 157.311 87.0352 157.311ZM95.428 157.311C95.0547 157.311 94.708 157.241 94.388 157.101C94.0747 156.954 93.8013 156.758 93.568 156.511C93.3413 156.258 93.1647 155.971 93.038 155.651C92.9113 155.324 92.848 154.981 92.848 154.621C92.848 154.248 92.9113 153.901 93.038 153.581C93.1647 153.254 93.3447 152.968 93.578 152.721C93.8113 152.468 94.0847 152.271 94.398 152.131C94.718 151.984 95.0647 151.911 95.438 151.911C95.8113 151.911 96.1547 151.984 96.468 152.131C96.7813 152.271 97.0547 152.468 97.288 152.721C97.5213 152.968 97.7013 153.254 97.828 153.581C97.9547 153.901 98.018 154.248 98.018 154.621C98.018 154.981 97.9547 155.324 97.828 155.651C97.7013 155.971 97.5213 156.258 97.288 156.511C97.0613 156.758 96.788 156.954 96.468 157.101C96.1547 157.241 95.808 157.311 95.428 157.311ZM93.538 154.631C93.538 155.018 93.6213 155.371 93.788 155.691C93.9613 156.004 94.1913 156.254 94.478 156.441C94.7647 156.621 95.0813 156.711 95.428 156.711C95.7747 156.711 96.0913 156.618 96.378 156.431C96.6647 156.244 96.8947 155.991 97.068 155.671C97.2413 155.344 97.328 154.991 97.328 154.611C97.328 154.224 97.2413 153.871 97.068 153.551C96.8947 153.231 96.6647 152.978 96.378 152.791C96.0913 152.604 95.7747 152.511 95.428 152.511C95.0813 152.511 94.7647 152.608 94.478 152.801C94.198 152.994 93.9713 153.251 93.798 153.571C93.6247 153.884 93.538 154.238 93.538 154.631ZM103.785 157.211H103.105V154.301C103.105 153.688 103.015 153.241 102.835 152.961C102.655 152.674 102.372 152.531 101.985 152.531C101.719 152.531 101.455 152.598 101.195 152.731C100.935 152.858 100.705 153.034 100.505 153.261C100.312 153.481 100.172 153.734 100.085 154.021V157.211H99.4053V152.001H100.025V153.181C100.165 152.928 100.349 152.708 100.575 152.521C100.802 152.328 101.059 152.178 101.345 152.071C101.632 151.964 101.929 151.911 102.235 151.911C102.522 151.911 102.765 151.964 102.965 152.071C103.165 152.178 103.325 152.331 103.445 152.531C103.565 152.724 103.652 152.961 103.705 153.241C103.759 153.514 103.785 153.821 103.785 154.161V157.211ZM110.784 156.961C110.731 156.981 110.648 157.018 110.534 157.071C110.421 157.124 110.284 157.171 110.124 157.211C109.964 157.251 109.791 157.271 109.604 157.271C109.411 157.271 109.228 157.234 109.054 157.161C108.888 157.088 108.754 156.978 108.654 156.831C108.554 156.678 108.504 156.491 108.504 156.271V152.541H107.784V152.001H108.504V150.241H109.184V152.001H110.384V152.541H109.184V156.081C109.198 156.268 109.264 156.408 109.384 156.501C109.511 156.594 109.654 156.641 109.814 156.641C110.001 156.641 110.171 156.611 110.324 156.551C110.478 156.484 110.571 156.438 110.604 156.411L110.784 156.961ZM116.264 157.211H115.584V154.301C115.584 153.714 115.48 153.274 115.274 152.981C115.067 152.681 114.77 152.531 114.384 152.531C114.13 152.531 113.877 152.598 113.624 152.731C113.377 152.858 113.157 153.034 112.964 153.261C112.777 153.481 112.644 153.734 112.564 154.021V157.211H111.884V149.911H112.564V153.181C112.77 152.794 113.057 152.488 113.424 152.261C113.797 152.028 114.194 151.911 114.614 151.911C114.914 151.911 115.167 151.964 115.374 152.071C115.587 152.178 115.757 152.334 115.884 152.541C116.017 152.741 116.114 152.978 116.174 153.251C116.234 153.518 116.264 153.821 116.264 154.161V157.211ZM120.214 157.311C119.841 157.311 119.494 157.241 119.174 157.101C118.854 156.954 118.577 156.758 118.344 156.511C118.111 156.258 117.927 155.968 117.794 155.641C117.667 155.314 117.604 154.964 117.604 154.591C117.604 154.104 117.714 153.658 117.934 153.251C118.161 152.844 118.471 152.521 118.864 152.281C119.257 152.034 119.704 151.911 120.204 151.911C120.717 151.911 121.164 152.034 121.544 152.281C121.931 152.528 122.234 152.854 122.454 153.261C122.674 153.661 122.784 154.101 122.784 154.581C122.784 154.634 122.784 154.688 122.784 154.741C122.784 154.788 122.781 154.824 122.774 154.851H118.314C118.347 155.224 118.451 155.558 118.624 155.851C118.804 156.138 119.034 156.368 119.314 156.541C119.601 156.708 119.911 156.791 120.244 156.791C120.584 156.791 120.904 156.704 121.204 156.531C121.511 156.358 121.724 156.131 121.844 155.851L122.434 156.011C122.327 156.258 122.164 156.481 121.944 156.681C121.724 156.881 121.464 157.038 121.164 157.151C120.871 157.258 120.554 157.311 120.214 157.311ZM118.294 154.361H122.144C122.117 153.981 122.014 153.648 121.834 153.361C121.661 153.074 121.431 152.851 121.144 152.691C120.864 152.524 120.554 152.441 120.214 152.441C119.874 152.441 119.564 152.524 119.284 152.691C119.004 152.851 118.774 153.078 118.594 153.371C118.421 153.658 118.321 153.988 118.294 154.361ZM133.159 152.001H133.829L131.589 157.211H130.999L129.909 154.621L128.829 157.211H128.239L125.999 152.001H126.659L128.559 156.511L129.519 154.161L128.639 152.011H129.249L129.909 153.701L130.579 152.011H131.179L130.309 154.161L131.269 156.511L133.159 152.001ZM134.436 155.711C134.436 155.384 134.53 155.104 134.716 154.871C134.903 154.631 135.16 154.448 135.486 154.321C135.82 154.188 136.203 154.121 136.636 154.121C136.89 154.121 137.153 154.141 137.426 154.181C137.7 154.221 137.943 154.281 138.156 154.361V153.921C138.156 153.481 138.026 153.131 137.766 152.871C137.506 152.611 137.146 152.481 136.686 152.481C136.406 152.481 136.13 152.534 135.856 152.641C135.59 152.741 135.31 152.891 135.016 153.091L134.756 152.611C135.096 152.378 135.43 152.204 135.756 152.091C136.083 151.971 136.416 151.911 136.756 151.911C137.396 151.911 137.903 152.094 138.276 152.461C138.65 152.828 138.836 153.334 138.836 153.981V156.391C138.836 156.484 138.856 156.554 138.896 156.601C138.936 156.641 139 156.664 139.086 156.671V157.211C139.013 157.218 138.95 157.224 138.896 157.231C138.843 157.238 138.803 157.238 138.776 157.231C138.61 157.224 138.483 157.171 138.396 157.071C138.31 156.971 138.263 156.864 138.256 156.751L138.246 156.371C138.013 156.671 137.71 156.904 137.336 157.071C136.963 157.231 136.583 157.311 136.196 157.311C135.863 157.311 135.56 157.241 135.286 157.101C135.02 156.954 134.81 156.761 134.656 156.521C134.51 156.274 134.436 156.004 134.436 155.711ZM137.926 156.111C138 156.018 138.056 155.928 138.096 155.841C138.136 155.754 138.156 155.678 138.156 155.611V154.851C137.93 154.764 137.693 154.698 137.446 154.651C137.206 154.604 136.963 154.581 136.716 154.581C136.23 154.581 135.836 154.678 135.536 154.871C135.236 155.064 135.086 155.328 135.086 155.661C135.086 155.854 135.136 156.038 135.236 156.211C135.336 156.378 135.483 156.518 135.676 156.631C135.87 156.738 136.096 156.791 136.356 156.791C136.683 156.791 136.986 156.728 137.266 156.601C137.553 156.474 137.773 156.311 137.926 156.111ZM140.699 158.811C140.793 158.818 140.883 158.821 140.969 158.821C141.056 158.828 141.119 158.824 141.159 158.811C141.239 158.798 141.316 158.751 141.389 158.671C141.463 158.591 141.549 158.438 141.649 158.211C141.749 157.984 141.889 157.651 142.069 157.211L139.799 152.001H140.519L142.429 156.511L144.189 152.001H144.869L142.169 158.721C142.123 158.848 142.053 158.964 141.959 159.071C141.866 159.184 141.749 159.271 141.609 159.331C141.476 159.398 141.309 159.434 141.109 159.441C141.049 159.448 140.986 159.448 140.919 159.441C140.859 159.441 140.786 159.434 140.699 159.421V158.811ZM145.208 157.211V156.231H145.798V157.211H145.208Z" fill="#5F5F5F"/>
<defs>
<linearGradient id="paint0_linear_4295_28192" x1="82.5455" y1="74.5299" x2="92.5899" y2="-0.870223" gradientUnits="userSpaceOnUse">
<stop stop-color="#F59600"/>
<stop offset="1" stop-color="#F59600" stop-opacity="0"/>
</linearGradient>
</defs>
</svg>
